<svg width="169" height="139" viewBox="0 0 169 139" fill="none" xmlns="http://www.w3.org/2000/svg">
<g id="double decker bus-rafiki 1" filter="url(#filter0_i_9_2)">
<g id="freepik--Shadow--inject-5">
<path id="Vector" d="M153.092 126.613C153.092 127.554 122.383 128.317 84.5 128.317C46.6174 128.317 15.9075 127.554 15.9075 126.613C15.9075 125.671 46.6174 124.908 84.5 124.908C122.383 124.908 153.092 125.671 153.092 126.613Z" fill="#F5F5F5"/>
</g>
<g id="freepik--Bus--inject-5">
<g id="Group">
<g id="Group_2">
<path id="Vector_2" d="M81.3598 105.519H66.0452V120.555H81.3598V105.519Z" fill="#1B24FF"/>
<path id="Vector_3" opacity="0.5" d="M81.3598 105.519H66.0452V120.555H81.3598V105.519Z" fill="black"/>
</g>
<g id="Group_3">
<path id="Vector_4" d="M72.1847 126.382C74.6019 126.382 76.5614 122.6 76.5614 117.934C76.5614 113.268 74.6019 109.486 72.1847 109.486C69.7675 109.486 67.808 113.268 67.808 117.934C67.808 122.6 69.7675 126.382 72.1847 126.382Z" fill="#263238"/>
<path id="Vector_5" d="M72.7686 117.934C72.7686 120.85 73.3489 124.864 72.1847 126.382H68.3918C65.9746 126.382 64.0151 122.6 64.0151 117.934C64.0151 113.268 65.9746 109.486 68.3918 109.486C69.4315 109.486 72.0619 109.333 72.1847 109.486C73.311 110.891 72.7686 115.275 72.7686 117.934Z" fill="#263238"/>
<path id="Vector_6" opacity="0.3" d="M72.4891 121.983C73.7216 121.983 74.7208 120.054 74.7208 117.675C74.7208 115.296 73.7216 113.367 72.4891 113.367C71.2565 113.367 70.2574 115.296 70.2574 117.675C70.2574 120.054 71.2565 121.983 72.4891 121.983Z" fill="white"/>
</g>
<g id="Group_4">
<path id="Vector_7" d="M131.634 105.519H116.319V120.555H131.634V105.519Z" fill="#1B24FF"/>
<path id="Vector_8" opacity="0.5" d="M131.634 105.519H116.319V120.555H131.634V105.519Z" fill="black"/>
</g>
<g id="Group_5">
<path id="Vector_9" d="M122.459 126.382C124.876 126.382 126.835 122.6 126.835 117.934C126.835 113.268 124.876 109.486 122.459 109.486C120.042 109.486 118.082 113.268 118.082 117.934C118.082 122.6 120.042 126.382 122.459 126.382Z" fill="#263238"/>
<path id="Vector_10" d="M123.043 117.934C123.043 120.85 123.623 124.864 122.459 126.382H118.666C116.249 126.382 114.289 122.6 114.289 117.934C114.289 113.268 116.249 109.486 118.666 109.486C119.706 109.486 122.336 109.333 122.459 109.486C123.585 110.891 123.043 115.275 123.043 117.934Z" fill="#263238"/>
<path id="Vector_11" opacity="0.3" d="M122.763 121.983C123.996 121.983 124.995 120.054 124.995 117.675C124.995 115.296 123.996 113.367 122.763 113.367C121.531 113.367 120.531 115.296 120.531 117.675C120.531 120.054 121.531 121.983 122.763 121.983Z" fill="white"/>
</g>
<g id="Group_6">
<path id="Vector_12" d="M102.44 126.382C104.858 126.382 106.817 122.6 106.817 117.934C106.817 113.268 104.858 109.486 102.44 109.486C100.023 109.486 98.0637 113.268 98.0637 117.934C98.0637 122.6 100.023 126.382 102.44 126.382Z" fill="#263238"/>
<path id="Vector_13" d="M103.024 117.934C103.024 120.85 103.605 124.864 102.44 126.382H98.6476C96.2303 126.382 94.2708 122.6 94.2708 117.934C94.2708 113.268 96.2303 109.486 98.6476 109.486C99.6872 109.486 102.318 109.333 102.44 109.486C103.567 110.891 103.024 115.275 103.024 117.934Z" fill="#263238"/>
<path id="Vector_14" opacity="0.3" d="M102.745 121.983C103.977 121.983 104.977 120.054 104.977 117.675C104.977 115.296 103.977 113.367 102.745 113.367C101.512 113.367 100.513 115.296 100.513 117.675C100.513 120.054 101.512 121.983 102.745 121.983Z" fill="white"/>
</g>
<path id="Vector_15" opacity="0.3" d="M98.6476 109.486C99.6873 109.486 102.318 109.333 102.44 109.486C104.858 109.486 106.817 113.268 106.817 117.934C106.817 122.6 104.858 126.382 102.44 126.382H98.6476C96.2303 126.382 94.2708 122.6 94.2708 117.934C94.2708 113.268 96.2303 109.486 98.6476 109.486Z" fill="black"/>
<g id="Group_7">
<path id="Vector_16" d="M45.3013 126.382C47.7185 126.382 49.678 122.6 49.678 117.934C49.678 113.268 47.7185 109.486 45.3013 109.486C42.8841 109.486 40.9245 113.268 40.9245 117.934C40.9245 122.6 42.8841 126.382 45.3013 126.382Z" fill="#263238"/>
<path id="Vector_17" d="M45.8851 117.934C45.8851 120.85 46.4655 124.864 45.3013 126.382H41.5084C39.0912 126.382 37.1317 122.6 37.1317 117.934C37.1317 113.268 39.0912 109.486 41.5084 109.486C42.5481 109.486 45.1785 109.333 45.3013 109.486C46.4276 110.891 45.8851 115.275 45.8851 117.934Z" fill="#263238"/>
<path id="Vector_18" opacity="0.3" d="M45.6057 121.983C46.8382 121.983 47.8374 120.054 47.8374 117.675C47.8374 115.296 46.8382 113.367 45.6057 113.367C44.3731 113.367 43.3739 115.296 43.3739 117.675C43.3739 120.054 44.3731 121.983 45.6057 121.983Z" fill="white"/>
</g>
<path id="Vector_19" opacity="0.3" d="M41.4775 109.486C42.5172 109.486 45.1476 109.333 45.2704 109.486C47.6876 109.486 49.6471 113.268 49.6471 117.934C49.6471 122.6 47.6876 126.382 45.2704 126.382H41.4775C39.0603 126.382 37.1008 122.6 37.1008 117.934C37.1008 113.268 39.0603 109.486 41.4775 109.486Z" fill="black"/>
<path id="Vector_20" d="M154.568 51.497C154.568 48.8371 152.82 46.6809 150.664 46.6809H33.9092C29.9979 46.7439 27.1888 46.3524 25.8577 49.9771C24.5648 53.4979 22.9075 60.6513 20.2216 74.8838C18.545 83.7679 15.1761 104.922 16.1971 113.778L16.4827 115.503C16.7028 118.368 18.6443 120.555 20.9663 120.555H67.506C67.2263 119.41 67.0701 118.144 67.0701 116.813C67.0701 111.658 69.3972 107.479 72.2679 107.479C75.1385 107.479 77.4656 111.658 77.4656 116.813C77.4656 118.144 77.3094 119.41 77.0298 120.555H118.316C118.037 119.41 117.88 118.144 117.88 116.813C117.88 111.658 120.208 107.479 123.078 107.479C125.949 107.479 128.276 111.658 128.276 116.813C128.276 118.144 128.12 119.41 127.84 120.555H150.064C152.552 120.555 154.568 118.057 154.568 114.974V51.497Z" fill="#1B24FF"/>
<path id="Vector_21" opacity="0.5" d="M154.568 110.391H152.395V117.607H154.036C154.036 117.607 154.568 116.517 154.568 115.172V110.391Z" fill="white"/>
<path id="Vector_22" d="M83.4454 116.21H81.7744C81.4508 116.21 81.1884 115.887 81.1884 115.487C81.1884 115.088 81.4508 114.764 81.7744 114.764H83.4454C83.769 114.764 84.0313 115.088 84.0313 115.487C84.0313 115.887 83.769 116.21 83.4454 116.21Z" fill="white"/>
<path id="Vector_23" d="M112.72 115.734H111.049C110.726 115.734 110.463 115.41 110.463 115.011C110.463 114.612 110.726 114.288 111.049 114.288H112.72C113.044 114.288 113.306 114.612 113.306 115.011C113.306 115.41 113.044 115.734 112.72 115.734Z" fill="white"/>
<path id="Vector_24" d="M141.064 115.764H139.393C139.07 115.764 138.807 115.44 138.807 115.041C138.807 114.642 139.07 114.318 139.393 114.318H141.064C141.388 114.318 141.65 114.642 141.65 115.041C141.65 115.44 141.388 115.764 141.064 115.764Z" fill="white"/>
<path id="Vector_25" opacity="0.4" d="M16.9135 110.048C16.9135 110.048 17.3082 113.269 19.2817 113.606C21.2552 113.943 26.295 113.681 26.295 113.681L25.9156 112.485C25.4838 111.123 24.429 110.218 23.2442 110.191L16.9135 110.048Z" fill="white"/>
<path id="Vector_26" d="M37.4273 117.442H28.7599V120.555H37.4273V117.442Z" fill="#263238"/>
<path id="Vector_27" d="M20.217 118.735C20.217 119.196 19.9912 119.57 19.7127 119.57C19.4342 119.57 19.2084 119.196 19.2084 118.735C19.2084 118.274 19.4342 117.9 19.7127 117.9C19.9912 117.9 20.217 118.274 20.217 118.735Z" fill="white"/>
<path id="Vector_28" d="M21.3857 119.292C21.5714 119.292 21.722 119.043 21.722 118.735C21.722 118.428 21.5714 118.178 21.3857 118.178C21.2 118.178 21.0494 118.428 21.0494 118.735C21.0494 119.043 21.2 119.292 21.3857 119.292Z" fill="white"/>
<path id="Vector_29" d="M16.7428 117.17H22.0075C23.5229 117.17 24.7514 118.686 24.7514 120.555" stroke="#263238" stroke-miterlimit="10"/>
<path id="Vector_30" d="M45.9703 118.735C45.9703 119.196 46.1961 119.57 46.4746 119.57C46.7531 119.57 46.9789 119.196 46.9789 118.735C46.9789 118.274 46.7531 117.9 46.4746 117.9C46.1961 117.9 45.9703 118.274 45.9703 118.735Z" fill="white"/>
<path id="Vector_31" d="M44.8016 119.292C44.9873 119.292 45.1378 119.043 45.1378 118.735C45.1378 118.428 44.9873 118.178 44.8016 118.178C44.6158 118.178 44.4653 118.428 44.4653 118.735C44.4653 119.043 44.6158 119.292 44.8016 119.292Z" fill="white"/>
<path id="Vector_32" d="M52.4415 117.17H44.1798C42.6643 117.17 41.4358 118.686 41.4358 120.555" stroke="#263238" stroke-miterlimit="10"/>
<path id="Vector_33" d="M77.3621 117.607H118.082" stroke="#263238" stroke-miterlimit="10"/>
<path id="Vector_34" d="M128.06 117.607H153.869" stroke="#263238" stroke-miterlimit="10"/>
<path id="Vector_35" d="M130.801 117.675V101.122" stroke="#263238" stroke-miterlimit="10"/>
<path id="Vector_36" d="M143.153 117.607V96.0526" stroke="#263238" stroke-miterlimit="10"/>
<path id="Vector_37" d="M79.7133 117.607V101.122" stroke="#263238" stroke-miterlimit="10"/>
<path id="Vector_38" opacity="0.4" d="M19.6392 113.443C20.331 113.443 20.8917 112.751 20.8917 111.898C20.8917 111.044 20.331 110.352 19.6392 110.352C18.9475 110.352 18.3867 111.044 18.3867 111.898C18.3867 112.751 18.9475 113.443 19.6392 113.443Z" fill="white"/>
<g id="Group_8">
<path id="Vector_39" opacity="0.4" d="M51.3834 110.048C51.3834 110.048 50.9887 113.269 49.0152 113.606C47.0418 113.943 42.0019 113.681 42.0019 113.681L42.4279 112.338C42.8315 111.065 43.8174 110.219 44.9248 110.194L51.3834 110.048Z" fill="white"/>
<path id="Vector_40" opacity="0.4" d="M47.9486 113.443C48.6403 113.443 49.2011 112.751 49.2011 111.898C49.2011 111.044 48.6403 110.352 47.9486 110.352C47.2568 110.352 46.6961 111.044 46.6961 111.898C46.6961 112.751 47.2568 113.443 47.9486 113.443Z" fill="white"/>
</g>
<path id="Vector_41" d="M15.9703 108.013C16.4658 108.021 53.4272 108.013 53.4272 108.013" stroke="#263238" stroke-miterlimit="10"/>
<g id="Group_9">
<path id="Vector_42" d="M51.7817 75.1527H23.0529L23.1626 69.724H51.7817V75.1527Z" fill="black"/>
<path id="Vector_43" d="M29.1597 71.1206H27.5828V74.1793H29.1597V71.1206Z" fill="white"/>
<path id="Vector_44" d="M31.0102 71.1206H29.5V74.1793H31.0102V71.1206Z" fill="white"/>
<path id="Vector_45" d="M45.963 71.9635H33.5876V73.1692H45.963V71.9635Z" fill="white"/>
</g>
<path id="Vector_46" d="M25.7745 49.9771H53.6951L51.684 66.1208H21.8414C21.8414 66.1208 24.4436 53.008 25.7745 49.9771Z" fill="#263238"/>
<path id="Vector_47" d="M77.894 51.7108L154.568 51.893V66.6153L87.9151 67.0275L77.894 51.7108Z" fill="#263238"/>
<path id="Vector_48" d="M19.4335 78.8145L49.5824 79.02L46.9984 104.837L16.0994 104.837C15.9467 104.87 17.2858 92.4624 18.5191 84.3494C18.8753 82.0068 19.1705 79.8951 19.4335 78.8145Z" fill="#263238"/>
<path id="Vector_49" d="M51.684 66.1208H57.3363L79.7133 101.122H143.153V79.402H84.0313L66.0452 49.9771H52.5437L50.319 66.1208" fill="#263238"/>
<path id="Vector_50" d="M49.6471 78.9613H56.4482L69.0727 104.837L46.9984 104.837L49.6471 78.9613Z" fill="#263238"/>
<path id="Vector_51" opacity="0.2" d="M25.7745 49.9771C24.4816 53.4979 22.8243 60.6513 20.1384 74.8838C18.4618 83.7679 15.093 104.922 16.1139 113.778L16.3995 115.503C16.6196 118.368 18.561 120.555 20.8831 120.555H52.0865L59.8333 46.6809H33.826C29.9147 46.7439 27.1056 46.3524 25.7745 49.9771Z" fill="white"/>
<path id="Vector_52" d="M62.067 87.6791V105.519H62.8044V88.2477L62.067 87.6791Z" fill="#1B24FF"/>
<path id="Vector_53" d="M95.696 51.1919H95.0032V69.7612H95.696V51.1919Z" fill="#1B24FF"/>
<path id="Vector_54" d="M84.7242 78.2984H84.0313V102.3H84.7242V78.2984Z" fill="#1B24FF"/>
<path id="Vector_55" d="M115.666 78.2984H114.973V102.3H115.666V78.2984Z" fill="#1B24FF"/>
<path id="Vector_56" d="M112.608 51.1919H111.915V69.7612H112.608V51.1919Z" fill="#1B24FF"/>
<path id="Vector_57" d="M132.361 51.1919H131.668V69.7612H132.361V51.1919Z" fill="#1B24FF"/>
<path id="Vector_58" opacity="0.3" d="M16.7269 97.6823L44.1522 78.9613H53.6951L16.0994 104.837L16.7269 97.6823Z" fill="white"/>
<path id="Vector_59" opacity="0.3" d="M17.0197 95.2102L40.9731 78.9613L38.5399 78.9339L17.239 93.0462L17.0197 95.2102Z" fill="white"/>
<path id="Vector_60" opacity="0.3" d="M22.7652 61.6582L43.504 50.0973L51.7817 49.9771L21.8414 66.1208L22.7652 61.6582Z" fill="white"/>
<path id="Vector_61" d="M143.153 79.402H154.568" stroke="#263238" stroke-miterlimit="10"/>
<path id="Vector_62" opacity="0.1" d="M84.7242 91.3312L105.64 79.378L114.973 79.402V84.8559L84.7242 101.122V91.3312Z" fill="white"/>
<path id="Vector_63" opacity="0.1" d="M115.666 97.9137L143.153 85.0146L143.117 79.398L115.666 92.3773V96.4891" fill="white"/>
<path id="Vector_64" opacity="0.1" d="M143.117 87.279L115.666 100.258V101.122L118.452 101.075L143.153 89.295L143.117 87.279Z" fill="white"/>
<path id="Vector_65" opacity="0.1" d="M60.764 71.4823L73.7025 62.5043L79.7133 72.3379L67.0577 81.3265L60.764 71.4823Z" fill="white"/>
<path id="Vector_66" opacity="0.1" d="M69.0727 84.4783L81.6764 75.5495L82.9813 77.6843L70.8633 87.279L69.0727 84.4783Z" fill="white"/>
<path id="Vector_67" opacity="0.1" d="M95.696 66.9793L121.861 51.8153H136.792C136.792 51.8153 113.777 67.0876 113.491 66.9793C113.206 66.8711 95.696 66.9793 95.696 66.9793Z" fill="white"/>
<path id="Vector_68" opacity="0.1" d="M117.315 67.0275L142.224 51.8637H147.664L123.542 66.8072L117.315 67.0275Z" fill="white"/>
<g id="Group_10">
<g id="Group_11">
<path id="Vector_69" d="M16.2203 86.3086C15.2326 86.3086 14.432 85.3208 14.432 84.1023V76.3369C14.432 75.1184 15.2326 74.1306 16.2203 74.1306C17.2079 74.1306 18.0086 75.1184 18.0086 76.3369V84.1023C18.0086 85.3208 17.2079 86.3086 16.2203 86.3086Z" fill="#1B24FF"/>
<path id="Vector_70" d="M15.7934 74.8826C15.7934 74.8826 16.2578 72.8057 17.4478 72.5909C18.6378 72.376 20.7566 72.5909 20.7566 72.5909V73.689C20.7566 73.689 18.3185 73.5696 17.9122 73.689C17.5059 73.8084 17.0415 75.3481 17.0415 75.3481L15.7934 74.8826Z" fill="#1B24FF"/>
</g>
<g id="Group_12" opacity="0.3">
<path id="Vector_71" d="M16.2203 86.3086C15.2326 86.3086 14.432 85.3208 14.432 84.1023V76.3369C14.432 75.1184 15.2326 74.1306 16.2203 74.1306C17.2079 74.1306 18.0086 75.1184 18.0086 76.3369V84.1023C18.0086 85.3208 17.2079 86.3086 16.2203 86.3086Z" fill="white"/>
<path id="Vector_72" d="M15.7934 74.8826C15.7934 74.8826 16.2578 72.8057 17.4478 72.5909C18.6378 72.376 20.7566 72.5909 20.7566 72.5909V73.689C20.7566 73.689 18.3185 73.5696 17.9122 73.689C17.5059 73.8084 17.0415 75.3481 17.0415 75.3481L15.7934 74.8826Z" fill="white"/>
</g>
</g>
<g id="Group_13">
<g id="Group_14">
<path id="Vector_73" d="M52.3211 74.9482H52.3211C51.3334 74.9482 50.5328 75.936 50.5328 77.1545V84.92C50.5328 86.1385 51.3334 87.1263 52.3211 87.1263H52.3211C53.3088 87.1263 54.1094 86.1385 54.1094 84.92V77.1545C54.1094 75.936 53.3088 74.9482 52.3211 74.9482Z" fill="#1B24FF"/>
<path id="Vector_74" d="M51.8943 75.7002C51.8943 75.7002 52.3586 73.6233 53.5486 73.4085C54.7386 73.1936 56.8574 73.4085 56.8574 73.4085V74.5066C56.8574 74.5066 54.4194 74.3872 54.013 74.5066C53.6067 74.626 53.1423 76.1657 53.1423 76.1657L51.8943 75.7002Z" fill="#1B24FF"/>
</g>
<g id="Group_15" opacity="0.3">
<path id="Vector_75" d="M52.3211 74.9482H52.3211C51.3334 74.9482 50.5328 75.936 50.5328 77.1545V84.92C50.5328 86.1385 51.3334 87.1263 52.3211 87.1263H52.3211C53.3088 87.1263 54.1094 86.1385 54.1094 84.92V77.1545C54.1094 75.936 53.3088 74.9482 52.3211 74.9482Z" fill="white"/>
<path id="Vector_76" d="M51.8943 75.7002C51.8943 75.7002 52.3586 73.6233 53.5486 73.4085C54.7386 73.1936 56.8574 73.4085 56.8574 73.4085V74.5066C56.8574 74.5066 54.4194 74.3872 54.013 74.5066C53.6067 74.626 53.1423 76.1657 53.1423 76.1657L51.8943 75.7002Z" fill="white"/>
</g>
</g>
<path id="Vector_77" d="M115.771 117.557V101.116" stroke="#263238" stroke-miterlimit="10"/>
</g>
</g>
</g>
<defs>
<filter id="filter0_i_9_2" x="0" y="0" width="169" height="139" filterUnits="userSpaceOnUse" color-interpolation-filters="sRGB">
<feFlood flood-opacity="0" result="BackgroundImageFix"/>
<feBlend mode="normal" in="SourceGraphic" in2="BackgroundImageFix" result="shape"/>
<feColorMatrix in="SourceAlpha" type="matrix" values="0 0 0 0 0 0 0 0 0 0 0 0 0 0 0 0 0 0 127 0" result="hardAlpha"/>
<feOffset/>
<feGaussianBlur stdDeviation="2"/>
<feComposite in2="hardAlpha" operator="arithmetic" k2="-1" k3="1"/>
<feColorMatrix type="matrix" values="0 0 0 0 0 0 0 0 0 0 0 0 0 0 0 0 0 0 1 0"/>
<feBlend mode="normal" in2="shape" result="effect1_innerShadow_9_2"/>
</filter>
</defs>
</svg>
