<svg width="216" height="213" viewBox="0 0 216 213" fill="none" xmlns="http://www.w3.org/2000/svg">
<g id="Fingerprint-bro 1">
<g id="freepik--background-simple--inject-10">
<path id="Vector" opacity="0.7" d="M29.3458 71.1804C29.3458 71.1804 17.3016 101.852 34.2274 132.737C51.1531 163.622 86.0155 179.938 113.918 193.89C141.821 207.841 170.796 201.046 184.563 178.196C198.331 155.345 179.448 139.034 179.423 106.449C179.397 73.8642 184.369 65.2377 166.463 37.7095C148.556 10.1814 104.661 4.08535 71.4658 24.5035C38.2709 44.9217 29.3458 71.1804 29.3458 71.1804Z" fill="white"/>
<path id="Vector_2" d="M8.54496 119.369C6.31236 109.186 7.27826 98.5733 11.3141 88.9445C16.848 75.4744 28.7107 65.9065 42.0077 60.3216C61.3354 52.2276 80.3088 52.0529 96.0077 36.1504C100.85 31.2428 104.92 25.6239 109.866 20.8144C124.468 6.64561 145.835 8.36239 161.788 19.6003C195.052 43.0303 207.045 89.4643 205.191 127.83C204.362 145.053 196.024 161.083 182.827 172.381C152.98 197.941 102.302 193.638 68.0184 180.296C42.4699 170.357 14.5498 147.153 8.54496 119.369Z" fill="#1B24FF"/>
<path id="Vector_3" opacity="0.7" d="M8.54496 119.369C6.31236 109.186 7.27826 98.5733 11.3141 88.9445C16.848 75.4744 28.7107 65.9065 42.0077 60.3216C61.3354 52.2276 80.3088 52.0529 96.0077 36.1504C100.85 31.2428 104.92 25.6239 109.866 20.8144C124.468 6.64561 145.835 8.36239 161.788 19.6003C195.052 43.0303 207.045 89.4643 205.191 127.83C204.362 145.053 196.024 161.083 182.827 172.381C152.98 197.941 102.302 193.638 68.0184 180.296C42.4699 170.357 14.5498 147.153 8.54496 119.369Z" fill="white"/>
</g>
<g id="freepik--Graphics--inject-10">
<path id="Vector_4" d="M108.406 45.5692V48.3979" stroke="#263238" stroke-width="1.10721" stroke-linecap="round" stroke-linejoin="round"/>
<path id="Vector_5" d="M108.406 51.4523V56.0318" stroke="#263238" stroke-width="1.10721" stroke-linecap="round" stroke-linejoin="round" stroke-dasharray="7.17 7.17"/>
<path id="Vector_6" d="M108.406 57.5569V60.3855" stroke="#263238" stroke-width="1.10721" stroke-linecap="round" stroke-linejoin="round"/>
<path id="Vector_7" d="M154.185 93.4559H151.317" stroke="#263238" stroke-width="1.10721" stroke-linecap="round" stroke-linejoin="round"/>
<path id="Vector_8" d="M148.219 93.4559H143.575" stroke="#263238" stroke-width="1.10721" stroke-linecap="round" stroke-linejoin="round" stroke-dasharray="7.17 7.17"/>
<path id="Vector_9" d="M142.029 93.4559H139.16" stroke="#263238" stroke-width="1.10721" stroke-linecap="round" stroke-linejoin="round"/>
<path id="Vector_10" d="M77.6563 93.4559H74.7835" stroke="#263238" stroke-width="1.10721" stroke-linecap="round" stroke-linejoin="round"/>
<path id="Vector_11" d="M71.6904 93.4559H67.0464" stroke="#263238" stroke-width="1.10721" stroke-linecap="round" stroke-linejoin="round" stroke-dasharray="7.17 7.17"/>
<path id="Vector_12" d="M65.4998 93.4559H62.627" stroke="#263238" stroke-width="1.10721" stroke-linecap="round" stroke-linejoin="round"/>
<path id="Vector_13" d="M187.488 103.049C187.488 102.852 187.568 102.662 187.709 102.522C187.851 102.382 188.043 102.304 188.244 102.304C188.444 102.304 188.637 102.382 188.779 102.522C188.92 102.662 189 102.852 189 103.049V104.677C189 104.874 188.92 105.064 188.779 105.204C188.637 105.344 188.444 105.422 188.244 105.422C188.043 105.422 187.851 105.344 187.709 105.204C187.568 105.064 187.488 104.874 187.488 104.677V103.049ZM187.985 104.707C187.985 104.928 188.084 105.013 188.244 105.013C188.404 105.013 188.499 104.928 188.499 104.707V103.003C188.499 102.781 188.399 102.696 188.244 102.696C188.088 102.696 187.985 102.781 187.985 103.003V104.707Z" fill="#263238"/>
<path id="Vector_14" d="M187.842 107.156C187.966 107.171 188.092 107.139 188.193 107.066C188.294 106.993 188.363 106.885 188.387 106.764H188.723V109.908H188.227V107.527H187.842V107.156Z" fill="#263238"/>
<path id="Vector_15" d="M187.488 111.974C187.488 111.776 187.568 111.587 187.709 111.447C187.851 111.307 188.043 111.229 188.244 111.229C188.444 111.229 188.637 111.307 188.779 111.447C188.92 111.587 189 111.776 189 111.974V113.597C189 113.795 188.92 113.985 188.779 114.124C188.637 114.264 188.444 114.343 188.244 114.343C188.043 114.343 187.851 114.264 187.709 114.124C187.568 113.985 187.488 113.795 187.488 113.597V111.974ZM187.985 113.631C187.985 113.853 188.084 113.938 188.244 113.938C188.404 113.938 188.499 113.853 188.499 113.631V111.927C188.499 111.701 188.399 111.621 188.244 111.621C188.088 111.621 187.985 111.701 187.985 111.927V113.631Z" fill="#263238"/>
<path id="Vector_16" d="M187.842 116.081C187.966 116.096 188.092 116.064 188.193 115.991C188.294 115.918 188.363 115.81 188.387 115.689H188.723V118.807H188.227V116.426H187.842V116.081Z" fill="#263238"/>
<path id="Vector_17" d="M187.488 120.899C187.488 120.701 187.568 120.511 187.709 120.372C187.851 120.232 188.043 120.153 188.244 120.153C188.444 120.153 188.637 120.232 188.779 120.372C188.92 120.511 189 120.701 189 120.899V122.522C189 122.72 188.92 122.909 188.779 123.049C188.637 123.189 188.444 123.267 188.244 123.267C188.043 123.267 187.851 123.189 187.709 123.049C187.568 122.909 187.488 122.72 187.488 122.522V120.899ZM187.985 122.552C187.985 122.777 188.084 122.858 188.244 122.858C188.404 122.858 188.499 122.777 188.499 122.552V120.848C188.499 120.626 188.399 120.541 188.244 120.541C188.088 120.541 187.985 120.626 187.985 120.848V122.552Z" fill="#263238"/>
<path id="Vector_18" d="M187.842 125.001C187.966 125.016 188.092 124.984 188.193 124.911C188.294 124.839 188.363 124.731 188.387 124.609H188.723V127.732H188.227V125.351H187.842V125.001Z" fill="#263238"/>
<path id="Vector_19" d="M187.488 129.819C187.488 129.622 187.568 129.432 187.709 129.292C187.851 129.152 188.043 129.074 188.244 129.074C188.444 129.074 188.637 129.152 188.779 129.292C188.92 129.432 189 129.622 189 129.819V131.447C189 131.644 188.92 131.834 188.779 131.974C188.637 132.114 188.444 132.192 188.244 132.192C188.043 132.192 187.851 132.114 187.709 131.974C187.568 131.834 187.488 131.644 187.488 131.447V129.819ZM187.985 131.476C187.985 131.698 188.084 131.783 188.244 131.783C188.404 131.783 188.499 131.698 188.499 131.476V129.772C188.499 129.551 188.399 129.466 188.244 129.466C188.088 129.466 187.985 129.551 187.985 129.772V131.476Z" fill="#263238"/>
<path id="Vector_20" d="M187.488 134.284C187.488 134.086 187.568 133.896 187.709 133.757C187.851 133.617 188.043 133.538 188.244 133.538C188.444 133.538 188.637 133.617 188.779 133.757C188.92 133.896 189 134.086 189 134.284V135.894C189 136.092 188.92 136.281 188.779 136.421C188.637 136.561 188.444 136.639 188.244 136.639C188.043 136.639 187.851 136.561 187.709 136.421C187.568 136.281 187.488 136.092 187.488 135.894V134.284ZM187.985 135.937C187.985 136.162 188.084 136.243 188.244 136.243C188.404 136.243 188.499 136.162 188.499 135.937V134.233C188.499 134.007 188.399 133.922 188.244 133.922C188.088 133.922 187.985 134.007 187.985 134.233V135.937Z" fill="#263238"/>
<path id="Vector_21" d="M187.488 138.744C187.488 138.546 187.568 138.357 187.709 138.217C187.851 138.077 188.043 137.998 188.244 137.998C188.444 137.998 188.637 138.077 188.779 138.217C188.92 138.357 189 138.546 189 138.744V140.367C189 140.565 188.92 140.754 188.779 140.894C188.637 141.034 188.444 141.113 188.244 141.113C188.043 141.113 187.851 141.034 187.709 140.894C187.568 140.754 187.488 140.565 187.488 140.367V138.744ZM187.985 140.401C187.985 140.623 188.084 140.708 188.244 140.708C188.404 140.708 188.499 140.623 188.499 140.401V138.697C188.499 138.476 188.399 138.39 188.244 138.39C188.088 138.39 187.985 138.476 187.985 138.697V140.401Z" fill="#263238"/>
<path id="Vector_22" d="M187.842 147.311C187.966 147.326 188.092 147.294 188.193 147.221C188.294 147.148 188.363 147.04 188.387 146.919H188.723V150.041H188.227V147.66H187.842V147.311Z" fill="#263238"/>
<path id="Vector_23" d="M187.842 151.775C187.967 151.791 188.094 151.759 188.195 151.685C188.297 151.611 188.365 151.502 188.387 151.379H188.723V154.502H188.227V152.12H187.842V151.775Z" fill="#263238"/>
<path id="Vector_24" d="M187.842 156.235C187.966 156.251 188.092 156.219 188.193 156.146C188.294 156.073 188.363 155.965 188.387 155.844H188.723V158.962H188.227V156.585H187.842V156.235Z" fill="#263238"/>
<path id="Vector_25" d="M187.488 161.054C187.488 160.856 187.568 160.666 187.709 160.526C187.851 160.387 188.043 160.308 188.244 160.308C188.444 160.308 188.637 160.387 188.779 160.526C188.92 160.666 189 160.856 189 161.054V162.677C189 162.874 188.92 163.064 188.779 163.204C188.637 163.344 188.444 163.422 188.244 163.422C188.043 163.422 187.851 163.344 187.709 163.204C187.568 163.064 187.488 162.874 187.488 162.677V161.054ZM187.985 162.706C187.985 162.932 188.084 163.013 188.244 163.013C188.404 163.013 188.499 162.932 188.499 162.706V161.028C188.499 160.802 188.399 160.717 188.244 160.717C188.088 160.717 187.985 160.802 187.985 161.028V162.706Z" fill="#263238"/>
<path id="Vector_26" d="M187.488 165.514C187.488 165.316 187.568 165.126 187.709 164.987C187.851 164.847 188.043 164.768 188.244 164.768C188.444 164.768 188.637 164.847 188.779 164.987C188.92 165.126 189 165.316 189 165.514V167.137C189 167.335 188.92 167.524 188.779 167.664C188.637 167.804 188.444 167.882 188.244 167.882C188.043 167.882 187.851 167.804 187.709 167.664C187.568 167.524 187.488 167.335 187.488 167.137V165.514ZM187.985 167.171C187.985 167.392 188.084 167.478 188.244 167.478C188.404 167.478 188.499 167.392 188.499 167.171V165.467C188.499 165.245 188.399 165.16 188.244 165.16C188.088 165.16 187.985 165.245 187.985 165.467V167.171Z" fill="#263238"/>
<path id="Vector_27" d="M187.842 169.62C187.966 169.636 188.092 169.603 188.193 169.531C188.294 169.458 188.363 169.35 188.387 169.229H188.723V172.347H188.227V169.974H187.842V169.62Z" fill="#263238"/>
<path id="Vector_28" d="M190.512 98.2313C190.637 98.2466 190.763 98.2146 190.865 98.1419C190.966 98.0692 191.036 97.9611 191.061 97.8394H191.393V100.962H190.896V98.5807H190.512V98.2313Z" fill="#263238"/>
<path id="Vector_29" d="M190.512 102.696C190.637 102.711 190.763 102.679 190.865 102.606C190.966 102.534 191.036 102.426 191.061 102.304H191.393V105.422H190.896V103.041H190.512V102.696Z" fill="#263238"/>
<path id="Vector_30" d="M190.184 111.974C190.176 111.872 190.189 111.769 190.224 111.672C190.258 111.575 190.312 111.486 190.383 111.411C190.454 111.336 190.54 111.276 190.635 111.235C190.73 111.193 190.833 111.172 190.938 111.172C191.042 111.172 191.145 111.193 191.24 111.235C191.335 111.276 191.421 111.336 191.492 111.411C191.563 111.486 191.617 111.575 191.651 111.672C191.686 111.769 191.699 111.872 191.691 111.974V113.597C191.699 113.7 191.686 113.802 191.651 113.899C191.617 113.996 191.563 114.085 191.492 114.16C191.421 114.236 191.335 114.296 191.24 114.337C191.145 114.378 191.042 114.399 190.938 114.399C190.833 114.399 190.73 114.378 190.635 114.337C190.54 114.296 190.454 114.236 190.383 114.16C190.312 114.085 190.258 113.996 190.224 113.899C190.189 113.802 190.176 113.7 190.184 113.597V111.974ZM190.68 113.631C190.68 113.853 190.78 113.938 190.935 113.938C191.091 113.938 191.195 113.853 191.195 113.631V111.927C191.195 111.701 191.095 111.621 190.935 111.621C190.776 111.621 190.68 111.701 190.68 111.927V113.631Z" fill="#263238"/>
<path id="Vector_31" d="M190.512 125.001C190.637 125.016 190.763 124.984 190.865 124.912C190.966 124.839 191.036 124.731 191.061 124.609H191.393V127.732H190.896V125.351H190.512V125.001Z" fill="#263238"/>
<path id="Vector_32" d="M190.184 129.819C190.176 129.717 190.189 129.614 190.224 129.517C190.258 129.42 190.312 129.331 190.383 129.256C190.454 129.181 190.54 129.121 190.635 129.08C190.73 129.039 190.833 129.017 190.938 129.017C191.042 129.017 191.145 129.039 191.24 129.08C191.335 129.121 191.421 129.181 191.492 129.256C191.563 129.331 191.617 129.42 191.651 129.517C191.686 129.614 191.699 129.717 191.691 129.819V131.447C191.699 131.549 191.686 131.652 191.651 131.749C191.617 131.846 191.563 131.934 191.492 132.01C191.421 132.085 191.335 132.145 191.24 132.186C191.145 132.227 191.042 132.248 190.938 132.248C190.833 132.248 190.73 132.227 190.635 132.186C190.54 132.145 190.454 132.085 190.383 132.01C190.312 131.934 190.258 131.846 190.224 131.749C190.189 131.652 190.176 131.549 190.184 131.447V129.819ZM190.68 131.476C190.68 131.698 190.78 131.783 190.935 131.783C191.091 131.783 191.195 131.698 191.195 131.476V129.772C191.195 129.551 191.095 129.466 190.935 129.466C190.776 129.466 190.68 129.551 190.68 129.772V131.476Z" fill="#263238"/>
<path id="Vector_33" d="M190.512 133.926C190.637 133.941 190.763 133.909 190.865 133.836C190.966 133.764 191.036 133.656 191.061 133.534H191.393V136.657H190.896V134.275H190.512V133.926Z" fill="#263238"/>
<path id="Vector_34" d="M190.512 138.386C190.637 138.402 190.763 138.371 190.866 138.298C190.968 138.225 191.037 138.116 191.061 137.994H191.393V141.117H190.896V138.735H190.512V138.386Z" fill="#263238"/>
<path id="Vector_35" d="M190.512 142.851C190.637 142.866 190.763 142.834 190.865 142.761C190.966 142.688 191.036 142.58 191.061 142.459H191.393V145.577H190.896V143.196H190.512V142.851Z" fill="#263238"/>
<path id="Vector_36" d="M190.184 147.669C190.176 147.566 190.189 147.463 190.224 147.367C190.258 147.27 190.312 147.181 190.383 147.105C190.454 147.03 190.54 146.97 190.635 146.929C190.73 146.888 190.833 146.867 190.938 146.867C191.042 146.867 191.145 146.888 191.24 146.929C191.335 146.97 191.421 147.03 191.492 147.105C191.563 147.181 191.617 147.27 191.651 147.367C191.686 147.463 191.699 147.566 191.691 147.669V149.292C191.699 149.394 191.686 149.497 191.651 149.594C191.617 149.691 191.563 149.78 191.492 149.855C191.421 149.93 191.335 149.99 191.24 150.031C191.145 150.072 191.042 150.094 190.938 150.094C190.833 150.094 190.73 150.072 190.635 150.031C190.54 149.99 190.454 149.93 190.383 149.855C190.312 149.78 190.258 149.691 190.224 149.594C190.189 149.497 190.176 149.394 190.184 149.292V147.669ZM190.68 149.322C190.68 149.547 190.78 149.628 190.935 149.628C191.091 149.628 191.195 149.547 191.195 149.322V147.639C191.195 147.413 191.095 147.328 190.935 147.328C190.776 147.328 190.68 147.413 190.68 147.639V149.322Z" fill="#263238"/>
<path id="Vector_37" d="M190.184 152.129C190.176 152.026 190.189 151.924 190.224 151.827C190.258 151.73 190.312 151.641 190.383 151.566C190.454 151.49 190.54 151.43 190.635 151.389C190.73 151.348 190.833 151.327 190.938 151.327C191.042 151.327 191.145 151.348 191.24 151.389C191.335 151.43 191.421 151.49 191.492 151.566C191.563 151.641 191.617 151.73 191.651 151.827C191.686 151.924 191.699 152.026 191.691 152.129V153.752C191.699 153.854 191.686 153.957 191.651 154.054C191.617 154.151 191.563 154.24 191.492 154.315C191.421 154.39 191.335 154.45 191.24 154.491C191.145 154.533 191.042 154.554 190.938 154.554C190.833 154.554 190.73 154.533 190.635 154.491C190.54 154.45 190.454 154.39 190.383 154.315C190.312 154.24 190.258 154.151 190.224 154.054C190.189 153.957 190.176 153.854 190.184 153.752V152.129ZM190.68 153.786C190.68 154.008 190.78 154.093 190.935 154.093C191.091 154.093 191.195 154.008 191.195 153.786V152.082C191.195 151.86 191.095 151.775 190.935 151.775C190.776 151.775 190.68 151.86 190.68 152.082V153.786Z" fill="#263238"/>
<path id="Vector_38" d="M185.151 125.001C185.276 125.016 185.402 124.984 185.503 124.912C185.605 124.839 185.675 124.731 185.7 124.609H186.032V127.732H185.535V125.351H185.151V125.001Z" fill="#263238"/>
<path id="Vector_39" d="M184.801 129.819C184.801 129.622 184.881 129.432 185.022 129.292C185.164 129.152 185.356 129.074 185.557 129.074C185.757 129.074 185.95 129.152 186.092 129.292C186.233 129.432 186.313 129.622 186.313 129.819V131.447C186.313 131.644 186.233 131.834 186.092 131.974C185.95 132.114 185.757 132.192 185.557 132.192C185.356 132.192 185.164 132.114 185.022 131.974C184.881 131.834 184.801 131.644 184.801 131.447V129.819ZM185.298 131.476C185.298 131.698 185.397 131.783 185.557 131.783C185.717 131.783 185.816 131.698 185.816 131.476V129.772C185.816 129.551 185.717 129.466 185.557 129.466C185.397 129.466 185.298 129.551 185.298 129.772V131.476Z" fill="#263238"/>
<path id="Vector_40" d="M184.801 134.284C184.801 134.086 184.881 133.896 185.022 133.757C185.164 133.617 185.356 133.538 185.557 133.538C185.757 133.538 185.95 133.617 186.092 133.757C186.233 133.896 186.313 134.086 186.313 134.284V135.894C186.313 136.092 186.233 136.281 186.092 136.421C185.95 136.561 185.757 136.639 185.557 136.639C185.356 136.639 185.164 136.561 185.022 136.421C184.881 136.281 184.801 136.092 184.801 135.894V134.284ZM185.298 135.937C185.298 136.162 185.397 136.243 185.557 136.243C185.717 136.243 185.816 136.162 185.816 135.937V134.233C185.816 134.007 185.717 133.922 185.557 133.922C185.397 133.922 185.298 134.007 185.298 134.233V135.937Z" fill="#263238"/>
<path id="Vector_41" d="M185.151 138.386C185.276 138.402 185.402 138.371 185.504 138.298C185.606 138.225 185.676 138.116 185.7 137.994H186.032V141.117H185.535V138.735H185.151V138.386Z" fill="#263238"/>
<path id="Vector_42" d="M185.151 147.311C185.276 147.326 185.402 147.294 185.503 147.221C185.605 147.149 185.675 147.041 185.7 146.919H186.032V150.041H185.535V147.66H185.151V147.311Z" fill="#263238"/>
<path id="Vector_43" d="M185.151 151.775C185.276 151.79 185.403 151.758 185.505 151.684C185.607 151.611 185.676 151.502 185.7 151.379H186.032V154.502H185.535V152.12H185.151V151.775Z" fill="#263238"/>
<path id="Vector_44" d="M185.151 156.235C185.276 156.251 185.402 156.219 185.503 156.146C185.605 156.073 185.675 155.965 185.7 155.844H186.032V158.962H185.535V156.585H185.151V156.235Z" fill="#263238"/>
<path id="Vector_45" d="M182.114 111.974C182.106 111.872 182.12 111.769 182.154 111.672C182.188 111.575 182.243 111.486 182.313 111.411C182.384 111.336 182.47 111.276 182.565 111.235C182.661 111.193 182.764 111.172 182.868 111.172C182.972 111.172 183.075 111.193 183.17 111.235C183.266 111.276 183.351 111.336 183.422 111.411C183.493 111.486 183.547 111.575 183.581 111.672C183.616 111.769 183.629 111.872 183.622 111.974V113.597C183.629 113.7 183.616 113.802 183.581 113.899C183.547 113.996 183.493 114.085 183.422 114.16C183.351 114.236 183.266 114.296 183.17 114.337C183.075 114.378 182.972 114.399 182.868 114.399C182.764 114.399 182.661 114.378 182.565 114.337C182.47 114.296 182.384 114.236 182.313 114.16C182.243 114.085 182.188 113.996 182.154 113.899C182.12 113.802 182.106 113.7 182.114 113.597V111.974ZM182.611 113.631C182.611 113.853 182.71 113.938 182.866 113.938C183.021 113.938 183.125 113.853 183.125 113.631V111.927C183.125 111.701 183.025 111.621 182.866 111.621C182.706 111.621 182.611 111.701 182.611 111.927V113.631Z" fill="#263238"/>
<path id="Vector_46" d="M182.114 120.899C182.106 120.796 182.12 120.694 182.154 120.597C182.188 120.5 182.243 120.411 182.313 120.336C182.384 120.26 182.47 120.2 182.565 120.159C182.661 120.118 182.764 120.097 182.868 120.097C182.972 120.097 183.075 120.118 183.17 120.159C183.266 120.2 183.351 120.26 183.422 120.336C183.493 120.411 183.547 120.5 183.581 120.597C183.616 120.694 183.629 120.796 183.622 120.899V122.522C183.629 122.624 183.616 122.727 183.581 122.824C183.547 122.921 183.493 123.01 183.422 123.085C183.351 123.16 183.266 123.22 183.17 123.261C183.075 123.302 182.972 123.324 182.868 123.324C182.764 123.324 182.661 123.302 182.565 123.261C182.47 123.22 182.384 123.16 182.313 123.085C182.243 123.01 182.188 122.921 182.154 122.824C182.12 122.727 182.106 122.624 182.114 122.522V120.899ZM182.611 122.552C182.611 122.777 182.71 122.858 182.866 122.858C183.021 122.858 183.125 122.777 183.125 122.552V120.848C183.125 120.626 183.025 120.541 182.866 120.541C182.706 120.541 182.611 120.626 182.611 120.848V122.552Z" fill="#263238"/>
<path id="Vector_47" d="M182.46 133.926C182.584 133.941 182.71 133.909 182.812 133.836C182.914 133.764 182.984 133.656 183.008 133.534H183.341V136.657H182.844V134.275H182.46V133.926Z" fill="#263238"/>
<path id="Vector_48" d="M182.46 138.386C182.584 138.402 182.711 138.371 182.813 138.298C182.915 138.225 182.985 138.116 183.008 137.994H183.341V141.117H182.844V138.735H182.46V138.386Z" fill="#263238"/>
<path id="Vector_49" d="M182.46 151.775C182.585 151.79 182.711 151.758 182.813 151.684C182.915 151.611 182.985 151.502 183.008 151.379H183.341V154.502H182.844V152.12H182.46V151.775Z" fill="#263238"/>
<path id="Vector_50" d="M182.114 156.593C182.106 156.491 182.12 156.388 182.154 156.291C182.188 156.194 182.243 156.105 182.313 156.03C182.384 155.955 182.47 155.895 182.565 155.854C182.661 155.813 182.764 155.792 182.868 155.792C182.972 155.792 183.075 155.813 183.17 155.854C183.266 155.895 183.351 155.955 183.422 156.03C183.493 156.105 183.547 156.194 183.581 156.291C183.616 156.388 183.629 156.491 183.622 156.593V158.216C183.629 158.319 183.616 158.422 183.581 158.519C183.547 158.615 183.493 158.704 183.422 158.78C183.351 158.855 183.266 158.915 183.17 158.956C183.075 158.997 182.972 159.018 182.868 159.018C182.764 159.018 182.661 158.997 182.565 158.956C182.47 158.915 182.384 158.855 182.313 158.78C182.243 158.704 182.188 158.615 182.154 158.519C182.12 158.422 182.106 158.319 182.114 158.216V156.593ZM182.611 158.246C182.611 158.468 182.71 158.553 182.866 158.553C183.021 158.553 183.125 158.468 183.125 158.246V156.542C183.125 156.321 183.025 156.235 182.866 156.235C182.706 156.235 182.611 156.321 182.611 156.542V158.246Z" fill="#263238"/>
<path id="Vector_51" d="M182.46 160.696C182.584 160.711 182.71 160.679 182.812 160.606C182.914 160.534 182.984 160.425 183.008 160.304H183.341V163.426H182.844V161.028H182.46V160.696Z" fill="#263238"/>
<path id="Vector_52" d="M70.7314 116.724C70.7314 116.526 70.811 116.337 70.9528 116.197C71.0946 116.057 71.2869 115.979 71.4874 115.979C71.6879 115.979 71.8802 116.057 72.0219 116.197C72.1637 116.337 72.2434 116.526 72.2434 116.724V118.347C72.2434 118.545 72.1637 118.734 72.0219 118.874C71.8802 119.014 71.6879 119.093 71.4874 119.093C71.2869 119.093 71.0946 119.014 70.9528 118.874C70.811 118.734 70.7314 118.545 70.7314 118.347V116.724ZM71.2282 118.377C71.2282 118.603 71.3275 118.688 71.4874 118.688C71.6472 118.688 71.7422 118.603 71.7422 118.377V116.673C71.7422 116.447 71.6429 116.362 71.4874 116.362C71.3318 116.362 71.2282 116.447 71.2282 116.673V118.377Z" fill="#263238"/>
<path id="Vector_53" d="M70.7314 121.197C70.7314 120.999 70.811 120.81 70.9528 120.67C71.0946 120.53 71.2869 120.451 71.4874 120.451C71.6879 120.451 71.8802 120.53 72.0219 120.67C72.1637 120.81 72.2434 120.999 72.2434 121.197V122.82C72.2434 123.018 72.1637 123.207 72.0219 123.347C71.8802 123.487 71.6879 123.566 71.4874 123.566C71.2869 123.566 71.0946 123.487 70.9528 123.347C70.811 123.207 70.7314 123.018 70.7314 122.82V121.197ZM71.2282 122.854C71.2282 123.076 71.3275 123.161 71.4874 123.161C71.6472 123.161 71.7422 123.076 71.7422 122.854V121.15C71.7422 120.929 71.6429 120.843 71.4874 120.843C71.3318 120.843 71.2282 120.929 71.2282 121.15V122.854Z" fill="#263238"/>
<path id="Vector_54" d="M71.0813 125.304C71.2055 125.319 71.331 125.287 71.4321 125.214C71.5332 125.141 71.6024 125.033 71.6256 124.912H71.9626V128.034H71.4657V125.67H71.0813V125.304Z" fill="#263238"/>
<path id="Vector_55" d="M70.7314 130.122C70.7314 129.924 70.811 129.734 70.9528 129.595C71.0946 129.455 71.2869 129.376 71.4874 129.376C71.6879 129.376 71.8802 129.455 72.0219 129.595C72.1637 129.734 72.2434 129.924 72.2434 130.122V131.745C72.2434 131.942 72.1637 132.132 72.0219 132.272C71.8802 132.412 71.6879 132.49 71.4874 132.49C71.2869 132.49 71.0946 132.412 70.9528 132.272C70.811 132.132 70.7314 131.942 70.7314 131.745V130.122ZM71.2282 131.775C71.2282 132 71.3275 132.086 71.4874 132.086C71.6472 132.086 71.7422 132 71.7422 131.775V130.092C71.7422 129.866 71.6429 129.781 71.4874 129.781C71.3318 129.781 71.2282 129.866 71.2282 130.092V131.775Z" fill="#263238"/>
<path id="Vector_56" d="M71.0813 134.228C71.2055 134.243 71.331 134.211 71.4321 134.139C71.5332 134.066 71.6024 133.958 71.6256 133.836H71.9626V136.955H71.4657V134.573H71.0813V134.228Z" fill="#263238"/>
<path id="Vector_57" d="M70.7314 139.046C70.7314 138.849 70.811 138.659 70.9528 138.519C71.0946 138.379 71.2869 138.301 71.4874 138.301C71.6879 138.301 71.8802 138.379 72.0219 138.519C72.1637 138.659 72.2434 138.849 72.2434 139.046V140.669C72.2434 140.867 72.1637 141.057 72.0219 141.197C71.8802 141.336 71.6879 141.415 71.4874 141.415C71.2869 141.415 71.0946 141.336 70.9528 141.197C70.811 141.057 70.7314 140.867 70.7314 140.669V139.046ZM71.2282 140.699C71.2282 140.921 71.3275 141.006 71.4874 141.006C71.6472 141.006 71.7422 140.921 71.7422 140.699V138.995C71.7422 138.774 71.6429 138.689 71.4874 138.689C71.3318 138.689 71.2282 138.774 71.2282 138.995V140.699Z" fill="#263238"/>
<path id="Vector_58" d="M71.0813 143.136C71.2055 143.151 71.331 143.119 71.4321 143.046C71.5332 142.973 71.6024 142.865 71.6256 142.744H71.9626V145.867H71.4657V143.485H71.0813V143.136Z" fill="#263238"/>
<path id="Vector_59" d="M70.7314 147.967C70.7314 147.769 70.811 147.579 70.9528 147.44C71.0946 147.3 71.2869 147.221 71.4874 147.221C71.6879 147.221 71.8802 147.3 72.0219 147.44C72.1637 147.579 72.2434 147.769 72.2434 147.967V149.59C72.2434 149.788 72.1637 149.977 72.0219 150.117C71.8802 150.257 71.6879 150.335 71.4874 150.335C71.2869 150.335 71.0946 150.257 70.9528 150.117C70.811 149.977 70.7314 149.788 70.7314 149.59V147.967ZM71.2282 149.624C71.2282 149.845 71.3275 149.931 71.4874 149.931C71.6472 149.931 71.7422 149.845 71.7422 149.624V147.92C71.7422 147.698 71.6429 147.613 71.4874 147.613C71.3318 147.613 71.2282 147.698 71.2282 147.92V149.624Z" fill="#263238"/>
<path id="Vector_60" d="M70.7314 152.431C70.7314 152.234 70.811 152.044 70.9528 151.904C71.0946 151.764 71.2869 151.686 71.4874 151.686C71.6879 151.686 71.8802 151.764 72.0219 151.904C72.1637 152.044 72.2434 152.234 72.2434 152.431V154.054C72.2434 154.252 72.1637 154.442 72.0219 154.582C71.8802 154.721 71.6879 154.8 71.4874 154.8C71.2869 154.8 71.0946 154.721 70.9528 154.582C70.811 154.442 70.7314 154.252 70.7314 154.054V152.431ZM71.2282 154.084C71.2282 154.306 71.3275 154.391 71.4874 154.391C71.6472 154.391 71.7422 154.306 71.7422 154.084V152.38C71.7422 152.159 71.6429 152.073 71.4874 152.073C71.3318 152.073 71.2282 152.159 71.2282 152.38V154.084Z" fill="#263238"/>
<path id="Vector_61" d="M70.7314 156.892C70.7314 156.694 70.811 156.504 70.9528 156.364C71.0946 156.225 71.2869 156.146 71.4874 156.146C71.6879 156.146 71.8802 156.225 72.0219 156.364C72.1637 156.504 72.2434 156.694 72.2434 156.892V158.515C72.2434 158.712 72.1637 158.902 72.0219 159.042C71.8802 159.182 71.6879 159.26 71.4874 159.26C71.2869 159.26 71.0946 159.182 70.9528 159.042C70.811 158.902 70.7314 158.712 70.7314 158.515V156.892ZM71.2282 158.544C71.2282 158.77 71.3275 158.855 71.4874 158.855C71.6472 158.855 71.7422 158.77 71.7422 158.544V156.862C71.7422 156.636 71.6429 156.555 71.4874 156.555C71.3318 156.555 71.2282 156.636 71.2282 156.862V158.544Z" fill="#263238"/>
<path id="Vector_62" d="M71.0813 160.998C71.2055 161.013 71.331 160.981 71.4321 160.908C71.5332 160.836 71.6024 160.728 71.6256 160.606H71.9626V163.725H71.4657V161.343H71.0813V160.998Z" fill="#263238"/>
<path id="Vector_63" d="M71.0813 165.458C71.2055 165.474 71.331 165.441 71.4321 165.369C71.5332 165.296 71.6024 165.188 71.6256 165.066H71.9626V168.189H71.4657V165.808H71.0813V165.458Z" fill="#263238"/>
<path id="Vector_64" d="M71.0813 169.919C71.2055 169.934 71.331 169.902 71.4321 169.829C71.5332 169.756 71.6024 169.648 71.6256 169.527H71.9626V172.649H71.4657V170.268H71.0813V169.919Z" fill="#263238"/>
<path id="Vector_65" d="M71.0813 174.383C71.2055 174.398 71.331 174.366 71.4321 174.293C71.5332 174.221 71.6024 174.112 71.6256 173.991H71.9626V177.11H71.4657V174.728H71.0813V174.383Z" fill="#263238"/>
<path id="Vector_66" d="M71.2281 180.854C71.2281 181.08 71.3275 181.161 71.4873 181.161C71.6472 181.161 71.7422 181.08 71.7422 180.854V179.15C71.7422 178.929 71.6429 178.843 71.4873 178.843C71.3318 178.843 71.2281 178.929 71.2281 179.15V180.854Z" fill="#263238"/>
<path id="Vector_67" d="M73.7683 134.228C73.8931 134.244 74.0191 134.212 74.1209 134.139C74.2227 134.066 74.2928 133.958 74.317 133.836H74.6496V136.955H74.1528V134.573H73.7683V134.228Z" fill="#263238"/>
<path id="Vector_68" d="M73.7683 138.689C73.8931 138.704 74.0191 138.672 74.1209 138.599C74.2227 138.526 74.2928 138.418 74.317 138.297H74.6496V141.432H74.1528V139.051H73.7683V138.689Z" fill="#263238"/>
<path id="Vector_69" d="M73.44 147.967C73.4321 147.864 73.4458 147.762 73.4801 147.665C73.5144 147.568 73.5687 147.479 73.6394 147.404C73.7102 147.328 73.796 147.268 73.8914 147.227C73.9868 147.186 74.0897 147.165 74.1938 147.165C74.2979 147.165 74.4009 147.186 74.4963 147.227C74.5917 147.268 74.6775 147.328 74.7482 147.404C74.819 147.479 74.8732 147.568 74.9076 147.665C74.9419 147.762 74.9555 147.864 74.9477 147.967V149.59C74.9555 149.692 74.9419 149.795 74.9076 149.892C74.8732 149.989 74.819 150.078 74.7482 150.153C74.6775 150.228 74.5917 150.288 74.4963 150.329C74.4009 150.371 74.2979 150.392 74.1938 150.392C74.0897 150.392 73.9868 150.371 73.8914 150.329C73.796 150.288 73.7102 150.228 73.6394 150.153C73.5687 150.078 73.5144 149.989 73.4801 149.892C73.4458 149.795 73.4321 149.692 73.44 149.59V147.967ZM73.9368 149.624C73.9368 149.845 74.0362 149.931 74.1917 149.931C74.3472 149.931 74.4509 149.845 74.4509 149.624V147.92C74.4509 147.698 74.3515 147.613 74.1917 147.613C74.0318 147.613 73.9368 147.698 73.9368 147.92V149.624Z" fill="#263238"/>
<path id="Vector_70" d="M73.7683 152.082C73.8931 152.097 74.0191 152.065 74.1209 151.993C74.2227 151.92 74.2928 151.812 74.317 151.69H74.6496V154.813H74.1528V152.423H73.7683V152.082Z" fill="#263238"/>
<path id="Vector_71" d="M73.44 156.892C73.4321 156.789 73.4458 156.686 73.4801 156.589C73.5144 156.493 73.5687 156.404 73.6394 156.328C73.7102 156.253 73.796 156.193 73.8914 156.152C73.9868 156.111 74.0897 156.09 74.1938 156.09C74.2979 156.09 74.4009 156.111 74.4963 156.152C74.5917 156.193 74.6775 156.253 74.7482 156.328C74.819 156.404 74.8732 156.493 74.9076 156.589C74.9419 156.686 74.9555 156.789 74.9477 156.892V158.515C74.9555 158.617 74.9419 158.72 74.9076 158.817C74.8732 158.914 74.819 159.002 74.7482 159.078C74.6775 159.153 74.5917 159.213 74.4963 159.254C74.4009 159.295 74.2979 159.316 74.1938 159.316C74.0897 159.316 73.9868 159.295 73.8914 159.254C73.796 159.213 73.7102 159.153 73.6394 159.078C73.5687 159.002 73.5144 158.914 73.4801 158.817C73.4458 158.72 73.4321 158.617 73.44 158.515V156.892ZM73.9368 158.544C73.9368 158.77 74.0362 158.855 74.1917 158.855C74.3472 158.855 74.4509 158.77 74.4509 158.544V156.862C74.4509 156.636 74.3515 156.555 74.1917 156.555C74.0318 156.555 73.9368 156.636 73.9368 156.862V158.544Z" fill="#263238"/>
<path id="Vector_72" d="M73.9195 167.469C73.9195 167.691 74.0189 167.776 74.1744 167.776C74.3299 167.776 74.4336 167.691 74.4336 167.469V165.765C74.4336 165.544 74.3342 165.458 74.1744 165.458C74.0145 165.458 73.9195 165.544 73.9195 165.765V167.469Z" fill="#263238"/>
<path id="Vector_73" d="M73.7683 169.919C73.888 169.931 74.0083 169.901 74.1068 169.833C74.2053 169.764 74.2754 169.663 74.304 169.548H74.6366V172.671H74.1398V170.289H73.7554L73.7683 169.919Z" fill="#263238"/>
<path id="Vector_74" d="M73.7683 174.383C73.8931 174.398 74.0191 174.366 74.1209 174.294C74.2227 174.221 74.2928 174.113 74.317 173.991H74.6496V177.11H74.1528V174.728H73.7683V174.383Z" fill="#263238"/>
<path id="Vector_75" d="M73.44 188.122C73.4321 188.019 73.4458 187.916 73.4801 187.819C73.5144 187.723 73.5687 187.634 73.6394 187.558C73.7102 187.483 73.796 187.423 73.8914 187.382C73.9868 187.341 74.0897 187.32 74.1938 187.32C74.2979 187.32 74.4009 187.341 74.4963 187.382C74.5917 187.423 74.6775 187.483 74.7482 187.558C74.819 187.634 74.8732 187.723 74.9076 187.819C74.9419 187.916 74.9555 188.019 74.9477 188.122V189.749C74.9555 189.851 74.9419 189.954 74.9076 190.051C74.8732 190.148 74.819 190.237 74.7482 190.312C74.6775 190.387 74.5917 190.447 74.4963 190.488C74.4009 190.53 74.2979 190.551 74.1938 190.551C74.0897 190.551 73.9868 190.53 73.8914 190.488C73.796 190.447 73.7102 190.387 73.6394 190.312C73.5687 190.237 73.5144 190.148 73.4801 190.051C73.4458 189.954 73.4321 189.851 73.44 189.749V188.122ZM73.9368 189.779C73.9368 190 74.0362 190.085 74.1917 190.085C74.3472 190.085 74.4509 190 74.4509 189.779V188.075C74.4509 187.853 74.3515 187.768 74.1917 187.768C74.0318 187.768 73.9368 187.853 73.9368 188.075V189.779Z" fill="#263238"/>
<path id="Vector_76" d="M68.04 130.122C68.04 129.924 68.1196 129.734 68.2614 129.595C68.4032 129.455 68.5955 129.376 68.796 129.376C68.9965 129.376 69.1888 129.455 69.3306 129.595C69.4723 129.734 69.552 129.924 69.552 130.122V131.745C69.552 131.942 69.4723 132.132 69.3306 132.272C69.1888 132.412 68.9965 132.49 68.796 132.49C68.5955 132.49 68.4032 132.412 68.2614 132.272C68.1196 132.132 68.04 131.942 68.04 131.745V130.122ZM68.5368 131.775C68.5368 132 68.6362 132.086 68.796 132.086C68.9558 132.086 69.0552 132 69.0552 131.775V130.092C69.0552 129.866 68.9558 129.781 68.796 129.781C68.6362 129.781 68.5368 129.866 68.5368 130.092V131.775Z" fill="#263238"/>
<path id="Vector_77" d="M68.3899 134.228C68.5147 134.244 68.6407 134.212 68.7425 134.139C68.8443 134.066 68.9144 133.958 68.9385 133.836H69.2712V136.955H68.7744V134.573H68.3899V134.228Z" fill="#263238"/>
<path id="Vector_78" d="M68.3899 138.689C68.5147 138.704 68.6407 138.672 68.7425 138.599C68.8443 138.526 68.9144 138.418 68.9385 138.297H69.2712V141.432H68.7744V139.051H68.3899V138.689Z" fill="#263238"/>
<path id="Vector_79" d="M68.04 143.507C68.04 143.309 68.1196 143.119 68.2614 142.979C68.4032 142.84 68.5955 142.761 68.796 142.761C68.9965 142.761 69.1888 142.84 69.3306 142.979C69.4723 143.119 69.552 143.309 69.552 143.507V145.13C69.552 145.327 69.4723 145.517 69.3306 145.657C69.1888 145.797 68.9965 145.875 68.796 145.875C68.5955 145.875 68.4032 145.797 68.2614 145.657C68.1196 145.517 68.04 145.327 68.04 145.13V143.507ZM68.5368 145.16C68.5368 145.385 68.6362 145.47 68.796 145.47C68.9558 145.47 69.0552 145.385 69.0552 145.16V143.477C69.0552 143.251 68.9558 143.166 68.796 143.166C68.6362 143.166 68.5368 143.251 68.5368 143.477V145.16Z" fill="#263238"/>
<path id="Vector_80" d="M68.04 152.431C68.04 152.234 68.1196 152.044 68.2614 151.904C68.4032 151.764 68.5955 151.686 68.796 151.686C68.9965 151.686 69.1888 151.764 69.3306 151.904C69.4723 152.044 69.552 152.234 69.552 152.431V154.054C69.552 154.252 69.4723 154.442 69.3306 154.582C69.1888 154.721 68.9965 154.8 68.796 154.8C68.5955 154.8 68.4032 154.721 68.2614 154.582C68.1196 154.442 68.04 154.252 68.04 154.054V152.431ZM68.5368 154.084C68.5368 154.306 68.6362 154.391 68.796 154.391C68.9558 154.391 69.0552 154.306 69.0552 154.084V152.38C69.0552 152.159 68.9558 152.073 68.796 152.073C68.6362 152.073 68.5368 152.159 68.5368 152.38V154.084Z" fill="#263238"/>
<path id="Vector_81" d="M68.04 156.892C68.04 156.694 68.1196 156.504 68.2614 156.364C68.4032 156.225 68.5955 156.146 68.796 156.146C68.9965 156.146 69.1888 156.225 69.3306 156.364C69.4723 156.504 69.552 156.694 69.552 156.892V158.515C69.552 158.712 69.4723 158.902 69.3306 159.042C69.1888 159.182 68.9965 159.26 68.796 159.26C68.5955 159.26 68.4032 159.182 68.2614 159.042C68.1196 158.902 68.04 158.712 68.04 158.515V156.892ZM68.5368 158.544C68.5368 158.77 68.6362 158.855 68.796 158.855C68.9558 158.855 69.0552 158.77 69.0552 158.544V156.862C69.0552 156.636 68.9558 156.555 68.796 156.555C68.6362 156.555 68.5368 156.636 68.5368 156.862V158.544Z" fill="#263238"/>
<path id="Vector_82" d="M68.3899 160.998C68.5147 161.013 68.6407 160.981 68.7425 160.909C68.8443 160.836 68.9144 160.728 68.9385 160.606H69.2712V163.725H68.7744V161.343H68.3899V160.998Z" fill="#263238"/>
<path id="Vector_83" d="M68.04 165.816C68.04 165.619 68.1196 165.429 68.2614 165.289C68.4032 165.149 68.5955 165.071 68.796 165.071C68.9965 165.071 69.1888 165.149 69.3306 165.289C69.4723 165.429 69.552 165.619 69.552 165.816V167.439C69.552 167.637 69.4723 167.827 69.3306 167.966C69.1888 168.106 68.9965 168.185 68.796 168.185C68.5955 168.185 68.4032 168.106 68.2614 167.966C68.1196 167.827 68.04 167.637 68.04 167.439V165.816ZM68.5368 167.469C68.5368 167.691 68.6362 167.776 68.796 167.776C68.9558 167.776 69.0552 167.691 69.0552 167.469V165.765C69.0552 165.544 68.9558 165.458 68.796 165.458C68.6362 165.458 68.5368 165.544 68.5368 165.765V167.469Z" fill="#263238"/>
<path id="Vector_84" d="M68.3899 169.919C68.5147 169.934 68.6407 169.902 68.7425 169.829C68.8443 169.756 68.9144 169.648 68.9385 169.527H69.2712V172.649H68.7744V170.268H68.3899V169.919Z" fill="#263238"/>
<path id="Vector_85" d="M65.353 121.197C65.3451 121.095 65.3588 120.992 65.3931 120.895C65.4274 120.798 65.4816 120.709 65.5524 120.634C65.6232 120.559 65.7089 120.499 65.8043 120.457C65.8997 120.416 66.0027 120.395 66.1068 120.395C66.2109 120.395 66.3139 120.416 66.4093 120.457C66.5047 120.499 66.5904 120.559 66.6612 120.634C66.732 120.709 66.7862 120.798 66.8205 120.895C66.8549 120.992 66.8685 121.095 66.8606 121.197V122.82C66.8685 122.922 66.8549 123.025 66.8205 123.122C66.7862 123.219 66.732 123.308 66.6612 123.383C66.5904 123.459 66.5047 123.519 66.4093 123.56C66.3139 123.601 66.2109 123.622 66.1068 123.622C66.0027 123.622 65.8997 123.601 65.8043 123.56C65.7089 123.519 65.6232 123.459 65.5524 123.383C65.4816 123.308 65.4274 123.219 65.3931 123.122C65.3588 123.025 65.3451 122.922 65.353 122.82V121.197ZM65.8498 122.854C65.8498 123.076 65.9491 123.161 66.1046 123.161C66.2602 123.161 66.3638 123.076 66.3638 122.854V121.15C66.3638 120.929 66.2645 120.843 66.1046 120.843C65.9448 120.843 65.8498 120.929 65.8498 121.15V122.854Z" fill="#263238"/>
<path id="Vector_86" d="M65.6985 129.764C65.8233 129.779 65.9493 129.747 66.0511 129.674C66.1529 129.602 66.223 129.494 66.2472 129.372H66.5798V132.486H66.096V130.105H65.7115L65.6985 129.764Z" fill="#263238"/>
<path id="Vector_87" d="M65.6985 138.689C65.8233 138.704 65.9493 138.672 66.0511 138.599C66.1529 138.526 66.223 138.418 66.2472 138.297H66.5798V141.432H66.096V139.051H65.7115L65.6985 138.689Z" fill="#263238"/>
<path id="Vector_88" d="M65.353 143.507C65.3451 143.404 65.3588 143.301 65.3931 143.205C65.4274 143.108 65.4816 143.019 65.5524 142.943C65.6232 142.868 65.7089 142.808 65.8043 142.767C65.8997 142.726 66.0027 142.705 66.1068 142.705C66.2109 142.705 66.3139 142.726 66.4093 142.767C66.5047 142.808 66.5904 142.868 66.6612 142.943C66.732 143.019 66.7862 143.108 66.8205 143.205C66.8549 143.301 66.8685 143.404 66.8606 143.507V145.13C66.8685 145.232 66.8549 145.335 66.8205 145.432C66.7862 145.529 66.732 145.618 66.6612 145.693C66.5904 145.768 66.5047 145.828 66.4093 145.869C66.3139 145.91 66.2109 145.931 66.1068 145.931C66.0027 145.931 65.8997 145.91 65.8043 145.869C65.7089 145.828 65.6232 145.768 65.5524 145.693C65.4816 145.618 65.4274 145.529 65.3931 145.432C65.3588 145.335 65.3451 145.232 65.353 145.13V143.507ZM65.8498 145.164C65.8498 145.385 65.9491 145.47 66.1046 145.47C66.2602 145.47 66.3638 145.385 66.3638 145.164V143.46C66.3638 143.234 66.2645 143.153 66.1046 143.153C65.9448 143.153 65.8498 143.234 65.8498 143.46V145.164Z" fill="#263238"/>
<path id="Vector_89" d="M65.6985 156.534C65.8233 156.549 65.9493 156.517 66.0511 156.444C66.1529 156.372 66.223 156.263 66.2472 156.142H66.5798V159.264H66.096V156.883H65.7115L65.6985 156.534Z" fill="#263238"/>
<path id="Vector_90" d="M65.6985 160.998C65.8233 161.013 65.9493 160.981 66.0511 160.909C66.1529 160.836 66.223 160.728 66.2472 160.606H66.5798V163.725H66.096V161.343H65.7115L65.6985 160.998Z" fill="#263238"/>
<path id="Vector_91" d="M65.6985 165.458C65.8233 165.474 65.9493 165.442 66.0511 165.369C66.1529 165.296 66.223 165.188 66.2472 165.066H66.5798V168.189H66.096V165.808H65.7115L65.6985 165.458Z" fill="#263238"/>
<path id="Vector_92" d="M149.952 13.8919C149.952 13.6941 150.031 13.5045 150.173 13.3647C150.315 13.2249 150.507 13.1464 150.708 13.1464C150.908 13.1464 151.1 13.2249 151.242 13.3647C151.384 13.5045 151.464 13.6941 151.464 13.8919V15.5149C151.464 15.7126 151.384 15.9023 151.242 16.0421C151.1 16.1819 150.908 16.2604 150.708 16.2604C150.507 16.2604 150.315 16.1819 150.173 16.0421C150.031 15.9023 149.952 15.7126 149.952 15.5149V13.8919ZM150.448 15.5447C150.448 15.7663 150.548 15.8515 150.708 15.8515C150.867 15.8515 150.962 15.7663 150.962 15.5447V13.8407C150.962 13.6192 150.863 13.534 150.708 13.534C150.552 13.534 150.448 13.6192 150.448 13.8407V15.5447Z" fill="#263238"/>
<path id="Vector_93" d="M149.952 18.3521C149.952 18.1544 150.031 17.9647 150.173 17.8249C150.315 17.6851 150.507 17.6066 150.708 17.6066C150.908 17.6066 151.1 17.6851 151.242 17.8249C151.384 17.9647 151.464 18.1544 151.464 18.3521V19.9751C151.464 20.1729 151.384 20.3625 151.242 20.5023C151.1 20.6421 150.908 20.7206 150.708 20.7206C150.507 20.7206 150.315 20.6421 150.173 20.5023C150.031 20.3625 149.952 20.1729 149.952 19.9751V18.3521ZM150.448 20.022C150.448 20.2478 150.548 20.333 150.708 20.333C150.867 20.333 150.962 20.2478 150.962 20.022V18.318C150.962 18.0922 150.863 18.007 150.708 18.007C150.552 18.007 150.448 18.0922 150.448 18.318V20.022Z" fill="#263238"/>
<path id="Vector_94" d="M150.301 31.3792C150.426 31.3943 150.551 31.3622 150.652 31.2894C150.753 31.2166 150.823 31.1086 150.846 30.9872H151.2V34.1098H150.703V31.7285H150.319L150.301 31.3792Z" fill="#263238"/>
<path id="Vector_95" d="M150.301 35.8436C150.426 35.8588 150.551 35.8267 150.652 35.7539C150.753 35.6811 150.823 35.573 150.846 35.4517H151.2V38.57H150.703V36.21H150.319L150.301 35.8436Z" fill="#263238"/>
<path id="Vector_96" d="M149.952 49.5821C149.952 49.3844 150.031 49.1948 150.173 49.055C150.315 48.9152 150.507 48.8366 150.708 48.8366C150.908 48.8366 151.1 48.9152 151.242 49.055C151.384 49.1948 151.464 49.3844 151.464 49.5821V51.2052C151.464 51.4029 151.384 51.5925 151.242 51.7323C151.1 51.8722 150.908 51.9507 150.708 51.9507C150.507 51.9507 150.315 51.8722 150.173 51.7323C150.031 51.5925 149.952 51.4029 149.952 51.2052V49.5821ZM150.448 51.2393C150.448 51.4608 150.548 51.546 150.708 51.546C150.867 51.546 150.962 51.4608 150.962 51.2393V49.5353C150.962 49.3138 150.863 49.2286 150.708 49.2286C150.552 49.2286 150.448 49.3138 150.448 49.5353V51.2393Z" fill="#263238"/>
<path id="Vector_97" d="M149.952 58.5068C149.952 58.3091 150.031 58.1195 150.173 57.9797C150.315 57.8399 150.507 57.7613 150.708 57.7613C150.908 57.7613 151.1 57.8399 151.242 57.9797C151.384 58.1195 151.464 58.3091 151.464 58.5068V60.1299C151.464 60.3276 151.384 60.5172 151.242 60.657C151.1 60.7969 150.908 60.8754 150.708 60.8754C150.507 60.8754 150.315 60.7969 150.173 60.657C150.031 60.5172 149.952 60.3276 149.952 60.1299V58.5068ZM150.448 60.1597C150.448 60.3855 150.548 60.4707 150.708 60.4707C150.867 60.4707 150.962 60.3855 150.962 60.1597V58.477C150.962 58.2512 150.863 58.1703 150.708 58.1703C150.552 58.1703 150.448 58.2512 150.448 58.477V60.1597Z" fill="#263238"/>
<path id="Vector_98" d="M141.882 22.8123C141.882 22.6146 141.961 22.425 142.103 22.2852C142.245 22.1453 142.437 22.0668 142.638 22.0668C142.838 22.0668 143.031 22.1453 143.172 22.2852C143.314 22.425 143.394 22.6146 143.394 22.8123V24.4354C143.394 24.6331 143.314 24.8227 143.172 24.9625C143.031 25.1023 142.838 25.1809 142.638 25.1809C142.437 25.1809 142.245 25.1023 142.103 24.9625C141.961 24.8227 141.882 24.6331 141.882 24.4354V22.8123ZM142.379 24.4694C142.379 24.691 142.478 24.7762 142.638 24.7762C142.798 24.7762 142.893 24.691 142.893 24.4694V22.7654C142.893 22.5439 142.793 22.4587 142.638 22.4587C142.482 22.4587 142.379 22.5439 142.379 22.7654V24.4694Z" fill="#263238"/>
<path id="Vector_99" d="M141.882 27.264C141.882 27.0663 141.961 26.8767 142.103 26.7369C142.245 26.5971 142.437 26.5185 142.638 26.5185C142.838 26.5185 143.031 26.5971 143.172 26.7369C143.314 26.8767 143.394 27.0663 143.394 27.264V28.8871C143.394 29.0848 143.314 29.2744 143.172 29.4142C143.031 29.554 142.838 29.6326 142.638 29.6326C142.437 29.6326 142.245 29.554 142.103 29.4142C141.961 29.2744 141.882 29.0848 141.882 28.8871V27.264ZM142.379 28.9169C142.379 29.1384 142.478 29.2236 142.638 29.2236C142.798 29.2236 142.893 29.1384 142.893 28.9169V27.264C142.893 27.0425 142.793 26.9573 142.638 26.9573C142.482 26.9573 142.379 27.0425 142.379 27.264V28.9169Z" fill="#263238"/>
<path id="Vector_100" d="M141.882 31.737C141.882 31.5393 141.961 31.3497 142.103 31.2099C142.245 31.07 142.437 30.9915 142.638 30.9915C142.838 30.9915 143.031 31.07 143.172 31.2099C143.314 31.3497 143.394 31.5393 143.394 31.737V33.3601C143.394 33.5578 143.314 33.7474 143.172 33.8872C143.031 34.027 142.838 34.1056 142.638 34.1056C142.437 34.1056 142.245 34.027 142.103 33.8872C141.961 33.7474 141.882 33.5578 141.882 33.3601V31.737ZM142.379 33.3899C142.379 33.6157 142.478 33.7009 142.638 33.7009C142.798 33.7009 142.893 33.6157 142.893 33.3899V31.7072C142.893 31.4814 142.793 31.3962 142.638 31.3962C142.482 31.3962 142.379 31.4814 142.379 31.7072V33.3899Z" fill="#263238"/>
<path id="Vector_101" d="M142.232 35.8436C142.356 35.8588 142.481 35.8267 142.582 35.7539C142.684 35.6811 142.753 35.573 142.776 35.4517H143.113V38.57H142.616V36.21H142.232V35.8436Z" fill="#263238"/>
<path id="Vector_102" d="M142.232 44.7641C142.356 44.7792 142.481 44.7471 142.582 44.6743C142.684 44.6015 142.753 44.4935 142.776 44.3722H143.113V47.4947H142.616V45.1134H142.232V44.7641Z" fill="#263238"/>
<path id="Vector_103" d="M142.232 49.2286C142.356 49.2437 142.481 49.2116 142.582 49.1388C142.684 49.066 142.753 48.958 142.776 48.8366H143.113V51.972H142.616V49.5907H142.232V49.2286Z" fill="#263238"/>
<path id="Vector_104" d="M141.882 58.5068C141.882 58.3091 141.961 58.1195 142.103 57.9797C142.245 57.8399 142.437 57.7613 142.638 57.7613C142.838 57.7613 143.031 57.8399 143.172 57.9797C143.314 58.1195 143.394 58.3091 143.394 58.5068V60.1299C143.394 60.3276 143.314 60.5172 143.172 60.657C143.031 60.7969 142.838 60.8754 142.638 60.8754C142.437 60.8754 142.245 60.7969 142.103 60.657C141.961 60.5172 141.882 60.3276 141.882 60.1299V58.5068ZM142.379 60.1597C142.379 60.3855 142.478 60.4707 142.638 60.4707C142.798 60.4707 142.893 60.3855 142.893 60.1597V58.477C142.893 58.2512 142.793 58.1703 142.638 58.1703C142.482 58.1703 142.379 58.2512 142.379 58.477V60.1597Z" fill="#263238"/>
<path id="Vector_105" d="M142.232 62.622C142.356 62.6371 142.481 62.605 142.582 62.5322C142.684 62.4594 142.753 62.3514 142.776 62.2301H143.113V65.3484H142.616V62.9671H142.232V62.622Z" fill="#263238"/>
<path id="Vector_106" d="M147.26 13.8919C147.26 13.6941 147.34 13.5045 147.482 13.3647C147.623 13.2249 147.816 13.1464 148.016 13.1464C148.217 13.1464 148.409 13.2249 148.551 13.3647C148.693 13.5045 148.772 13.6941 148.772 13.8919V15.5149C148.772 15.7126 148.693 15.9023 148.551 16.0421C148.409 16.1819 148.217 16.2604 148.016 16.2604C147.816 16.2604 147.623 16.1819 147.482 16.0421C147.34 15.9023 147.26 15.7126 147.26 15.5149V13.8919ZM147.744 15.5447C147.744 15.7663 147.843 15.8515 147.999 15.8515C148.154 15.8515 148.258 15.7663 148.258 15.5447V13.8407C148.258 13.6192 148.159 13.534 147.999 13.534C147.839 13.534 147.744 13.6192 147.744 13.8407V15.5447Z" fill="#263238"/>
<path id="Vector_107" d="M147.61 17.9942C147.735 18.0095 147.861 17.9775 147.963 17.9048C148.064 17.8321 148.135 17.724 148.159 17.6023H148.491V20.7249H147.995V18.3436H147.61V17.9942Z" fill="#263238"/>
<path id="Vector_108" d="M147.26 22.8123C147.26 22.6146 147.34 22.425 147.482 22.2852C147.623 22.1453 147.816 22.0668 148.016 22.0668C148.217 22.0668 148.409 22.1453 148.551 22.2852C148.693 22.425 148.772 22.6146 148.772 22.8123V24.4354C148.772 24.6331 148.693 24.8227 148.551 24.9625C148.409 25.1023 148.217 25.1809 148.016 25.1809C147.816 25.1809 147.623 25.1023 147.482 24.9625C147.34 24.8227 147.26 24.6331 147.26 24.4354V22.8123ZM147.744 24.4694C147.744 24.691 147.843 24.7762 147.999 24.7762C148.154 24.7762 148.258 24.691 148.258 24.4694V22.7654C148.258 22.5439 148.159 22.4587 147.999 22.4587C147.839 22.4587 147.744 22.5439 147.744 22.7654V24.4694Z" fill="#263238"/>
<path id="Vector_109" d="M147.61 26.9189C147.735 26.9342 147.861 26.9022 147.963 26.8295C148.064 26.7568 148.135 26.6487 148.159 26.527H148.491V29.6496H147.995V27.264H147.61V26.9189Z" fill="#263238"/>
<path id="Vector_110" d="M147.61 31.3792C147.735 31.3944 147.861 31.3625 147.963 31.2897C148.064 31.217 148.135 31.1089 148.159 30.9872H148.491V34.1098H147.995V31.7285H147.61V31.3792Z" fill="#263238"/>
<path id="Vector_111" d="M147.61 35.8436C147.735 35.8589 147.861 35.8269 147.963 35.7542C148.064 35.6815 148.135 35.5734 148.159 35.4517H148.491V38.57H147.995V36.21H147.61V35.8436Z" fill="#263238"/>
<path id="Vector_112" d="M147.26 40.6617C147.26 40.464 147.34 40.2744 147.482 40.1346C147.623 39.9947 147.816 39.9162 148.016 39.9162C148.217 39.9162 148.409 39.9947 148.551 40.1346C148.693 40.2744 148.772 40.464 148.772 40.6617V42.2848C148.772 42.4825 148.693 42.6721 148.551 42.8119C148.409 42.9517 148.217 43.0303 148.016 43.0303C147.816 43.0303 147.623 42.9517 147.482 42.8119C147.34 42.6721 147.26 42.4825 147.26 42.2848V40.6617ZM147.744 42.3146C147.744 42.5361 147.843 42.6213 147.999 42.6213C148.154 42.6213 148.258 42.5361 148.258 42.3146V40.6106C148.258 40.3891 148.159 40.3039 147.999 40.3039C147.839 40.3039 147.744 40.3891 147.744 40.6106V42.3146Z" fill="#263238"/>
<path id="Vector_113" d="M147.26 45.1219C147.26 44.9242 147.34 44.7346 147.482 44.5948C147.623 44.455 147.816 44.3764 148.016 44.3764C148.217 44.3764 148.409 44.455 148.551 44.5948C148.693 44.7346 148.772 44.9242 148.772 45.1219V46.745C148.772 46.9427 148.693 47.1323 148.551 47.2721C148.409 47.4119 148.217 47.4905 148.016 47.4905C147.816 47.4905 147.623 47.4119 147.482 47.2721C147.34 47.1323 147.26 46.9427 147.26 46.745V45.1219ZM147.744 46.7748C147.744 47.0006 147.843 47.0858 147.999 47.0858C148.154 47.0858 148.258 47.0006 148.258 46.7748V45.0708C148.258 44.845 148.159 44.7641 147.999 44.7641C147.839 44.7641 147.744 44.845 147.744 45.0708V46.7748Z" fill="#263238"/>
<path id="Vector_114" d="M144.919 17.9942C145.043 18.0095 145.169 17.9775 145.271 17.9048C145.373 17.8321 145.443 17.724 145.467 17.6023H145.8V20.7249H145.303V18.3436H144.919V17.9942Z" fill="#263238"/>
<path id="Vector_115" d="M144.573 22.8123C144.565 22.7099 144.579 22.6071 144.613 22.5102C144.648 22.4133 144.702 22.3244 144.773 22.2491C144.843 22.1739 144.929 22.1138 145.024 22.0727C145.12 22.0317 145.223 22.0105 145.327 22.0105C145.431 22.0105 145.534 22.0317 145.629 22.0727C145.725 22.1138 145.811 22.1739 145.881 22.2491C145.952 22.3244 146.006 22.4133 146.041 22.5102C146.075 22.6071 146.089 22.7099 146.081 22.8123V24.4354C146.089 24.5377 146.075 24.6406 146.041 24.7375C146.006 24.8344 145.952 24.9232 145.881 24.9985C145.811 25.0738 145.725 25.1338 145.629 25.1749C145.534 25.216 145.431 25.2372 145.327 25.2372C145.223 25.2372 145.12 25.216 145.024 25.1749C144.929 25.1338 144.843 25.0738 144.773 24.9985C144.702 24.9232 144.648 24.8344 144.613 24.7375C144.579 24.6406 144.565 24.5377 144.573 24.4354V22.8123ZM145.07 24.4694C145.07 24.691 145.169 24.7762 145.325 24.7762C145.48 24.7762 145.584 24.691 145.584 24.4694V22.7654C145.584 22.5439 145.485 22.4587 145.325 22.4587C145.165 22.4587 145.07 22.5439 145.07 22.7654V24.4694Z" fill="#263238"/>
<path id="Vector_116" d="M144.573 27.264C144.565 27.1617 144.579 27.0588 144.613 26.9619C144.648 26.865 144.702 26.7761 144.773 26.7008C144.843 26.6256 144.929 26.5655 145.024 26.5245C145.12 26.4834 145.223 26.4622 145.327 26.4622C145.431 26.4622 145.534 26.4834 145.629 26.5245C145.725 26.5655 145.811 26.6256 145.881 26.7008C145.952 26.7761 146.006 26.865 146.041 26.9619C146.075 27.0588 146.089 27.1617 146.081 27.264V28.8871C146.089 28.9894 146.075 29.0923 146.041 29.1892C146.006 29.2861 145.952 29.375 145.881 29.4502C145.811 29.5255 145.725 29.5855 145.629 29.6266C145.534 29.6677 145.431 29.6889 145.327 29.6889C145.223 29.6889 145.12 29.6677 145.024 29.6266C144.929 29.5855 144.843 29.5255 144.773 29.4502C144.702 29.375 144.648 29.2861 144.613 29.1892C144.579 29.0923 144.565 28.9894 144.573 28.8871V27.264ZM145.07 28.9169C145.07 29.1384 145.169 29.2236 145.325 29.2236C145.48 29.2236 145.584 29.1384 145.584 28.9169V27.264C145.584 27.0425 145.485 26.9573 145.325 26.9573C145.165 26.9573 145.07 27.0425 145.07 27.264V28.9169Z" fill="#263238"/>
<path id="Vector_117" d="M144.919 31.3792C145.043 31.3944 145.169 31.3625 145.271 31.2897C145.373 31.217 145.443 31.1089 145.467 30.9872H145.8V34.1098H145.303V31.7285H144.919V31.3792Z" fill="#263238"/>
<path id="Vector_118" d="M144.919 40.3039C145.043 40.3191 145.169 40.2872 145.271 40.2144C145.373 40.1417 145.443 40.0336 145.467 39.9119H145.8V43.026H145.303V40.6532H144.919V40.3039Z" fill="#263238"/>
<path id="Vector_119" d="M144.919 44.7641C145.043 44.7793 145.169 44.7474 145.271 44.6746C145.373 44.6019 145.443 44.4938 145.467 44.3722H145.8V47.4947H145.303V45.1134H144.919V44.7641Z" fill="#263238"/>
<path id="Vector_120" d="M144.919 49.2286C145.043 49.2438 145.169 49.2119 145.271 49.1391C145.373 49.0664 145.443 48.9583 145.467 48.8366H145.8V51.972H145.303V49.5907H144.919V49.2286Z" fill="#263238"/>
<path id="Vector_121" d="M23.328 63.2908C23.328 63.0931 23.4077 62.9035 23.5494 62.7637C23.6912 62.6239 23.8835 62.5453 24.084 62.5453C24.2845 62.5453 24.4768 62.6239 24.6186 62.7637C24.7604 62.9035 24.84 63.0931 24.84 63.2908V64.9181C24.84 65.1159 24.7604 65.3055 24.6186 65.4453C24.4768 65.5851 24.2845 65.6636 24.084 65.6636C23.8835 65.6636 23.6912 65.5851 23.5494 65.4453C23.4077 65.3055 23.328 65.1159 23.328 64.9181V63.2908ZM23.8248 64.948C23.8248 65.1695 23.9242 65.2547 24.084 65.2547C24.2438 65.2547 24.3389 65.1695 24.3389 64.948V63.244C24.3389 63.0224 24.2395 62.9372 24.084 62.9372C23.9285 62.9372 23.8248 63.0224 23.8248 63.244V64.948Z" fill="#263238"/>
<path id="Vector_122" d="M23.328 67.7553C23.328 67.5576 23.4077 67.368 23.5494 67.2282C23.6912 67.0883 23.8835 67.0098 24.084 67.0098C24.2845 67.0098 24.4768 67.0883 24.6186 67.2282C24.7604 67.368 24.84 67.5576 24.84 67.7553V69.3784C24.84 69.5761 24.7604 69.7657 24.6186 69.9055C24.4768 70.0453 24.2845 70.1239 24.084 70.1239C23.8835 70.1239 23.6912 70.0453 23.5494 69.9055C23.4077 69.7657 23.328 69.5761 23.328 69.3784V67.7553ZM23.8248 69.4082C23.8248 69.634 23.9242 69.7149 24.084 69.7149C24.2438 69.7149 24.3389 69.634 24.3389 69.4082V67.7042C24.3389 67.4827 24.2395 67.3975 24.084 67.3975C23.9285 67.3975 23.8248 67.4827 23.8248 67.7042V69.4082Z" fill="#263238"/>
<path id="Vector_123" d="M23.6736 71.8577C23.7979 71.8728 23.9233 71.8407 24.0244 71.7679C24.1255 71.6951 24.1947 71.5871 24.2179 71.4658H24.5549V74.5883H24.0581V72.207H23.6736V71.8577Z" fill="#263238"/>
<path id="Vector_124" d="M23.328 76.68C23.328 76.4823 23.4077 76.2927 23.5494 76.1529C23.6912 76.013 23.8835 75.9345 24.084 75.9345C24.2845 75.9345 24.4768 76.013 24.6186 76.1529C24.7604 76.2927 24.84 76.4823 24.84 76.68V78.3073C24.84 78.505 24.7604 78.6947 24.6186 78.8345C24.4768 78.9743 24.2845 79.0528 24.084 79.0528C23.8835 79.0528 23.6912 78.9743 23.5494 78.8345C23.4077 78.6947 23.328 78.505 23.328 78.3073V76.68ZM23.8248 78.3371C23.8248 78.5587 23.9242 78.6439 24.084 78.6439C24.2438 78.6439 24.3389 78.5587 24.3389 78.3371V76.6331C24.3389 76.4116 24.2395 76.3264 24.084 76.3264C23.9285 76.3264 23.8248 76.4116 23.8248 76.6331V78.3371Z" fill="#263238"/>
<path id="Vector_125" d="M23.6736 80.7824C23.7979 80.7975 23.9233 80.7654 24.0244 80.6926C24.1255 80.6198 24.1947 80.5118 24.2179 80.3905H24.5549V83.496H24.0581V81.1147H23.6736V80.7824Z" fill="#263238"/>
<path id="Vector_126" d="M23.328 85.6004C23.328 85.4027 23.4077 85.2131 23.5494 85.0733C23.6912 84.9335 23.8835 84.8549 24.084 84.8549C24.2845 84.8549 24.4768 84.9335 24.6186 85.0733C24.7604 85.2131 24.84 85.4027 24.84 85.6004V87.2235C24.84 87.4212 24.7604 87.6108 24.6186 87.7507C24.4768 87.8905 24.2845 87.969 24.084 87.969C23.8835 87.969 23.6912 87.8905 23.5494 87.7507C23.4077 87.6108 23.328 87.4212 23.328 87.2235V85.6004ZM23.8248 87.2576C23.8248 87.4791 23.9242 87.5643 24.084 87.5643C24.2438 87.5643 24.3389 87.4791 24.3389 87.2576V85.5536C24.3389 85.3278 24.2395 85.2469 24.084 85.2469C23.9285 85.2469 23.8248 85.3278 23.8248 85.5536V87.2576Z" fill="#263238"/>
<path id="Vector_127" d="M23.6736 89.7071C23.7979 89.7222 23.9233 89.6901 24.0244 89.6173C24.1255 89.5445 24.1947 89.4365 24.2179 89.3152H24.5549V92.442H24.0581V90.0607H23.6736V89.7071Z" fill="#263238"/>
<path id="Vector_128" d="M23.328 94.5251C23.328 94.3274 23.4077 94.1378 23.5494 93.998C23.6912 93.8582 23.8835 93.7796 24.084 93.7796C24.2845 93.7796 24.4768 93.8582 24.6186 93.998C24.7604 94.1378 24.84 94.3274 24.84 94.5251V96.1482C24.84 96.3459 24.7604 96.5355 24.6186 96.6753C24.4768 96.8152 24.2845 96.8937 24.084 96.8937C23.8835 96.8937 23.6912 96.8152 23.5494 96.6753C23.4077 96.5355 23.328 96.3459 23.328 96.1482V94.5251ZM23.8248 96.178C23.8248 96.4038 23.9242 96.4847 24.084 96.4847C24.2438 96.4847 24.3389 96.4038 24.3389 96.178V94.474C24.3389 94.2525 24.2395 94.1673 24.084 94.1673C23.9285 94.1673 23.8248 94.2525 23.8248 94.474V96.178Z" fill="#263238"/>
<path id="Vector_129" d="M23.328 98.9854C23.328 98.7876 23.4077 98.598 23.5494 98.4582C23.6912 98.3184 23.8835 98.2399 24.084 98.2399C24.2845 98.2399 24.4768 98.3184 24.6186 98.4582C24.7604 98.598 24.84 98.7876 24.84 98.9854V100.608C24.84 100.806 24.7604 100.996 24.6186 101.136C24.4768 101.275 24.2845 101.354 24.084 101.354C23.8835 101.354 23.6912 101.275 23.5494 101.136C23.4077 100.996 23.328 100.806 23.328 100.608V98.9854ZM23.8248 100.643C23.8248 100.864 23.9242 100.949 24.084 100.949C24.2438 100.949 24.3389 100.864 24.3389 100.643V98.9385C24.3389 98.717 24.2395 98.6318 24.084 98.6318C23.9285 98.6318 23.8248 98.717 23.8248 98.9385V100.643Z" fill="#263238"/>
<path id="Vector_130" d="M23.328 103.45C23.328 103.252 23.4077 103.063 23.5494 102.923C23.6912 102.783 23.8835 102.704 24.084 102.704C24.2845 102.704 24.4768 102.783 24.6186 102.923C24.7604 103.063 24.84 103.252 24.84 103.45V105.073C24.84 105.271 24.7604 105.46 24.6186 105.6C24.4768 105.74 24.2845 105.818 24.084 105.818C23.8835 105.818 23.6912 105.74 23.5494 105.6C23.4077 105.46 23.328 105.271 23.328 105.073V103.45ZM23.8248 105.103C23.8248 105.324 23.9242 105.409 24.084 105.409C24.2438 105.409 24.3389 105.324 24.3389 105.103V103.399C24.3389 103.177 24.2395 103.092 24.084 103.092C23.9285 103.092 23.8248 103.177 23.8248 103.399V105.103Z" fill="#263238"/>
<path id="Vector_131" d="M23.6736 112.012C23.798 112.029 23.924 111.997 24.0254 111.924C24.1267 111.851 24.1957 111.742 24.2179 111.621H24.5549V114.743H24.0581V112.362H23.6736V112.012Z" fill="#263238"/>
<path id="Vector_132" d="M26.352 80.7824C26.4768 80.7976 26.6027 80.7657 26.7046 80.6929C26.8064 80.6202 26.8764 80.5121 26.9006 80.3905H27.2333V83.496H26.7451V81.1147H26.352V80.7824Z" fill="#263238"/>
<path id="Vector_133" d="M26.352 85.2426C26.4768 85.2579 26.6027 85.2259 26.7046 85.1532C26.8064 85.0804 26.8764 84.9723 26.9006 84.8507H27.2333V87.9733H26.7451V85.5919H26.352V85.2426Z" fill="#263238"/>
<path id="Vector_134" d="M26.015 90.0607C26.0072 89.9583 26.0208 89.8555 26.0552 89.7585C26.0895 89.6616 26.1437 89.5728 26.2145 89.4975C26.2853 89.4222 26.371 89.3622 26.4664 89.3211C26.5618 89.28 26.6648 89.2588 26.7689 89.2588C26.873 89.2588 26.9759 89.28 27.0713 89.3211C27.1667 89.3622 27.2525 89.4222 27.3233 89.4975C27.394 89.5728 27.4483 89.6616 27.4826 89.7585C27.5169 89.8555 27.5306 89.9583 27.5227 90.0607V91.688C27.5306 91.7903 27.5169 91.8932 27.4826 91.9901C27.4483 92.087 27.394 92.1759 27.3233 92.2511C27.2525 92.3264 27.1667 92.3865 27.0713 92.4275C26.9759 92.4686 26.873 92.4898 26.7689 92.4898C26.6648 92.4898 26.5618 92.4686 26.4664 92.4275C26.371 92.3865 26.2853 92.3264 26.2145 92.2511C26.1437 92.1759 26.0895 92.087 26.0552 91.9901C26.0208 91.8932 26.0072 91.7903 26.015 91.688V90.0607ZM26.5118 91.7178C26.5118 91.9393 26.6112 92.0245 26.7667 92.0245C26.9222 92.0245 27.0259 91.9393 27.0259 91.7178V90.0138C27.0259 89.7923 26.9266 89.7071 26.7667 89.7071C26.6069 89.7071 26.5118 89.7923 26.5118 90.0138V91.7178Z" fill="#263238"/>
<path id="Vector_135" d="M26.015 94.5251C26.0072 94.4228 26.0208 94.3199 26.0552 94.223C26.0895 94.1261 26.1437 94.0373 26.2145 93.962C26.2853 93.8867 26.371 93.8267 26.4664 93.7856C26.5618 93.7445 26.6648 93.7233 26.7689 93.7233C26.873 93.7233 26.9759 93.7445 27.0713 93.7856C27.1667 93.8267 27.2525 93.8867 27.3233 93.962C27.394 94.0373 27.4483 94.1261 27.4826 94.223C27.5169 94.3199 27.5306 94.4228 27.5227 94.5251V96.1482C27.5306 96.2506 27.5169 96.3534 27.4826 96.4503C27.4483 96.5472 27.394 96.6361 27.3233 96.7114C27.2525 96.7866 27.1667 96.8467 27.0713 96.8878C26.9759 96.9288 26.873 96.95 26.7689 96.95C26.6648 96.95 26.5618 96.9288 26.4664 96.8878C26.371 96.8467 26.2853 96.7866 26.2145 96.7114C26.1437 96.6361 26.0895 96.5472 26.0552 96.4503C26.0208 96.3534 26.0072 96.2506 26.015 96.1482V94.5251ZM26.5118 96.178C26.5118 96.4038 26.6112 96.4847 26.7667 96.4847C26.9222 96.4847 27.0259 96.4038 27.0259 96.178V94.474C27.0259 94.2525 26.9266 94.1673 26.7667 94.1673C26.6069 94.1673 26.5118 94.2525 26.5118 94.474V96.178Z" fill="#263238"/>
<path id="Vector_136" d="M26.352 98.6275C26.4769 98.6438 26.6034 98.6123 26.7055 98.5394C26.8076 98.4665 26.8774 98.3577 26.9006 98.2356H27.2333V101.358H26.7451V98.9768H26.352V98.6275Z" fill="#263238"/>
<path id="Vector_137" d="M26.352 107.552C26.4768 107.567 26.6027 107.536 26.7046 107.463C26.8064 107.39 26.8764 107.282 26.9006 107.16H27.2333V110.283H26.7451V107.902H26.352V107.552Z" fill="#263238"/>
<path id="Vector_138" d="M20.6323 76.68C20.6323 76.4823 20.712 76.2927 20.8537 76.1529C20.9955 76.013 21.1878 75.9345 21.3883 75.9345C21.5888 75.9345 21.7811 76.013 21.9229 76.1529C22.0647 76.2927 22.1443 76.4823 22.1443 76.68V78.3073C22.1443 78.505 22.0647 78.6947 21.9229 78.8345C21.7811 78.9743 21.5888 79.0528 21.3883 79.0528C21.1878 79.0528 20.9955 78.9743 20.8537 78.8345C20.712 78.6947 20.6323 78.505 20.6323 78.3073V76.68ZM21.1334 78.3371C21.1334 78.5587 21.2328 78.6439 21.3883 78.6439C21.5438 78.6439 21.6475 78.5587 21.6475 78.3371V76.6331C21.6475 76.4116 21.5481 76.3264 21.3883 76.3264C21.2285 76.3264 21.1334 76.4116 21.1334 76.6331V78.3371Z" fill="#263238"/>
<path id="Vector_139" d="M20.9822 80.7824C21.107 80.7976 21.233 80.7657 21.3348 80.6929C21.4366 80.6202 21.5067 80.5121 21.5309 80.3905H21.8635V83.496H21.3667V81.1147H20.9822V80.7824Z" fill="#263238"/>
<path id="Vector_140" d="M20.9822 85.2426C21.107 85.2579 21.233 85.2259 21.3348 85.1532C21.4366 85.0804 21.5067 84.9723 21.5309 84.8507H21.8635V87.9733H21.3667V85.5919H20.9822V85.2426Z" fill="#263238"/>
<path id="Vector_141" d="M20.6323 90.0607C20.6323 89.8629 20.712 89.6733 20.8537 89.5335C20.9955 89.3937 21.1878 89.3152 21.3883 89.3152C21.5888 89.3152 21.7811 89.3937 21.9229 89.5335C22.0647 89.6733 22.1443 89.8629 22.1443 90.0607V91.688C22.1443 91.8857 22.0647 92.0753 21.9229 92.2151C21.7811 92.3549 21.5888 92.4335 21.3883 92.4335C21.1878 92.4335 20.9955 92.3549 20.8537 92.2151C20.712 92.0753 20.6323 91.8857 20.6323 91.688V90.0607ZM21.1334 91.7178C21.1334 91.9393 21.2328 92.0245 21.3883 92.0245C21.5438 92.0245 21.6475 91.9393 21.6475 91.7178V90.0138C21.6475 89.7923 21.5481 89.7071 21.3883 89.7071C21.2285 89.7071 21.1334 89.7923 21.1334 90.0138V91.7178Z" fill="#263238"/>
<path id="Vector_142" d="M20.9822 94.1673C21.107 94.1826 21.233 94.1506 21.3348 94.0779C21.4366 94.0051 21.5067 93.897 21.5309 93.7754H21.8635V96.898H21.3667V94.5166H20.9822V94.1673Z" fill="#263238"/>
<path id="Vector_143" d="M20.6323 98.9854C20.6323 98.7876 20.712 98.598 20.8537 98.4582C20.9955 98.3184 21.1878 98.2399 21.3883 98.2399C21.5888 98.2399 21.7811 98.3184 21.9229 98.4582C22.0647 98.598 22.1443 98.7876 22.1443 98.9854V100.608C22.1443 100.806 22.0647 100.996 21.9229 101.136C21.7811 101.275 21.5888 101.354 21.3883 101.354C21.1878 101.354 20.9955 101.275 20.8537 101.136C20.712 100.996 20.6323 100.806 20.6323 100.608V98.9854ZM21.1334 100.643C21.1334 100.864 21.2328 100.949 21.3883 100.949C21.5438 100.949 21.6475 100.864 21.6475 100.643V98.9385C21.6475 98.717 21.5481 98.6318 21.3883 98.6318C21.2285 98.6318 21.1334 98.717 21.1334 98.9385V100.643Z" fill="#263238"/>
<path id="Vector_144" d="M17.9453 67.7553C17.9374 67.6529 17.9511 67.5501 17.9854 67.4532C18.0197 67.3563 18.074 67.2674 18.1447 67.1921C18.2155 67.1169 18.3013 67.0568 18.3967 67.0157C18.4921 66.9747 18.595 66.9535 18.6991 66.9535C18.8032 66.9535 18.9062 66.9747 19.0016 67.0157C19.097 67.0568 19.1827 67.1169 19.2535 67.1921C19.3243 67.2674 19.3785 67.3563 19.4128 67.4532C19.4472 67.5501 19.4608 67.6529 19.453 67.7553V69.3784C19.4608 69.4807 19.4472 69.5836 19.4128 69.6805C19.3785 69.7774 19.3243 69.8662 19.2535 69.9415C19.1827 70.0168 19.097 70.0768 19.0016 70.1179C18.9062 70.159 18.8032 70.1802 18.6991 70.1802C18.595 70.1802 18.4921 70.159 18.3967 70.1179C18.3013 70.0768 18.2155 70.0168 18.1447 69.9415C18.074 69.8662 18.0197 69.7774 17.9854 69.6805C17.9511 69.5836 17.9374 69.4807 17.9453 69.3784V67.7553ZM18.4421 69.4082C18.4421 69.634 18.5414 69.7149 18.697 69.7149C18.8525 69.7149 18.9562 69.634 18.9562 69.4082V67.7042C18.9562 67.4784 18.8568 67.3932 18.697 67.3932C18.5371 67.3932 18.4421 67.4784 18.4421 67.7042V69.4082Z" fill="#263238"/>
<path id="Vector_145" d="M18.2909 76.3222C18.4156 76.3374 18.5416 76.3055 18.6435 76.2327C18.7453 76.16 18.8153 76.0519 18.8395 75.9302H19.1722V79.0486H18.6754V76.68H18.2909V76.3222Z" fill="#263238"/>
<path id="Vector_146" d="M17.9453 81.1402C17.9374 81.0379 17.9511 80.935 17.9854 80.8381C18.0197 80.7412 18.074 80.6523 18.1447 80.5771C18.2155 80.5018 18.3013 80.4417 18.3967 80.4007C18.4921 80.3596 18.595 80.3384 18.6991 80.3384C18.8032 80.3384 18.9062 80.3596 19.0016 80.4007C19.097 80.4417 19.1827 80.5018 19.2535 80.5771C19.3243 80.6523 19.3785 80.7412 19.4128 80.8381C19.4472 80.935 19.4608 81.0379 19.453 81.1402V82.7633C19.4608 82.8656 19.4472 82.9685 19.4128 83.0654C19.3785 83.1623 19.3243 83.2512 19.2535 83.3264C19.1827 83.4017 19.097 83.4618 19.0016 83.5028C18.9062 83.5439 18.8032 83.5651 18.6991 83.5651C18.595 83.5651 18.4921 83.5439 18.3967 83.5028C18.3013 83.4618 18.2155 83.4017 18.1447 83.3264C18.074 83.2512 18.0197 83.1623 17.9854 83.0654C17.9511 82.9685 17.9374 82.8656 17.9453 82.7633V81.1402ZM18.4421 82.7931C18.4421 83.0189 18.5414 83.0998 18.697 83.0998C18.8525 83.0998 18.9562 83.0189 18.9562 82.7931V81.1104C18.9562 80.8846 18.8568 80.7994 18.697 80.7994C18.5371 80.7994 18.4421 80.8846 18.4421 81.1104V82.7931Z" fill="#263238"/>
<path id="Vector_147" d="M17.9453 90.0649C17.9374 89.9626 17.9511 89.8597 17.9854 89.7628C18.0197 89.6659 18.074 89.577 18.1447 89.5018C18.2155 89.4265 18.3013 89.3664 18.3967 89.3254C18.4921 89.2843 18.595 89.2631 18.6991 89.2631C18.8032 89.2631 18.9062 89.2843 19.0016 89.3254C19.097 89.3664 19.1827 89.4265 19.2535 89.5018C19.3243 89.577 19.3785 89.6659 19.4128 89.7628C19.4472 89.8597 19.4608 89.9626 19.453 90.0649V91.688C19.4608 91.7903 19.4472 91.8932 19.4128 91.9901C19.3785 92.087 19.3243 92.1759 19.2535 92.2511C19.1827 92.3264 19.097 92.3865 19.0016 92.4275C18.9062 92.4686 18.8032 92.4898 18.6991 92.4898C18.595 92.4898 18.4921 92.4686 18.3967 92.4275C18.3013 92.3865 18.2155 92.3264 18.1447 92.2511C18.074 92.1759 18.0197 92.087 17.9854 91.9901C17.9511 91.8932 17.9374 91.7903 17.9453 91.688V90.0649ZM18.4421 91.7178C18.4421 91.9393 18.5414 92.0245 18.697 92.0245C18.8525 92.0245 18.9562 91.9393 18.9562 91.7178V90.0138C18.9562 89.7923 18.8568 89.7071 18.697 89.7071C18.5371 89.7071 18.4421 89.7923 18.4421 90.0138V91.7178Z" fill="#263238"/>
<path id="Vector_148" d="M17.9453 94.5251C17.9374 94.4228 17.9511 94.3199 17.9854 94.223C18.0197 94.1261 18.074 94.0373 18.1447 93.962C18.2155 93.8867 18.3013 93.8267 18.3967 93.7856C18.4921 93.7445 18.595 93.7233 18.6991 93.7233C18.8032 93.7233 18.9062 93.7445 19.0016 93.7856C19.097 93.8267 19.1827 93.8867 19.2535 93.962C19.3243 94.0373 19.3785 94.1261 19.4128 94.223C19.4472 94.3199 19.4608 94.4228 19.453 94.5251V96.1482C19.4608 96.2506 19.4472 96.3534 19.4128 96.4503C19.3785 96.5472 19.3243 96.6361 19.2535 96.7114C19.1827 96.7866 19.097 96.8467 19.0016 96.8878C18.9062 96.9288 18.8032 96.95 18.6991 96.95C18.595 96.95 18.4921 96.9288 18.3967 96.8878C18.3013 96.8467 18.2155 96.7866 18.1447 96.7114C18.074 96.6361 18.0197 96.5472 17.9854 96.4503C17.9511 96.3534 17.9374 96.2506 17.9453 96.1482V94.5251ZM18.4421 96.178C18.4421 96.4038 18.5414 96.489 18.697 96.489C18.8525 96.489 18.9562 96.4038 18.9562 96.178V94.474C18.9562 94.2482 18.8568 94.163 18.697 94.163C18.5371 94.163 18.4421 94.2482 18.4421 94.474V96.178Z" fill="#263238"/>
<path id="Vector_149" d="M17.9453 98.9854C17.9374 98.883 17.9511 98.7802 17.9854 98.6832C18.0197 98.5863 18.074 98.4975 18.1447 98.4222C18.2155 98.3469 18.3013 98.2869 18.3967 98.2458C18.4921 98.2047 18.595 98.1835 18.6991 98.1835C18.8032 98.1835 18.9062 98.2047 19.0016 98.2458C19.097 98.2869 19.1827 98.3469 19.2535 98.4222C19.3243 98.4975 19.3785 98.5863 19.4128 98.6832C19.4472 98.7802 19.4608 98.883 19.453 98.9854V100.608C19.4608 100.711 19.4472 100.814 19.4128 100.911C19.3785 101.007 19.3243 101.096 19.2535 101.172C19.1827 101.247 19.097 101.307 19.0016 101.348C18.9062 101.389 18.8032 101.41 18.6991 101.41C18.595 101.41 18.4921 101.389 18.3967 101.348C18.3013 101.307 18.2155 101.247 18.1447 101.172C18.074 101.096 18.0197 101.007 17.9854 100.911C17.9511 100.814 17.9374 100.711 17.9453 100.608V98.9854ZM18.4421 100.642C18.4421 100.864 18.5414 100.949 18.697 100.949C18.8525 100.949 18.9562 100.864 18.9562 100.642V98.9385C18.9562 98.717 18.8568 98.6318 18.697 98.6318C18.5371 98.6318 18.4421 98.717 18.4421 98.9385V100.642Z" fill="#263238"/>
<path id="Vector_150" d="M18.2909 112.038C18.4163 112.053 18.5428 112.021 18.6447 111.947C18.7466 111.873 18.8163 111.764 18.8395 111.642H19.1722V114.764H18.6754V112.383H18.2909V112.038Z" fill="#263238"/>
</g>
<g id="freepik--icon-3--inject-10">
<path id="Vector_151" d="M169.832 109.316C155.714 103.68 154.691 84.2969 154.691 84.2969H157.715V81.9794C164.881 81.9794 169.832 77.5959 169.832 77.5959C169.832 77.5959 174.783 81.9794 181.95 81.9794V84.2969H184.974C184.974 84.2969 183.946 103.68 169.832 109.316Z" stroke="#263238" stroke-width="1.10721" stroke-linecap="round" stroke-linejoin="round"/>
<path id="Vector_152" d="M169.832 106.756C160.583 102.496 157.905 91.181 157.166 86.3076H159.931V83.8709C163.485 83.4381 166.882 82.1668 169.832 80.1647C172.784 82.1667 176.182 83.438 179.738 83.8709V86.3076H182.494C181.747 91.164 179.051 102.496 169.832 106.756Z" stroke="#263238" stroke-width="1.10721" stroke-linecap="round" stroke-linejoin="round"/>
<path id="Vector_153" d="M174.817 90.7252H164.843C164.52 90.7252 164.259 90.9827 164.259 91.3003V97.2089C164.259 97.5266 164.52 97.784 164.843 97.784H174.817C175.14 97.784 175.401 97.5266 175.401 97.2089V91.3003C175.401 90.9827 175.14 90.7252 174.817 90.7252Z" fill="#263238"/>
<path id="Vector_154" d="M170.031 84.774C169.489 84.7481 168.947 84.8308 168.439 85.0173C167.931 85.2038 167.466 85.4901 167.073 85.8589C166.68 86.2277 166.367 86.6714 166.153 87.1629C165.939 87.6545 165.828 88.1838 165.828 88.7188V89.1448C165.828 89.1811 165.835 89.2171 165.849 89.2507C165.863 89.2843 165.884 89.3148 165.91 89.3406C165.936 89.3663 165.967 89.3867 166.001 89.4006C166.035 89.4145 166.071 89.4217 166.108 89.4217H167.119C167.156 89.4217 167.193 89.4145 167.227 89.4006C167.261 89.3867 167.292 89.3663 167.318 89.3406C167.344 89.3148 167.365 89.2843 167.379 89.2507C167.393 89.2171 167.4 89.1811 167.4 89.1448V88.8167C167.392 88.1994 167.621 87.6018 168.041 87.1437C168.46 86.6856 169.04 86.4007 169.664 86.3459C169.996 86.3244 170.328 86.3702 170.642 86.4805C170.955 86.5908 171.242 86.7633 171.485 86.9872C171.728 87.2112 171.921 87.482 172.054 87.7827C172.187 88.0835 172.255 88.4078 172.256 88.7358V89.1618C172.256 89.2352 172.285 89.3057 172.338 89.3576C172.391 89.4095 172.462 89.4387 172.536 89.4387H173.547C173.622 89.4387 173.693 89.4095 173.746 89.3576C173.799 89.3057 173.828 89.2352 173.828 89.1618V88.8636C173.847 87.8319 173.464 86.8324 172.757 86.0713C172.051 85.3103 171.075 84.8459 170.031 84.774Z" fill="#263238"/>
<path id="Vector_155" d="M170.878 93.4644C170.878 93.2803 170.828 93.0994 170.734 92.9405C170.64 92.7817 170.504 92.6507 170.34 92.5612C170.177 92.4717 169.993 92.4269 169.806 92.4315C169.619 92.436 169.437 92.4898 169.279 92.5873C169.121 92.6847 168.991 92.8222 168.905 92.9855C168.819 93.1488 168.778 93.3318 168.788 93.5157C168.798 93.6996 168.857 93.8776 168.96 94.0311C169.063 94.1847 169.206 94.3082 169.374 94.3888L168.994 96.046H170.666L170.286 94.3888C170.462 94.3046 170.611 94.1733 170.716 94.0099C170.82 93.8466 170.876 93.6576 170.878 93.4644Z" fill="white" stroke="#263238" stroke-width="1.10721" stroke-linecap="round" stroke-linejoin="round"/>
</g>
<g id="freepik--icon-2--inject-10">
<path id="Vector_156" d="M125.228 20.4991H91.1174C90.3253 20.4991 89.6832 21.1323 89.6832 21.9134V40.8534C89.6832 41.6345 90.3253 42.2677 91.1174 42.2677H125.228C126.02 42.2677 126.662 41.6345 126.662 40.8534V21.9134C126.662 21.1323 126.02 20.4991 125.228 20.4991Z" stroke="#263238" stroke-width="1.10721" stroke-linecap="round" stroke-linejoin="round"/>
<path id="Vector_157" d="M93.1262 39.2261H103.827C104.101 39.2261 104.324 39.0067 104.324 38.7362V24.0349C104.324 23.7643 104.101 23.545 103.827 23.545H93.1262C92.8519 23.545 92.6294 23.7643 92.6294 24.0349V38.7362C92.6294 39.0067 92.8519 39.2261 93.1262 39.2261Z" stroke="#263238" stroke-width="1.10721" stroke-linecap="round" stroke-linejoin="round"/>
<path id="Vector_158" d="M98.496 39.2218H93.1565C93.0167 39.2218 92.8826 39.1671 92.7838 39.0696C92.685 38.9721 92.6294 38.8399 92.6294 38.7021V35.0811C92.6294 35.0811 95.6145 34.9533 96.1157 34.3271C96.6168 33.7009 96.0638 32.7211 96.0638 32.7211C95.8824 32.4995 95.8392 30.9276 95.8392 30.9276L95.6577 30.8807C95.4806 30.8381 95.2257 29.5346 95.2257 29.0447C95.2253 28.9036 95.2657 28.7653 95.3423 28.646C95.4188 28.5268 95.5282 28.4316 95.6577 28.3716C95.6577 28.3716 95.2257 25.1936 98.4787 25.1936C101.732 25.1936 101.295 28.3716 101.295 28.3716C101.425 28.4316 101.534 28.5268 101.611 28.646C101.687 28.7653 101.728 28.9036 101.727 29.0447C101.727 29.5346 101.494 30.8381 101.295 30.8807L101.114 30.9276C101.114 30.9276 101.071 32.4995 100.889 32.7211C100.889 32.7211 100.332 33.7009 100.837 34.3271C101.343 34.9533 104.324 35.0811 104.324 35.0811V38.7021C104.324 38.7705 104.311 38.8383 104.285 38.9017C104.258 38.965 104.22 39.0225 104.171 39.0709C104.122 39.1192 104.063 39.1575 103.999 39.1834C103.935 39.2093 103.866 39.2224 103.797 39.2218H98.496Z" fill="#263238"/>
<path id="Vector_159" d="M122.956 39.2985H115.69C115.545 39.2985 115.406 39.2428 115.303 39.1433C115.2 39.0438 115.14 38.9084 115.137 38.766C115.137 38.6214 115.195 38.4827 115.299 38.3804C115.402 38.2782 115.543 38.2207 115.69 38.2207H122.956C123.102 38.2207 123.243 38.2782 123.347 38.3804C123.451 38.4827 123.509 38.6214 123.509 38.766C123.505 38.9084 123.446 39.0438 123.342 39.1433C123.239 39.2428 123.1 39.2985 122.956 39.2985Z" fill="#263238"/>
<path id="Vector_160" d="M122.956 24.5589H107.892C107.745 24.5589 107.605 24.5014 107.501 24.3992C107.397 24.2969 107.339 24.1582 107.339 24.0136C107.339 23.869 107.397 23.7303 107.501 23.628C107.605 23.5258 107.745 23.4683 107.892 23.4683H122.956C123.102 23.4683 123.243 23.5258 123.347 23.628C123.451 23.7303 123.509 23.869 123.509 24.0136C123.509 24.1582 123.451 24.2969 123.347 24.3992C123.243 24.5014 123.102 24.5589 122.956 24.5589Z" fill="#263238"/>
<path id="Vector_161" d="M116.532 28.2438H107.892C107.819 28.2438 107.746 28.2294 107.678 28.2015C107.611 28.1736 107.549 28.1326 107.498 28.0811C107.446 28.0295 107.406 27.9684 107.379 27.9013C107.351 27.8341 107.338 27.7623 107.339 27.69C107.339 27.5454 107.397 27.4067 107.501 27.3044C107.605 27.2022 107.745 27.1447 107.892 27.1447H116.532C116.676 27.1481 116.814 27.207 116.915 27.3089C117.016 27.4108 117.072 27.5476 117.072 27.69C117.074 27.8339 117.019 27.9729 116.918 28.0766C116.817 28.1803 116.678 28.2404 116.532 28.2438Z" fill="#263238"/>
<path id="Vector_162" d="M113.78 31.95H107.892C107.745 31.95 107.605 31.8925 107.501 31.7903C107.397 31.688 107.339 31.5493 107.339 31.4047C107.339 31.2601 107.397 31.1214 107.501 31.0191C107.605 30.9169 107.745 30.8594 107.892 30.8594H113.78C113.927 30.8594 114.067 30.9169 114.171 31.0191C114.275 31.1214 114.333 31.2601 114.333 31.4047C114.333 31.5493 114.275 31.688 114.171 31.7903C114.067 31.8925 113.927 31.95 113.78 31.95Z" fill="#263238"/>
<path id="Vector_163" d="M116.532 35.6136H107.892C107.745 35.6136 107.605 35.5561 107.501 35.4539C107.397 35.3516 107.339 35.2129 107.339 35.0683C107.337 34.9953 107.349 34.9225 107.376 34.8544C107.403 34.7863 107.443 34.7241 107.495 34.6717C107.546 34.6192 107.608 34.5775 107.676 34.5491C107.745 34.5206 107.818 34.506 107.892 34.506H116.532C116.605 34.5076 116.677 34.5235 116.744 34.5528C116.81 34.582 116.871 34.6239 116.921 34.6762C116.971 34.7285 117.01 34.7901 117.036 34.8574C117.062 34.9247 117.074 34.9964 117.072 35.0683C117.072 35.2107 117.016 35.3475 116.915 35.4494C116.814 35.5513 116.676 35.6103 116.532 35.6136Z" fill="#263238"/>
</g>
<g id="freepik--icon-1--inject-10">
<path id="Vector_164" d="M54.9331 78.4607V99.4199L49.2134 105.06H34.0243V78.4607H54.9331Z" stroke="#263238" stroke-width="1.10721" stroke-linecap="round" stroke-linejoin="round"/>
<path id="Vector_165" d="M54.9331 99.4199L49.2134 105.06V99.4199H54.9331Z" fill="#263238" stroke="#263238" stroke-width="1.10721" stroke-linecap="round" stroke-linejoin="round"/>
<path id="Vector_166" d="M39.1176 81.8516H51.7363" stroke="#263238" stroke-width="1.10721" stroke-linecap="round" stroke-linejoin="round"/>
<path id="Vector_167" d="M37.2168 84.1946H51.7363" stroke="#263238" stroke-width="1.10721" stroke-linecap="round" stroke-linejoin="round"/>
<path id="Vector_168" d="M37.2168 86.5376H51.7363" stroke="#263238" stroke-width="1.10721" stroke-linecap="round" stroke-linejoin="round"/>
<path id="Vector_169" d="M37.2168 88.8806H51.7363" stroke="#263238" stroke-width="1.10721" stroke-linecap="round" stroke-linejoin="round"/>
<path id="Vector_170" d="M37.2168 91.2236H51.7363" stroke="#263238" stroke-width="1.10721" stroke-linecap="round" stroke-linejoin="round"/>
<path id="Vector_171" d="M37.2168 93.5666H51.7363" stroke="#263238" stroke-width="1.10721" stroke-linecap="round" stroke-linejoin="round"/>
<path id="Vector_172" d="M37.2168 95.9054H51.7363" stroke="#263238" stroke-width="1.10721" stroke-linecap="round" stroke-linejoin="round"/>
<path id="Vector_173" d="M37.2168 98.2484H49.8398" stroke="#263238" stroke-width="1.10721" stroke-linecap="round" stroke-linejoin="round"/>
<path id="Vector_174" d="M55.9267 81.8516H58.3675V102.811L52.6522 108.451H37.463V105.972" stroke="#263238" stroke-width="1.10721" stroke-linecap="round" stroke-linejoin="round"/>
<path id="Vector_175" d="M58.3675 102.811L52.6522 108.451V102.811H58.3675Z" fill="#263238" stroke="#263238" stroke-width="1.10721" stroke-linecap="round" stroke-linejoin="round"/>
</g>
<g id="freepik--Fingerprint--inject-10">
<path id="Vector_176" d="M133.479 63.8872H82.8662C81.8546 63.8872 81.0346 64.6959 81.0346 65.6935V121.218C81.0346 122.216 81.8546 123.025 82.8662 123.025H133.479C134.491 123.025 135.311 122.216 135.311 121.218V65.6935C135.311 64.6959 134.491 63.8872 133.479 63.8872Z" fill="#1B24FF" stroke="#263238" stroke-width="1.10721" stroke-linecap="round" stroke-linejoin="round"/>
<g id="Group" opacity="0.5">
<path id="Vector_177" d="M134.218 83.6025H82.1275" stroke="white" stroke-width="1.10721" stroke-linecap="round" stroke-linejoin="round"/>
<path id="Vector_178" d="M134.218 90.1714H82.1275" stroke="white" stroke-width="1.10721" stroke-linecap="round" stroke-linejoin="round"/>
<path id="Vector_179" d="M134.218 96.7403H82.1275" stroke="white" stroke-width="1.10721" stroke-linecap="round" stroke-linejoin="round"/>
<path id="Vector_180" d="M134.218 103.309H82.1275" stroke="white" stroke-width="1.10721" stroke-linecap="round" stroke-linejoin="round"/>
<path id="Vector_181" d="M134.218 109.878H82.1275" stroke="white" stroke-width="1.10721" stroke-linecap="round" stroke-linejoin="round"/>
<path id="Vector_182" d="M134.218 116.451H82.1275" stroke="white" stroke-width="1.10721" stroke-linecap="round" stroke-linejoin="round"/>
<path id="Vector_183" d="M134.218 77.0293H82.1275" stroke="white" stroke-width="1.10721" stroke-linecap="round" stroke-linejoin="round"/>
<path id="Vector_184" d="M134.218 70.4604H82.1275" stroke="white" stroke-width="1.10721" stroke-linecap="round" stroke-linejoin="round"/>
<path id="Vector_185" d="M121.772 121.968V64.9394" stroke="white" stroke-width="1.10721" stroke-linecap="round" stroke-linejoin="round"/>
<path id="Vector_186" d="M114.972 121.968V64.9394" stroke="white" stroke-width="1.10721" stroke-linecap="round" stroke-linejoin="round"/>
<path id="Vector_187" d="M108.173 121.968V64.9394" stroke="white" stroke-width="1.10721" stroke-linecap="round" stroke-linejoin="round"/>
<path id="Vector_188" d="M101.373 121.968V64.9394" stroke="white" stroke-width="1.10721" stroke-linecap="round" stroke-linejoin="round"/>
<path id="Vector_189" d="M94.5734 121.968V64.9394" stroke="white" stroke-width="1.10721" stroke-linecap="round" stroke-linejoin="round"/>
<path id="Vector_190" d="M87.7781 121.968V64.9394" stroke="white" stroke-width="1.10721" stroke-linecap="round" stroke-linejoin="round"/>
<path id="Vector_191" d="M128.572 121.968V64.9394" stroke="white" stroke-width="1.10721" stroke-linecap="round" stroke-linejoin="round"/>
</g>
<path id="Vector_192" d="M106.272 111.471C106.853 108.507 107.649 105.587 108.652 102.734C108.855 102.159 109.084 101.58 109.335 100.962C109.927 99.471 111.141 96.4251 110.683 95.5177C110.637 95.4212 110.566 95.3383 110.477 95.2777C110.389 95.2171 110.285 95.1808 110.177 95.1727C110.154 95.1716 110.131 95.1752 110.11 95.1833C110.088 95.1913 110.069 95.2037 110.052 95.2195C108.704 96.3058 107.836 99.3176 107.205 101.516L106.993 102.257C106.157 105.212 105.564 108.23 105.222 111.28" stroke="#263238" stroke-width="1.10721" stroke-linecap="round" stroke-linejoin="round"/>
<path id="Vector_193" d="M108.272 111.612C108.831 108.822 109.586 106.073 110.532 103.386C110.722 102.836 110.964 102.261 111.192 101.656C112.139 99.2836 113.314 96.3442 112.467 94.6615C112.257 94.2419 111.933 93.8873 111.533 93.6364C111.132 93.3855 110.669 93.2479 110.195 93.2386C109.693 93.234 109.207 93.4045 108.821 93.72C106.993 95.1897 106.069 98.406 105.326 100.988L105.114 101.725C104.278 104.655 103.681 107.646 103.33 110.671" stroke="#263238" stroke-width="1.10721" stroke-linecap="round" stroke-linejoin="round"/>
<path id="Vector_194" d="M110.32 111.42C110.847 108.911 111.538 106.438 112.389 104.016C113.417 101.124 115.733 96.7744 114.229 93.7924C112.998 91.3514 109.776 90.4441 107.577 92.2162C105.062 94.2355 104.064 98.2867 103.218 101.188C102.419 103.981 101.831 106.829 101.46 109.708" stroke="#263238" stroke-width="1.10721" stroke-linecap="round" stroke-linejoin="round"/>
<path id="Vector_195" d="M112.471 110.832C112.941 108.742 113.535 106.681 114.251 104.66C114.42 104.178 114.636 103.642 114.864 103.066C116.091 99.9865 117.621 96.1482 115.992 92.9191C115.454 91.8535 114.628 90.9553 113.605 90.3237C112.582 89.6922 111.402 89.352 110.195 89.3407C108.786 89.3364 107.42 89.817 106.332 90.6997C103.542 92.9447 102.444 96.817 101.533 99.9226L101.326 100.643C100.598 103.171 100.045 105.746 99.671 108.349" stroke="#263238" stroke-width="1.10721" stroke-linecap="round" stroke-linejoin="round"/>
<path id="Vector_196" d="M114.769 109.712C115.171 108.153 115.612 106.709 116.109 105.303C116.273 104.847 116.476 104.332 116.692 103.791C117.988 100.519 119.772 96.0545 117.755 92.0586C117.054 90.6687 115.977 89.4973 114.643 88.6746C113.308 87.852 111.768 87.4101 110.195 87.3982C108.332 87.3916 106.526 88.0276 105.088 89.1959C101.814 91.8286 100.608 96.0119 99.6365 99.3943L99.4291 100.11C98.8197 102.221 98.3308 104.365 97.9646 106.53" stroke="#263238" stroke-width="1.10721" stroke-linecap="round" stroke-linejoin="round"/>
<path id="Vector_197" d="M117.141 107.816C117.573 104.698 120.122 101 120.372 96.6764C120.601 92.7146 119.28 90.1757 118.342 88.9019C118.119 88.5881 117.978 88.2253 117.929 87.8452C117.881 87.4651 117.928 87.0791 118.066 86.7208C118.692 84.9055 118.671 82.9334 118.005 81.1317" stroke="#263238" stroke-width="1.10721" stroke-linecap="round" stroke-linejoin="round"/>
<path id="Vector_198" d="M111.154 75.3083C114.48 77.3616 116.64 80.5949 116.808 84.774C116.865 86.2735 115.629 86.789 114.083 86.3246C110.847 85.3534 103.136 82.8655 98.4355 95.8969C97.535 98.6008 96.8702 101.376 96.4483 104.191" stroke="#263238" stroke-width="1.10721" stroke-linecap="round" stroke-linejoin="round"/>
<path id="Vector_199" d="M104.544 75.5213C106.62 75.4936 108.671 75.9675 110.519 76.9015C113.676 78.5757 115.664 82.5119 114.648 83.513C113.521 84.6249 111.426 81.9411 105.019 84.5312C101.939 85.7751 99.7531 88.3098 98.267 91.1896C97.5968 92.5049 97.0307 93.8693 96.5736 95.2706C95.9779 97.0732 95.4875 98.9081 95.1048 100.766" stroke="#263238" stroke-width="1.10721" stroke-linecap="round" stroke-linejoin="round"/>
<path id="Vector_200" d="M100.902 77.9239C102.03 77.6307 103.191 77.4775 104.358 77.4681C110.013 77.3403 112.134 80.3138 111.512 81.0678C110.989 81.7025 109.827 81.3447 108.233 81.5364C103.632 82.0945 99.995 84.676 97.5456 88.493C96.3374 90.4258 95.3741 92.4974 94.6771 94.6615C94.5475 95.0491 94.4222 95.441 94.3013 95.833" stroke="#263238" stroke-width="1.10721" stroke-linecap="round" stroke-linejoin="round"/>
<path id="Vector_201" d="M98.2368 81.1317C100.121 79.6306 102.495 78.8556 104.916 78.9506C105.633 78.9506 107.404 79.1806 107.641 79.8494C107.957 80.727 105.08 79.5342 100.911 82.2734C95.567 85.7879 94.919 89.1192 94.919 89.1192" stroke="#263238" stroke-width="1.10721" stroke-linecap="round" stroke-linejoin="round"/>
<path id="Vector_202" d="M119.409 105.456C119.409 105.456 122.308 99.2836 122.001 94.5124C121.811 91.4409 120.273 89.5154 120.031 88.1479C119.789 86.7805 120.463 86.4439 120.282 85.1915" stroke="#263238" stroke-width="1.10721" stroke-linecap="round" stroke-linejoin="round"/>
<path id="Vector_203" d="M84.6893 76.3988V67.6829H93.528" stroke="#263238" stroke-width="1.10721" stroke-linecap="round" stroke-linejoin="round"/>
<path id="Vector_204" d="M93.528 119.229H84.6893V110.513" stroke="#263238" stroke-width="1.10721" stroke-linecap="round" stroke-linejoin="round"/>
<path id="Vector_205" d="M131.661 76.3988V67.6829H122.822" stroke="#263238" stroke-width="1.10721" stroke-linecap="round" stroke-linejoin="round"/>
<path id="Vector_206" d="M122.822 119.229H131.661V110.513" stroke="#263238" stroke-width="1.10721" stroke-linecap="round" stroke-linejoin="round"/>
</g>
<g id="freepik--Hand--inject-10">
<path id="Vector_207" d="M169.206 199.368C166.899 195.96 164.48 192.365 162.492 189.387C159.952 185.591 158.121 182.818 158.121 182.818C157.149 178.332 155.771 176.573 154.384 172.888C152.997 169.203 154.142 165.918 154.716 161.356C155.291 156.794 154.384 152.542 153.9 149.658C153.416 146.774 153.982 144.052 153.9 143.413C153.818 142.774 151.057 139.409 150.012 136.925C149.538 135.817 148.877 134.797 148.055 133.909C147.147 132.885 146.012 132.081 144.737 131.562C144.206 131.356 143.652 131.213 143.087 131.136C141.791 130.952 140.746 131.157 139.7 131.157C138.236 131.157 135.151 128.678 133.121 128.281C132.744 128.208 132.363 128.155 131.98 128.124C130.3 127.966 128.524 128.124 126.559 128.277C124.593 128.43 122.308 126.594 120.468 126.019H120.437C120.03 125.879 119.596 125.833 119.167 125.883C117.219 126.202 113.551 126.522 113.551 126.522C113.551 126.522 113.227 124.043 113.063 120.677C113.033 120.094 112.99 119.531 112.938 118.973C112.748 116.894 112.445 115.037 112.398 113.337C112.398 112.911 112.398 112.455 112.398 112.029C112.558 109.635 112.484 107.769 112.398 104.089C112.398 103.965 112.398 103.833 112.398 103.701C112.398 102.555 112.398 101.46 112.329 100.472C112.195 98.0737 111.655 96.3016 109.236 95.9352C107.123 95.6157 105.663 96.6551 104.769 100.101C103.874 103.548 103.226 103.305 102.984 108.349C102.743 113.393 101.598 116.605 101.762 119.165C101.926 121.725 101.356 126.692 101.356 126.692C100.384 126.211 99.4896 126.611 99.3211 127.012C99.1526 127.412 98.4355 131.34 97.861 134.143C97.3598 136.635 95.0573 138.94 94.2106 140.657V140.695C94.1199 140.88 94.0447 141.073 93.9859 141.27C93.4978 143.034 93.744 146.808 93.744 151.605C93.744 156.402 92.5258 161.377 93.744 164.577C94.0034 165.228 94.3666 165.835 94.8197 166.374C96.6902 168.653 100.125 170.634 103.248 174.268C107.136 178.835 109.909 182.2 112.506 183.725C114.368 184.807 115.184 185.693 115.53 186.861C115.665 187.367 115.737 187.888 115.741 188.411C115.776 189.434 116.338 190.213 117.288 191.508C118.771 193.489 120.072 195.596 121.176 197.805C122.217 199.862 123.811 203.769 125.496 208.097L169.206 199.368Z" fill="white"/>
<path id="Vector_208" opacity="0.4" d="M112.385 112.008C112.359 112.434 112.355 112.86 112.385 113.316C109.279 112.737 103.283 114.249 103.192 116.055C103.088 118.258 102.816 123.463 103.952 124.677C105.088 125.892 107.525 126.667 107.525 126.667C107.345 126.68 107.166 126.703 106.989 126.735H106.929C106.151 126.897 105.443 127.289 104.898 127.86C102.522 130.262 102.423 135.587 103.2 138.152C106.453 148.802 101.187 157.228 99.3125 156.206C97.4376 155.183 97.2864 146.029 97.8523 143.886C98.1942 142.636 98.3613 141.346 98.3491 140.052C97.5197 139.779 95.7787 140.175 94.1803 140.665V140.627C95.0443 138.923 97.3296 136.605 97.8307 134.113C98.4053 131.31 99.1267 127.383 99.2909 126.982C99.455 126.582 100.354 126.181 101.326 126.663C101.326 126.663 101.896 121.7 101.732 119.135C101.568 116.571 102.708 113.367 102.954 108.319C103.2 103.271 103.844 103.518 104.738 100.072C105.633 96.6253 107.093 95.5859 109.205 95.9054C111.624 96.2717 112.164 98.0354 112.298 100.442C112.027 100.188 111.738 99.9518 111.434 99.7351C110.669 99.1492 109.708 98.8693 108.743 98.9513C107.624 99.1046 106.644 100.229 106.021 101.388C105.127 103.092 104.98 104.92 106.237 104.293C107.663 103.59 110.605 103.825 112.398 104.059C112.471 107.735 112.545 109.614 112.385 112.008Z" fill="#1B24FF"/>
<path id="Vector_209" opacity="0.4" d="M115.703 188.399C115.698 187.875 115.627 187.354 115.491 186.848C115.15 185.681 114.333 184.795 112.467 183.713C109.875 182.187 107.106 178.822 103.209 174.255C100.086 170.604 96.6514 168.641 94.7808 166.362C97.1352 167.618 100.332 166.971 101.339 168.96C102.803 171.831 109.68 176.202 109.68 176.202C116.394 182.754 115.703 188.399 115.703 188.399Z" fill="#1B24FF"/>
<path id="Vector_210" opacity="0.4" d="M120.398 126.002C119.608 125.845 117.465 131.055 117.262 132.903C116.722 137.696 119.215 152.47 116.009 152.137C114.683 152.001 113.128 145.1 113.037 141.884C112.748 132.115 113.145 128.056 113.145 128.056C113.145 128.056 112.437 122.645 112.912 118.961C112.964 119.514 113.007 120.077 113.037 120.665C113.201 124.03 113.525 126.509 113.525 126.509C113.525 126.509 117.18 126.19 119.141 125.87C119.565 125.82 119.995 125.865 120.398 126.002Z" fill="#1B24FF"/>
<path id="Vector_211" opacity="0.4" d="M131.941 128.12C130.213 128.273 128.485 129.939 127.064 130.25C125.336 130.612 122.161 126.773 120.429 126.024C122.269 126.599 124.576 128.405 126.52 128.281C128.464 128.158 130.261 127.962 131.941 128.12Z" fill="#1B24FF"/>
<path id="Vector_212" opacity="0.4" d="M143.065 131.131C142.209 132.189 141.52 133.368 141.022 134.629C139.631 139.063 140.944 155.844 138.702 153.096C135.782 149.526 138.832 137.142 136.702 132.414C136.028 130.901 133.622 128.482 133.099 128.277C135.13 128.673 138.214 131.153 139.679 131.153C140.724 131.153 141.774 130.948 143.065 131.131Z" fill="#1B24FF"/>
<path id="Vector_213" opacity="0.4" d="M162.484 189.383C160.207 186.852 157.823 184.441 156.263 183.538C152.466 181.331 151.377 179.048 151.049 175.244C150.72 171.439 151.701 171.52 152.837 167.759C153.973 163.997 151.861 159.345 152.025 160.351C152.189 161.356 150.396 168.317 149.079 168.662C147.761 169.007 147.316 164.312 147.152 160.487C146.988 156.662 149.1 138.846 148.509 135.353C148.428 134.846 148.268 134.354 148.033 133.896C148.855 134.784 149.517 135.804 149.99 136.912C151.049 139.396 153.809 142.761 153.878 143.4C153.948 144.039 153.39 146.766 153.878 149.645C154.367 152.525 155.261 156.772 154.695 161.343C154.129 165.914 152.967 169.19 154.362 172.875C155.758 176.56 157.127 178.319 158.099 182.805C158.112 182.814 159.944 185.587 162.484 189.383Z" fill="#1B24FF"/>
<path id="Vector_214" opacity="0.4" d="M128.196 137.598C129.06 138.493 129.604 150.216 130.092 153.1C130.581 155.984 129.064 162.898 128.196 160.794C127.328 158.689 124.68 133.951 128.196 137.598Z" fill="#1B24FF"/>
<path id="Vector_215" d="M124.848 206.439C123.414 202.784 122.087 199.585 121.18 197.792C120.076 195.583 118.775 193.476 117.292 191.495C116.342 190.217 115.78 189.421 115.746 188.398C115.741 187.875 115.67 187.354 115.534 186.848C115.193 185.68 114.376 184.794 112.51 183.712C109.918 182.187 107.149 178.822 103.252 174.255C100.129 170.604 96.6944 168.64 94.8238 166.361C94.3707 165.822 94.0076 165.215 93.7481 164.564C92.5299 161.364 93.7481 156.393 93.7481 151.592C93.7481 146.791 93.5019 143.021 93.99 141.257C94.0489 141.06 94.124 140.867 94.2147 140.682V140.644C95.0787 138.94 97.364 136.622 97.8651 134.13C98.4396 131.327 99.1611 127.399 99.3252 126.999C99.4894 126.599 100.388 126.198 101.36 126.679C101.36 126.679 101.93 121.717 101.766 119.152C101.602 116.588 102.742 113.384 102.989 108.336C103.235 103.288 103.879 103.535 104.773 100.089C105.667 96.6422 107.127 95.6028 109.24 95.9223C111.659 96.2886 112.199 98.0523 112.333 100.459C112.389 101.447 112.38 102.542 112.402 103.688C112.402 103.82 112.402 103.952 112.402 104.076C112.48 107.744 112.553 109.614 112.402 112.017C112.376 112.443 112.372 112.869 112.402 113.324C112.449 115.028 112.752 116.881 112.942 118.96C112.994 119.514 113.037 120.076 113.067 120.664C113.231 124.03 113.555 126.509 113.555 126.509C113.555 126.509 117.21 126.19 119.171 125.87C119.6 125.82 120.034 125.866 120.441 126.006H120.472C122.312 126.581 124.619 128.388 126.563 128.264C128.507 128.141 130.304 127.953 131.984 128.111C132.367 128.142 132.748 128.195 133.125 128.268C135.155 128.665 138.24 131.144 139.704 131.144C140.75 131.144 141.799 130.939 143.091 131.123C143.656 131.2 144.21 131.343 144.741 131.549C146.016 132.068 147.152 132.872 148.059 133.896C148.881 134.784 149.542 135.804 150.016 136.912C151.075 139.396 153.835 142.761 153.904 143.4C153.973 144.039 153.416 146.765 153.904 149.645C154.392 152.525 155.287 156.772 154.721 161.343C154.155 165.914 152.993 169.19 154.388 172.875C155.783 176.56 157.153 178.319 158.125 182.805C158.125 182.805 159.956 185.578 162.497 189.374C164.259 192.011 166.359 195.146 168.424 198.192" stroke="#263238" stroke-width="1.10721" stroke-linecap="round" stroke-linejoin="round"/>
<path id="Vector_216" d="M101.339 126.667C101.339 130.194 101.015 134.569 100.475 136.388C99.9346 138.207 100.297 144.29 99.3038 146.851" stroke="#263238" stroke-width="1.10721" stroke-linecap="round" stroke-linejoin="round"/>
<path id="Vector_217" d="M103.183 129.444C103.183 129.444 105.672 126.667 107.503 126.667C109.335 126.667 111.188 127.843 113.119 128.056C115.05 128.269 117.098 126.85 118.968 126.509" stroke="#263238" stroke-width="1.10721" stroke-linecap="round" stroke-linejoin="round"/>
<path id="Vector_218" d="M104.587 116.592C104.587 116.592 107.948 115.382 109.68 116.592" stroke="#263238" stroke-width="1.10721" stroke-linecap="round" stroke-linejoin="round"/>
<path id="Vector_219" d="M107.136 115.02C107.136 115.02 108.164 114.743 109.68 115.467" stroke="#263238" stroke-width="1.10721" stroke-linecap="round" stroke-linejoin="round"/>
<path id="Vector_220" d="M106.237 106.5C107.376 106.25 108.555 106.25 109.693 106.5" stroke="#263238" stroke-width="1.10721" stroke-linecap="round" stroke-linejoin="round"/>
<path id="Vector_221" d="M94.176 140.627C94.176 140.627 96.336 139.592 97.2 139.485" stroke="#263238" stroke-width="1.10721" stroke-linecap="round" stroke-linejoin="round"/>
<path id="Vector_222" d="M99.8827 143.907C99.8827 143.907 98.5867 145.892 98.3448 146.851" stroke="#263238" stroke-width="1.10721" stroke-linecap="round" stroke-linejoin="round"/>
<path id="Vector_223" d="M106.237 97.8352C106.237 97.8352 105.719 101.912 106.237 102.274C106.756 102.636 110.76 102.981 111.089 102.274C111.417 101.567 111.473 98.5807 111.473 98.5807C111.473 98.5807 109.076 94.5209 106.237 97.8352Z" stroke="#263238" stroke-width="1.10721" stroke-linecap="round" stroke-linejoin="round"/>
<path id="Vector_224" d="M97.848 134.118C97.848 134.118 101.17 132.465 101.248 130.1C101.326 127.736 100.349 127.762 99.1138 127.749" stroke="#263238" stroke-width="1.10721" stroke-linecap="round" stroke-linejoin="round"/>
<path id="Vector_225" d="M149.64 139.485C149.748 143.221 148.668 154.114 148.556 155.716C148.444 157.318 148.556 161.411 148.556 161.411" stroke="#263238" stroke-width="1.10721" stroke-linecap="round" stroke-linejoin="round"/>
<path id="Vector_226" d="M125.924 130.931C129.496 136.043 125.924 134.118 128.196 158.6" stroke="#263238" stroke-width="1.10721" stroke-linecap="round" stroke-linejoin="round"/>
<path id="Vector_227" d="M158.112 182.814C158.112 182.814 154.945 180.385 154.401 178.98" stroke="#263238" stroke-width="1.10721" stroke-linecap="round" stroke-linejoin="round"/>
<path id="Vector_228" d="M113.901 181.663C114.852 183.218 115.452 186.626 115.487 186.835" stroke="#263238" stroke-width="1.10721" stroke-linecap="round" stroke-linejoin="round"/>
</g>
</g>
</svg>
