<svg width="231" height="175" viewBox="0 0 231 175" fill="none" xmlns="http://www.w3.org/2000/svg">
<g id="school bus-rafiki 1">
<g id="freepik--background-complete--inject-2">
<path id="Vector" d="M169.171 49.1622C168.707 48.7641 168.031 48.7191 167.529 49.0528C166.864 47.5243 165.009 46.8498 163.686 47.6551C163.341 46.0081 161.913 44.7421 160.423 44.7624C158.933 44.7828 157.532 46.0874 157.222 47.7435C157.173 48.0066 157.14 48.295 156.975 48.4872C156.706 48.7996 156.256 48.6947 155.873 48.6607C154.666 48.5538 153.452 49.5163 153.124 50.84L169.74 50.7713C169.885 50.132 169.635 49.5603 169.171 49.1622Z" fill="#F5F5F5"/>
<g id="Group">
<g id="Group_2">
<g id="Group_3">
<g id="Group_4">
<path id="Vector_2" d="M207.51 115.431H151.84C150.845 115.431 150.035 114.51 150.035 113.379V21.2332C150.035 20.1019 150.845 19.1816 151.84 19.1816H207.51C208.506 19.1816 209.316 20.1019 209.316 21.2332V113.379C209.316 114.51 208.506 115.431 207.51 115.431ZM151.84 19.2691C150.887 19.2691 150.112 20.1502 150.112 21.2332V113.379C150.112 114.462 150.887 115.343 151.84 115.343H207.51C208.463 115.343 209.239 114.462 209.239 113.379V21.2332C209.239 20.1502 208.463 19.2691 207.51 19.2691H151.84Z" fill="#E0E0E0"/>
<path id="Vector_3" d="M143.314 115.431H87.6444C86.6488 115.431 85.8389 114.51 85.8389 113.379V21.2332C85.8389 20.1019 86.6488 19.1816 87.6444 19.1816H143.314C144.31 19.1816 145.12 20.1019 145.12 21.2332V113.379C145.12 114.51 144.31 115.431 143.314 115.431ZM87.6444 19.2691C86.6914 19.2691 85.9159 20.1502 85.9159 21.2332V113.379C85.9159 114.462 86.6914 115.343 87.6444 115.343H143.314C144.267 115.343 145.043 114.462 145.043 113.379V21.2332C145.043 20.1502 144.267 19.2691 143.314 19.2691H87.6444Z" fill="#E0E0E0"/>
</g>
<path id="Vector_4" d="M79.1598 115.431H23.4899C22.4943 115.431 21.6844 114.51 21.6844 113.379V21.2332C21.6844 20.1019 22.4943 19.1816 23.4899 19.1816H79.1598C80.1554 19.1816 80.9654 20.1019 80.9654 21.2332V113.379C80.9654 114.51 80.1554 115.431 79.1598 115.431ZM23.4899 19.2691C22.5369 19.2691 21.7614 20.1502 21.7614 21.2332V113.379C21.7614 114.462 22.5369 115.343 23.4899 115.343H79.1598C80.113 115.343 80.8884 114.462 80.8884 113.379V21.2332C80.8884 20.1502 80.113 19.2691 79.1598 19.2691H23.4899Z" fill="#E0E0E0"/>
</g>
<path id="Vector_5" d="M231 136.805H0V136.847H231V136.805Z" fill="#E0E0E0"/>
</g>
<g id="Group_5">
<path id="Vector_6" d="M218.481 147.087H201.317V147.234H218.481V147.087Z" fill="#EBEBEB"/>
<path id="Vector_7" d="M156.978 148.685H152.473V148.832H156.978V148.685Z" fill="#EBEBEB"/>
<path id="Vector_8" d="M34.9022 142.608H12.5185V142.755H34.9022V142.608Z" fill="#EBEBEB"/>
<path id="Vector_9" d="M42.798 142.608H39.5161V142.755H42.798V142.608Z" fill="#EBEBEB"/>
<path id="Vector_10" d="M102.009 145.094H53.4644V145.241H102.009V145.094Z" fill="#EBEBEB"/>
</g>
</g>
<g id="freepik--freepik--tree-1--inject-2--inject-2">
<path id="Vector_11" d="M81.8118 57.6604C81.172 57.2216 80.4312 57.0107 79.6849 57.0548C79.2268 56.4228 79.5961 55.472 80.0402 54.8292C80.4843 54.1865 81.0265 53.4535 80.8582 52.6567C80.5964 51.4616 79.1193 51.4138 78.0536 51.6475C77.6609 50.925 77.6703 50.0274 77.4786 49.1934C77.287 48.3595 76.6606 47.4831 75.9641 47.5999C75.2677 47.7168 74.8377 48.5932 74.1505 48.7791C73.3512 48.9916 72.6594 48.1895 72.033 47.5893C71.956 47.5143 71.8749 47.4451 71.79 47.3821C71.9208 44.8909 74.0056 45.2893 75.7818 44.9493C77.1702 44.6891 73.4914 40.6999 76.296 39.4144C76.8394 39.2449 77.3158 38.8702 77.6469 38.3522C77.9376 37.5457 77.6799 36.6184 77.0346 36.1478C76.3961 35.71 75.6571 35.4991 74.9124 35.5422C74.4543 34.9101 74.8236 33.9593 75.2677 33.3166C75.7117 32.6739 76.2493 31.9408 76.0857 31.1441C75.8193 29.9489 74.3468 29.9011 73.2811 30.1348C72.8884 29.4124 72.8978 28.5147 72.7061 27.6808C72.5145 26.8469 71.8928 25.9704 71.1916 26.0873C70.4905 26.2042 70.0651 27.0806 69.378 27.2665C68.5787 27.4789 67.8868 26.6769 67.2605 26.0766C66.6341 25.4764 65.5403 25.0993 65.1103 25.8907C64.8532 26.3582 65.0075 27.0168 64.7364 27.4843C64.2736 28.281 63.1658 27.7923 62.4833 27.2186C61.8009 26.645 60.6977 26.1244 60.2303 26.9212C60.1085 27.1823 60.0188 27.4611 59.9639 27.7499C59.8974 27.9555 59.8044 28.1488 59.6881 28.3235C59.5525 27.7711 59.5104 27.1709 59.3842 26.6131C59.1925 25.7845 58.5709 24.9028 57.8697 25.0196C57.1686 25.1365 56.7433 26.0182 56.0561 26.1989C55.2567 26.4166 54.565 25.6092 53.9386 25.009C53.3123 24.4088 52.2184 24.0316 51.7884 24.8284C51.5314 25.2958 51.6856 25.9545 51.4144 26.422C51.3584 26.5272 51.2816 26.6163 51.1901 26.6822C50.9517 26.6291 50.718 26.6291 50.4843 26.6291C50.0261 26.0023 50.3955 25.0568 50.8395 24.4088C51.2836 23.7607 51.8258 23.0277 51.6575 22.2362C51.3958 21.0358 49.9187 20.9933 48.8529 21.227C48.4602 20.4993 48.4696 19.6016 48.278 18.773C48.0863 17.9444 47.4646 17.0573 46.7635 17.1794C46.0624 17.3016 45.637 18.1781 44.9498 18.3639C44.1505 18.5764 43.4587 17.7797 42.8324 17.1741C42.206 16.5687 41.1122 16.1968 40.6821 16.9882C40.4251 17.4504 40.5793 18.1144 40.3082 18.5817C39.8455 19.3732 38.747 18.8845 38.0599 18.3108C37.3727 17.7372 36.2696 17.2166 35.8021 18.0134C35.6795 18.276 35.5899 18.5566 35.5357 18.8473C35.2131 19.9097 34.1988 20.4409 33.4135 21.1208C32.6282 21.8007 32.0065 23.1552 32.6703 23.9839C32.9975 24.3982 33.5771 24.5522 33.7407 25.0834C33.9417 25.7102 33.3574 26.321 32.89 26.7725C32.2775 27.5452 32.0971 28.6423 32.4226 29.6143C32.1897 29.8553 31.9139 30.0365 31.6139 30.1455C30.8146 30.3579 30.1228 29.5559 29.4964 28.9556C28.8701 28.3554 27.7763 27.9783 27.3462 28.7697C27.0891 29.2318 27.2434 29.8958 26.9722 30.3633C26.5095 31.16 25.411 30.6713 24.7239 30.0977C24.0368 29.524 22.9337 29.0034 22.4662 29.8002C22.3444 30.0613 22.2548 30.3401 22.1997 30.6288C21.8772 31.6912 20.8629 32.2224 20.0776 32.9022C19.2923 33.5822 18.6706 34.9367 19.3343 35.7707C19.6475 36.1849 20.1898 36.3549 20.3768 36.833C19.8252 36.5833 19.1894 36.6471 18.9324 37.1145C18.6753 37.5819 18.8295 38.2406 18.5585 38.708C18.0957 39.5048 16.9972 39.0161 16.31 38.4424C15.623 37.8687 14.5198 37.3482 14.0524 38.145C13.9297 38.4075 13.8401 38.6882 13.7859 38.9789C13.4634 40.0413 12.4491 40.5619 11.6638 41.2471C10.8784 41.9323 10.2568 43.2868 10.9206 44.1154C11.2477 44.5244 11.8274 44.6838 11.9909 45.215C12.1966 45.8417 11.6123 46.4526 11.1449 46.9041C10.369 47.6477 10.2287 49.884 11.2524 50.5002C11.6825 50.7551 12.3229 50.8879 12.4164 51.3713C12.5098 51.8547 12.0798 52.2264 11.7946 52.5983C11.7286 52.6946 11.6694 52.7968 11.6175 52.9037C11.0772 54.0191 11.4348 55.421 12.4164 56.035C12.6641 56.1625 12.9632 56.274 13.0567 56.5661C13.092 56.7843 13.0709 57.0094 12.996 57.2142C12.8979 57.6204 12.8647 58.0431 12.8978 58.4625C12.8976 58.6067 12.9462 58.7455 13.0333 58.8503C13.1271 58.9264 13.2408 58.964 13.3559 58.9565C14.833 59.0308 15.5435 58.436 16.4456 59.8967C16.5244 60.0438 16.6295 60.1704 16.7541 60.2685C16.8805 60.3401 17.0196 60.3783 17.1608 60.38C18.1752 60.4757 18.8295 59.7585 19.7644 59.6204C21.0592 59.4346 21.3257 60.1888 22.4615 60.7944C24.2424 61.7505 25.1072 61.1609 25.4437 59.7798C25.5323 59.3886 25.5855 58.9882 25.6027 58.5847C25.5949 57.9757 25.822 57.3934 26.2244 56.9911H26.2524C27.2013 57.0815 27.8417 56.4653 28.6737 56.2741L29.2019 56.2104C30.1882 56.1997 30.5154 56.8743 31.5391 57.4054C32.0101 57.6875 32.5309 57.8454 33.0629 57.8675C33.2125 58.4944 32.6703 59.0574 32.2029 59.493C31.4316 60.2419 31.2914 62.4782 32.3151 63.0891C32.7404 63.344 33.3855 63.4874 33.479 63.9655C33.5724 64.4435 33.1424 64.8206 32.8573 65.1872C32.7919 65.2826 32.7332 65.3837 32.6818 65.4896C32.139 66.6067 32.4959 68.0124 33.479 68.6292C33.722 68.762 34.0259 68.8683 34.1146 69.1604C34.1541 69.3796 34.1345 69.6073 34.0586 69.8138C33.956 70.2171 33.9226 70.639 33.9604 71.0567C33.9588 71.2018 34.0055 71.3422 34.0913 71.4498C34.1875 71.5237 34.3026 71.5592 34.4185 71.5507C35.8956 71.625 36.6061 71.0301 37.5083 72.4909C37.5845 72.6401 37.6901 72.7674 37.8167 72.8627C37.9436 72.9337 38.0822 72.9735 38.2234 72.9795C39.2378 73.0751 39.8922 72.3527 40.827 72.22C42.1172 72.0341 42.3883 72.7883 43.5194 73.3938C45.3051 74.3447 46.1698 73.7604 46.5063 72.3793C46.5952 71.9864 46.6485 71.5841 46.6653 71.1788C46.7962 68.693 48.8809 69.086 50.6618 68.7513C50.7876 68.7401 50.8982 68.6528 50.9517 68.523H51.0639C52.0782 68.6186 52.7326 67.9015 53.6675 67.7634C54.9622 67.5775 55.2287 68.3318 56.3646 68.9373C58.1455 69.8934 59.0103 69.3038 59.3468 67.9228C59.4357 67.5298 59.4889 67.1276 59.5057 66.7224C59.6226 64.7888 60.908 64.5976 62.3103 64.4489C62.3549 65.2139 62.7437 65.8987 63.3387 66.2602C63.5865 66.3876 63.8856 66.4992 63.9791 66.7914C64.0144 67.0095 63.9933 67.2346 63.9183 67.4394C63.8206 67.8437 63.7873 68.2647 63.8202 68.6824C63.8185 68.8274 63.8652 68.968 63.9511 69.0754C64.0478 69.1485 64.1621 69.1856 64.2783 69.1816C65.7554 69.256 66.4659 68.6611 67.368 70.1218C67.4468 70.2689 67.552 70.3956 67.6765 70.4936C67.8029 70.5653 67.9419 70.6035 68.0832 70.6052C69.0975 70.7008 69.7519 69.9838 70.6868 69.8457C71.9815 69.6597 72.248 70.414 73.3839 71.0195C75.1648 71.9756 76.0296 71.386 76.3661 70.005C76.4546 69.6137 76.5079 69.2133 76.525 68.8098C76.6559 66.3186 78.7454 66.717 80.5216 66.377C81.9099 66.1168 78.2265 62.1277 81.0311 60.8422C81.5745 60.6726 82.0509 60.2979 82.382 59.7798C82.6406 59.0083 82.4058 58.1357 81.8118 57.6604Z" fill="#E0E0E0"/>
<path id="Vector_12" d="M30.1822 72.5064C29.6504 72.1387 29.0331 71.9624 28.4114 72.0005C28.0305 71.4722 28.3422 70.6852 28.7082 70.1456C29.0742 69.606 29.5293 69.0214 29.3858 68.3356C29.1781 67.3351 27.9464 67.3014 27.061 67.4981C26.7296 66.8911 26.7395 66.1378 26.5664 65.4521C26.3932 64.7663 25.9233 64.0469 25.305 64.1311C24.6867 64.2155 24.3652 64.9631 23.7914 65.1149C23.1286 65.2947 22.5499 64.6258 22.0305 64.1255C21.5111 63.6253 20.596 63.3105 20.2349 63.9682C20.0222 64.3616 20.1508 64.9181 19.9283 65.3059C19.5375 65.9805 18.6224 65.5589 18.0485 65.0811C17.4748 64.6034 16.5646 64.1705 16.1689 64.8338C16.0693 65.0526 15.9944 65.2849 15.9463 65.5252C15.6792 66.4133 14.8383 66.8517 14.1804 67.4194C13.5226 67.9871 13.0031 69.1057 13.5621 69.8083C13.8342 70.1512 14.314 70.2917 14.4525 70.7245C14.6207 71.2867 14.131 71.7588 13.7452 72.1298C13.1021 72.7537 12.9834 74.6199 13.8342 75.1258C14.1953 75.3394 14.7196 75.4068 14.8235 75.8565C14.9274 76.3062 14.5465 76.5703 14.3288 76.8795C13.7563 77.7186 13.8907 78.9261 14.629 79.5767C14.6982 79.6377 14.7715 79.6925 14.8482 79.7406C15.051 79.853 15.3033 79.9429 15.3775 80.1903C15.4142 80.3789 15.3969 80.5758 15.328 80.7524C15.2454 81.0886 15.2185 81.4393 15.2489 81.7866C15.2467 81.9072 15.2857 82.024 15.3577 82.1127C15.4368 82.1767 15.5327 82.2084 15.6298 82.2025C16.8564 82.2645 17.4501 81.7698 18.2019 82.9839C18.2676 83.1063 18.3553 83.2116 18.4592 83.293C18.5653 83.3531 18.6819 83.3857 18.8004 83.3886C19.6463 83.4673 20.1953 82.8715 20.9719 82.7591C22.0403 82.6017 22.2679 83.2312 23.2127 83.7371C24.6966 84.5297 25.4238 84.0406 25.6859 82.8883C25.7594 82.5626 25.8041 82.2293 25.8195 81.8935C25.9283 79.8193 27.6694 80.1453 29.1484 79.8643C30.3059 79.645 27.2441 76.3286 29.5738 75.255C30.0299 75.1155 30.4287 74.7994 30.7016 74.3614C30.9527 73.6819 30.7326 72.896 30.1822 72.5064Z" fill="#E0E0E0"/>
<path id="Vector_13" d="M52.9317 61.6022L54.8378 54.7329L58.5489 49.3089L57.9149 48.7078L54.4139 53.0442L53.7915 46.1748H52.7779C52.7779 46.1748 53.6106 54.3362 52.4125 57.3244C52.4125 57.3244 48.0614 69.9038 45.4124 72.6269C45.2624 72.7847 45.1315 72.9645 45.0234 73.1617C44.229 70.8462 43.1961 68.6457 41.9464 66.6061C42.9928 63.5649 45.2373 56.8812 45.9997 53.305C46.5975 50.5272 47.0457 47.7106 47.3418 44.8708L46.474 44.7622C46.474 44.7622 44.012 57.973 39.943 63.9848C38.7375 62.7262 37.3708 61.6828 35.8897 60.8905C35.559 59.0339 35.419 55.8025 36.5004 50.7588L35.6403 50.5091C35.6403 50.5091 33.9991 54.777 34.143 59.9003C33.5308 59.5508 32.9408 59.1535 32.377 58.7112C28.4558 55.5771 25.6979 49.9145 25.6979 49.9145L24.8951 50.8022C24.8951 50.8022 28.2418 59.1533 32.906 61.9426C37.5701 64.7319 40.5926 71.5305 40.8339 73.312C40.8999 73.8203 41.4388 77.8568 40.6919 84.9286C35.7289 82.5227 25.8943 75.897 25.2408 75.2869L24.0959 77.0365L40.0072 89.9742C40.2561 107.214 39.1343 133.394 39.1771 137.275H48.4429C48.2147 131.922 46.2378 103.547 47.1045 82.5066C47.1784 81.9894 47.2563 81.3971 47.3301 80.7075C48.0537 74.2536 52.3637 65.4358 54.4139 62.9284C56.6108 60.2414 59.0524 58.1115 59.0524 58.1115L58.4888 56.7376L52.9317 61.6022Z" fill="#E6E6E6"/>
</g>
<g id="freepik--freepik--tree-1--inject-2-2--inject-2">
<path id="Vector_14" d="M166.147 66.8628C165.534 66.4419 164.823 66.2397 164.107 66.2819C163.668 65.6757 164.022 64.7638 164.448 64.1474C164.874 63.5309 165.394 62.8279 165.233 62.0637C164.982 60.9174 163.565 60.8716 162.543 61.0957C162.166 60.4028 162.175 59.5418 161.991 58.742C161.807 57.9421 161.207 57.1015 160.539 57.2136C159.871 57.3257 159.458 58.1663 158.799 58.3446C158.033 58.5484 157.369 57.7791 156.768 57.2034C156.695 57.1315 156.617 57.0652 156.535 57.0047C156.661 54.6154 158.66 54.9974 160.364 54.6714C161.695 54.4218 158.167 50.5957 160.857 49.3628C161.378 49.2002 161.835 48.8409 162.153 48.344C162.431 47.5704 162.184 46.6811 161.565 46.2297C160.953 45.8099 160.244 45.6076 159.53 45.6489C159.091 45.0426 159.445 44.1307 159.871 43.5143C160.297 42.8978 160.812 42.1948 160.655 41.4306C160.4 40.2843 158.988 40.2384 157.965 40.4626C157.589 39.7697 157.598 38.9088 157.414 38.109C157.23 37.3091 156.634 36.4685 155.961 36.5805C155.289 36.6927 154.881 37.5333 154.222 37.7115C153.455 37.9153 152.792 37.146 152.191 36.5704C151.59 35.9947 150.541 35.6329 150.129 36.392C149.882 36.8404 150.03 37.4721 149.77 37.9204C149.326 38.6846 148.264 38.2159 147.609 37.6657C146.955 37.1155 145.896 36.6162 145.448 37.3804C145.331 37.6308 145.245 37.8982 145.193 38.1752C145.129 38.3724 145.04 38.5578 144.928 38.7254C144.798 38.1955 144.758 37.6198 144.637 37.0849C144.453 36.2902 143.857 35.4445 143.184 35.5565C142.512 35.6687 142.104 36.5143 141.445 36.6875C140.678 36.8964 140.014 36.122 139.414 35.5464C138.813 34.9707 137.764 34.6089 137.351 35.3732C137.105 35.8214 137.253 36.4532 136.993 36.9015C136.939 37.0024 136.865 37.0879 136.778 37.1512C136.549 37.1002 136.325 37.1002 136.101 37.1002C135.661 36.499 136.015 35.5922 136.441 34.9707C136.867 34.3491 137.387 33.6461 137.226 32.8869C136.975 31.7356 135.558 31.6948 134.536 31.919C134.159 31.221 134.168 30.36 133.985 29.5653C133.801 28.7705 133.204 27.9198 132.532 28.0369C131.86 28.1541 131.452 28.9947 130.792 29.173C130.026 29.3768 129.362 28.6126 128.762 28.0318C128.161 27.4511 127.112 27.0944 126.699 27.8535C126.453 28.2967 126.601 28.9336 126.341 29.3819C125.897 30.141 124.843 29.6723 124.184 29.1221C123.525 28.5719 122.467 28.0726 122.019 28.8368C121.901 29.0886 121.815 29.3578 121.763 29.6366C121.454 30.6556 120.481 31.165 119.728 31.8171C118.975 32.4692 118.378 33.7683 119.015 34.5631C119.329 34.9605 119.885 35.1082 120.042 35.6177C120.234 36.2189 119.674 36.8047 119.226 37.2377C118.638 37.9788 118.465 39.0311 118.777 39.9634C118.554 40.1945 118.29 40.3683 118.002 40.4728C117.235 40.6766 116.572 39.9073 115.971 39.3317C115.37 38.7559 114.321 38.3942 113.909 39.1533C113.662 39.5965 113.81 40.2334 113.55 40.6817C113.106 41.4459 112.053 40.9771 111.393 40.427C110.734 39.8767 109.676 39.3775 109.228 40.1417C109.111 40.392 109.025 40.6595 108.973 40.9364C108.663 41.9554 107.69 42.4648 106.937 43.1169C106.184 43.769 105.588 45.0682 106.224 45.868C106.525 46.2653 107.045 46.4284 107.224 46.8869C106.695 46.6475 106.085 46.7086 105.839 47.1569C105.592 47.6052 105.74 48.237 105.48 48.6853C105.036 49.4495 103.983 48.9808 103.324 48.4305C102.665 47.8803 101.607 47.381 101.158 48.1453C101.041 48.397 100.955 48.6663 100.903 48.9451C100.593 49.9641 99.6205 50.4633 98.8673 51.1205C98.1141 51.7777 97.5179 53.0768 98.1545 53.8716C98.4683 54.2639 99.0243 54.4167 99.1811 54.9262C99.3784 55.5273 98.818 56.1132 98.3697 56.5462C97.6255 57.2595 97.491 59.4044 98.4728 59.9953C98.8853 60.2398 99.4995 60.3671 99.5892 60.8308C99.6788 61.2944 99.2664 61.651 98.9928 62.0076C98.9295 62.1 98.8727 62.198 98.823 62.3006C98.3047 63.3704 98.6478 64.715 99.5892 65.3038C99.8267 65.4261 100.114 65.5331 100.203 65.8133C100.237 66.0226 100.217 66.2384 100.145 66.4349C100.051 66.8244 100.019 67.2298 100.051 67.6321C100.051 67.7704 100.097 67.9035 100.181 68.004C100.271 68.077 100.38 68.113 100.49 68.1059C101.907 68.1772 102.588 67.6066 103.454 69.0076C103.529 69.1487 103.63 69.2702 103.75 69.3642C103.871 69.4329 104.004 69.4695 104.14 69.4712C105.113 69.5629 105.74 68.8752 106.637 68.7427C107.879 68.5644 108.134 69.2878 109.224 69.8686C110.932 70.7856 111.761 70.2201 112.084 68.8955C112.169 68.5203 112.22 68.1363 112.236 67.7492C112.229 67.1652 112.447 66.6067 112.833 66.2209H112.859C113.77 66.3075 114.384 65.7165 115.182 65.5331L115.688 65.472C116.634 65.4617 116.948 66.1088 117.93 66.6183C118.382 66.8887 118.881 67.0402 119.392 67.0615C119.535 67.6627 119.015 68.2026 118.567 68.6205C117.827 69.3387 117.692 71.4836 118.674 72.0695C119.082 72.314 119.701 72.4516 119.791 72.9101C119.88 73.3686 119.468 73.7303 119.194 74.0818C119.132 74.1733 119.075 74.2703 119.026 74.3718C118.505 75.4433 118.848 76.7915 119.791 77.3831C120.024 77.5105 120.315 77.6124 120.4 77.8925C120.438 78.1028 120.419 78.3212 120.347 78.5192C120.248 78.9061 120.216 79.3108 120.252 79.7113C120.251 79.8506 120.296 79.9852 120.378 80.0884C120.47 80.1593 120.581 80.1933 120.692 80.1851C122.108 80.2565 122.79 79.6859 123.655 81.0869C123.728 81.23 123.83 81.3521 123.951 81.4435C124.073 81.5117 124.206 81.5498 124.341 81.5556C125.314 81.6473 125.942 80.9544 126.838 80.8271C128.076 80.6488 128.336 81.3722 129.421 81.9529C131.133 82.8649 131.963 82.3045 132.285 80.9799C132.371 80.603 132.422 80.2172 132.438 79.8285C132.563 77.4443 134.563 77.8213 136.271 77.5002C136.392 77.4895 136.498 77.4057 136.549 77.2812H136.657C137.629 77.3729 138.257 76.6851 139.154 76.5527C140.396 76.3744 140.651 77.0978 141.741 77.6786C143.449 78.5956 144.278 78.0301 144.601 76.7055C144.686 76.3287 144.737 75.9429 144.753 75.5542C144.865 73.6998 146.098 73.5164 147.443 73.3737C147.486 74.1075 147.859 74.7643 148.429 75.111C148.667 75.2332 148.954 75.3402 149.044 75.6204C149.078 75.8296 149.057 76.0455 148.985 76.2419C148.892 76.6297 148.86 77.0334 148.891 77.4341C148.89 77.5732 148.934 77.708 149.017 77.8111C149.11 77.8811 149.219 77.9167 149.331 77.913C150.747 77.9843 151.429 77.4137 152.294 78.8147C152.37 78.9558 152.47 79.0772 152.59 79.1713C152.711 79.24 152.845 79.2766 152.98 79.2783C153.953 79.37 154.581 78.6823 155.477 78.5498C156.719 78.3715 156.975 79.0949 158.064 79.6757C159.772 80.5927 160.601 80.0272 160.924 78.7026C161.009 78.3274 161.06 77.9433 161.077 77.5564C161.202 75.167 163.206 75.5491 164.91 75.223C166.241 74.9734 162.709 71.1474 165.399 69.9144C165.92 69.7518 166.377 69.3925 166.694 68.8955C166.942 68.1556 166.717 67.3186 166.147 66.8628Z" fill="#EBEBEB"/>
<path id="Vector_15" d="M116.629 81.1018C116.119 80.7491 115.526 80.58 114.93 80.6166C114.565 80.1098 114.864 79.3551 115.215 78.8375C115.566 78.32 116.002 77.7593 115.865 77.1015C115.666 76.1419 114.484 76.1096 113.635 76.2982C113.317 75.7161 113.327 74.9936 113.161 74.3359C112.995 73.6782 112.544 72.9881 111.951 73.069C111.358 73.1498 111.049 73.8668 110.499 74.0125C109.863 74.1849 109.308 73.5434 108.81 73.0635C108.312 72.5838 107.434 72.2819 107.088 72.9127C106.884 73.29 107.007 73.8237 106.794 74.1957C106.419 74.8427 105.541 74.4383 104.991 73.9801C104.441 73.5219 103.568 73.1067 103.188 73.7429C103.093 73.9528 103.021 74.1756 102.975 74.406C102.719 75.2578 101.912 75.6783 101.281 76.2228C100.65 76.7673 100.152 77.8401 100.688 78.5141C100.949 78.8429 101.409 78.9777 101.542 79.3928C101.703 79.9319 101.234 80.3848 100.864 80.7406C100.247 81.339 100.133 83.1289 100.949 83.6141C101.295 83.8189 101.798 83.8836 101.898 84.3149C101.997 84.7462 101.632 84.9996 101.423 85.2961C100.874 86.1008 101.003 87.259 101.711 87.883C101.778 87.9415 101.848 87.9941 101.922 88.0403C102.116 88.148 102.358 88.2343 102.429 88.4715C102.464 88.6524 102.448 88.8413 102.382 89.0106C102.302 89.3331 102.277 89.6694 102.306 90.0026C102.304 90.1182 102.341 90.2303 102.41 90.3153C102.486 90.3767 102.578 90.4071 102.671 90.4015C103.848 90.4609 104.417 89.9865 105.138 91.1509C105.201 91.2683 105.285 91.3693 105.385 91.4474C105.487 91.505 105.599 91.5362 105.712 91.5391C106.523 91.6146 107.05 91.0431 107.795 90.9353C108.82 90.7844 109.038 91.3881 109.944 91.8733C111.367 92.6334 112.065 92.1644 112.316 91.0593C112.387 90.7468 112.43 90.4272 112.444 90.105C112.549 88.1157 114.219 88.4284 115.637 88.1588C116.747 87.9486 113.811 84.7678 116.045 83.7381C116.483 83.6042 116.865 83.301 117.127 82.8809C117.368 82.2293 117.156 81.4754 116.629 81.1018Z" fill="#E0E0E0"/>
<path id="Vector_16" d="M138.323 70.1707L140.151 63.5573L143.71 58.3354L143.102 57.7566L139.744 61.9315L139.147 55.3181H138.175C138.175 55.3181 138.974 63.1753 137.824 66.0522C137.824 66.0522 133.651 78.1629 131.111 80.7845C130.967 80.9365 130.841 81.1096 130.737 81.2994C129.976 79.0701 128.985 76.9517 127.786 74.9881C128.79 72.0602 130.943 65.6255 131.674 62.1826C132.247 59.5083 132.677 56.7966 132.961 54.0626L132.129 53.9581C132.129 53.9581 129.767 66.6766 125.865 72.4645C124.709 71.2527 123.398 70.2482 121.977 69.4854C121.66 67.698 121.526 64.5871 122.563 59.7313L121.738 59.4909C121.738 59.4909 120.164 63.5998 120.302 68.5322C119.715 68.1956 119.149 67.8132 118.608 67.3874C114.847 64.3701 112.202 58.9185 112.202 58.9185L111.432 59.773C111.432 59.773 114.642 67.813 119.116 70.4983C123.589 73.1837 126.488 79.729 126.719 81.4441C126.783 81.9335 127.299 85.8195 126.583 92.6278C121.823 90.3116 112.391 83.9328 111.764 83.3454L110.666 85.0298L125.926 97.4854C126.165 114.083 125.089 133.068 125.13 136.805H134.017C133.798 131.651 131.902 110.553 132.734 90.2961C132.804 89.7982 132.879 89.2279 132.95 88.564C133.644 82.3506 137.778 73.8614 139.744 71.4474C141.851 68.8606 144.193 66.81 144.193 66.81L143.652 65.4873L138.323 70.1707Z" fill="#E6E6E6"/>
</g>
<path id="Vector_17" d="M199.484 29.0543C198.822 28.4859 197.856 28.4215 197.14 28.8981C196.19 26.7155 193.541 25.7522 191.652 26.9022C191.159 24.5503 189.12 22.7424 186.992 22.7715C184.865 22.8006 182.864 24.6636 182.422 27.0284C182.351 27.4042 182.305 27.8159 182.068 28.0904C181.684 28.5365 181.042 28.3867 180.495 28.3382C178.772 28.1855 177.038 29.56 176.57 31.4503L200.296 31.3521C200.504 30.4392 200.146 29.6229 199.484 29.0543Z" fill="#EBEBEB"/>
<path id="Vector_18" d="M220.26 55.9018C219.598 55.3334 218.632 55.269 217.916 55.7456C216.966 53.5629 214.317 52.5996 212.428 53.7496C211.935 51.3977 209.896 49.5899 207.768 49.6189C205.641 49.6481 203.641 51.5111 203.198 53.8759C203.127 54.2517 203.081 54.6634 202.844 54.9379C202.46 55.384 201.818 55.2342 201.271 55.1857C199.548 55.0329 197.814 56.4075 197.346 58.2977L221.072 58.1996C221.28 57.2867 220.923 56.4703 220.26 55.9018Z" fill="#EBEBEB"/>
<path id="Vector_19" d="M106.979 30.9566C106.515 30.5585 105.839 30.5135 105.337 30.8473C104.672 29.3188 102.817 28.6442 101.494 29.4495C101.149 27.8025 99.7209 26.5365 98.2311 26.5569C96.7413 26.5773 95.3404 27.8819 95.0303 29.5379C94.981 29.8011 94.9484 30.0894 94.7827 30.2816C94.5137 30.594 94.0644 30.4891 93.6809 30.4551C92.4744 30.3482 91.2604 31.3108 90.9323 32.6345L107.548 32.5657C107.693 31.9264 107.443 31.3548 106.979 30.9566Z" fill="#F5F5F5"/>
</g>
<g id="freepik--Shadow--inject-2">
<path id="Vector_20" d="M176.194 159.347C176.194 160.532 147.391 161.493 111.861 161.493C76.3302 161.493 47.5272 160.532 47.5272 159.347C47.5272 158.161 76.3302 157.201 111.861 157.201C147.391 157.201 176.194 158.161 176.194 159.347Z" fill="#F5F5F5"/>
</g>
<g id="freepik--Bus--inject-2">
<g id="Group_6">
<g id="Group_7">
<path id="Vector_21" d="M186.085 63.5665C186.011 63.5383 189.383 63.5516 191.178 63.5605C191.782 63.5636 192.268 64.1211 192.268 64.8079V73.3126" stroke="#263238" stroke-miterlimit="10"/>
<path id="Vector_22" d="M191.031 81.1008H193.206C193.977 81.1008 194.602 80.3907 194.602 79.5147V67.1103C194.602 66.2344 193.977 65.5243 193.206 65.5243H191.031C190.26 65.5243 189.635 66.2344 189.635 67.1103V79.5147C189.635 80.3907 190.26 81.1008 191.031 81.1008Z" fill="#354AFF"/>
</g>
<g id="Group_8">
<path id="Vector_23" d="M180.639 104.777H24.9265V124.075H180.639V104.777Z" fill="#354AFF"/>
<path id="Vector_24" opacity="0.3" d="M180.639 104.777H24.9265V124.075H180.639V104.777Z" fill="black"/>
</g>
<g id="Group_9">
<path id="Vector_25" d="M164.893 124.495C164.893 129.229 163.87 135.745 165.922 138.209H172.607C176.867 138.209 180.321 132.069 180.321 124.495C180.321 116.921 176.867 110.781 172.607 110.781C170.774 110.781 166.139 110.532 165.922 110.781C163.937 113.062 164.893 120.179 164.893 124.495Z" fill="#263238"/>
<path id="Vector_26" opacity="0.3" d="M164.893 124.495C164.893 129.229 163.87 135.745 165.922 138.209H172.607C176.867 138.209 180.321 132.069 180.321 124.495C180.321 116.921 176.867 110.781 172.607 110.781C170.774 110.781 166.139 110.532 165.922 110.781C163.937 113.062 164.893 120.179 164.893 124.495Z" fill="black"/>
<path id="Vector_27" d="M165.922 138.209C170.182 138.209 173.636 132.069 173.636 124.495C173.636 116.921 170.182 110.781 165.922 110.781C161.662 110.781 158.209 116.921 158.209 124.495C158.209 132.069 161.662 138.209 165.922 138.209Z" fill="#263238"/>
<path id="Vector_28" opacity="0.3" d="M165.386 131.068C167.558 131.068 169.319 127.937 169.319 124.075C169.319 120.213 167.558 117.082 165.386 117.082C163.214 117.082 161.453 120.213 161.453 124.075C161.453 127.937 163.214 131.068 165.386 131.068Z" fill="white"/>
</g>
<g id="Group_10">
<path id="Vector_29" d="M195.147 124.495C195.147 129.229 194.124 135.745 196.176 138.209H202.861C207.121 138.209 210.574 132.069 210.574 124.495C210.574 116.921 207.121 110.781 202.861 110.781C201.028 110.781 196.392 110.532 196.176 110.781C194.191 113.062 195.147 120.179 195.147 124.495Z" fill="#263238"/>
<path id="Vector_30" opacity="0.3" d="M195.147 124.495C195.147 129.229 194.124 135.745 196.176 138.209H202.861C207.121 138.209 210.574 132.069 210.574 124.495C210.574 116.921 207.121 110.781 202.861 110.781C201.028 110.781 196.392 110.532 196.176 110.781C194.191 113.062 195.147 120.179 195.147 124.495Z" fill="black"/>
<path id="Vector_31" d="M196.176 138.209C200.436 138.209 203.89 132.069 203.89 124.495C203.89 116.921 200.436 110.781 196.176 110.781C191.916 110.781 188.462 116.921 188.462 124.495C188.462 132.069 191.916 138.209 196.176 138.209Z" fill="#263238"/>
<path id="Vector_32" opacity="0.3" d="M195.64 131.068C197.812 131.068 199.573 127.937 199.573 124.075C199.573 120.213 197.812 117.082 195.64 117.082C193.467 117.082 191.706 120.213 191.706 124.075C191.706 127.937 193.467 131.068 195.64 131.068Z" fill="white"/>
</g>
<g id="Group_11">
<path id="Vector_33" d="M96.2769 124.495C96.2769 129.229 95.254 135.745 97.3059 138.209H103.99C108.251 138.209 111.704 132.069 111.704 124.495C111.704 116.921 108.251 110.781 103.99 110.781C102.158 110.781 97.5223 110.532 97.3059 110.781C95.3209 113.062 96.2769 120.179 96.2769 124.495Z" fill="#263238"/>
<path id="Vector_34" opacity="0.3" d="M96.2769 124.495C96.2769 129.229 95.254 135.745 97.3059 138.209H103.99C108.251 138.209 111.704 132.069 111.704 124.495C111.704 116.921 108.251 110.781 103.99 110.781C102.158 110.781 97.5223 110.532 97.3059 110.781C95.3209 113.062 96.2769 120.179 96.2769 124.495Z" fill="black"/>
<path id="Vector_35" d="M97.3059 138.209C101.566 138.209 105.019 132.069 105.019 124.495C105.019 116.921 101.566 110.781 97.3059 110.781C93.0457 110.781 89.5922 116.921 89.5922 124.495C89.5922 132.069 93.0457 138.209 97.3059 138.209Z" fill="#263238"/>
<path id="Vector_36" opacity="0.3" d="M96.7694 131.068C98.9417 131.068 100.703 127.937 100.703 124.075C100.703 120.213 98.9417 117.082 96.7694 117.082C94.5971 117.082 92.8362 120.213 92.8362 124.075C92.8362 127.937 94.5971 131.068 96.7694 131.068Z" fill="white"/>
</g>
<g id="Group_12">
<path id="Vector_37" d="M48.1144 124.415C48.1144 129.148 47.0916 135.664 49.1435 138.129H55.8281C60.0882 138.129 63.5417 131.989 63.5417 124.415C63.5417 116.84 60.0882 110.7 55.8281 110.7C53.9957 110.7 49.3599 110.452 49.1435 110.7C47.1585 112.981 48.1144 120.098 48.1144 124.415Z" fill="#263238"/>
<path id="Vector_38" opacity="0.3" d="M48.1144 124.415C48.1144 129.148 47.0916 135.664 49.1435 138.129H55.8281C60.0882 138.129 63.5417 131.989 63.5417 124.415C63.5417 116.84 60.0882 110.7 55.8281 110.7C53.9957 110.7 49.3599 110.452 49.1435 110.7C47.1585 112.981 48.1144 120.098 48.1144 124.415Z" fill="black"/>
<path id="Vector_39" d="M49.1434 138.129C53.4035 138.129 56.8571 131.989 56.8571 124.415C56.8571 116.84 53.4035 110.7 49.1434 110.7C44.8833 110.7 41.4298 116.84 41.4298 124.415C41.4298 131.989 44.8833 138.129 49.1434 138.129Z" fill="#263238"/>
<path id="Vector_40" opacity="0.3" d="M48.607 130.988C50.7792 130.988 52.5402 127.857 52.5402 123.995C52.5402 120.133 50.7792 117.002 48.607 117.002C46.4347 117.002 44.6738 120.133 44.6738 123.995C44.6738 127.857 46.4347 130.988 48.607 130.988Z" fill="white"/>
</g>
<path id="Vector_41" d="M215.438 100.584C215.177 98.914 214.022 97.61 212.551 97.3232L187.119 89.4147V60.7567C187.119 57.4568 184.765 54.7818 181.861 54.7818H24.1736C21.4148 54.7818 19.1783 57.3232 19.1783 60.4583V125.63L39.5822 125.848C39.4672 124.994 39.4038 124.118 39.4038 123.221C39.4038 114.944 44.5165 108.233 50.8232 108.233C57.1299 108.233 62.2425 114.944 62.2425 123.221C62.2425 124.173 62.1719 125.103 62.0426 126.006L125.163 126.379H156.421C156.255 125.36 156.165 124.305 156.165 123.221C156.165 114.944 161.278 108.233 167.585 108.233C172.883 108.233 177.338 112.971 178.627 119.394H215.438V100.584Z" fill="#354AFF"/>
<path id="Vector_42" opacity="0.3" d="M152.441 91.8508L189.482 101.903V125.81C189.482 126.895 190.256 127.775 191.211 127.775H213.736C214.691 127.775 215.465 126.895 215.465 125.81V100.841C215.465 100.703 215.456 100.564 215.428 100.429C215.108 98.8578 213.988 97.6475 212.577 97.3725L187.995 89.7951C187.241 89.5631 187.145 89.4639 187.145 89.4639V60.806C187.145 57.5198 184.779 54.8311 181.888 54.8311H151.138C150.61 54.8311 151.008 83.0475 151.114 89.9751C151.128 90.8717 151.674 91.6425 152.441 91.8508Z" fill="white"/>
<path id="Vector_43" d="M124.205 64.3499H21.9675V94.1404H124.205V64.3499Z" fill="#263238"/>
<path id="Vector_44" opacity="0.3" d="M122.226 66.964H24.2986V91.2298H122.226V66.964Z" fill="white"/>
<path id="Vector_45" d="M186.321 64.3499H153.217V89.4628H186.321V64.3499Z" fill="#263238"/>
<path id="Vector_46" d="M149.181 64.3499H127.25V126.656H149.181V64.3499Z" fill="#263238"/>
<path id="Vector_47" d="M215.877 119.181H178.443V127.726H215.877V119.181Z" fill="black"/>
<path id="Vector_48" opacity="0.3" d="M154.404 68.1406C154.404 68.1406 153.947 88.1746 154.861 88.2784C155.774 88.3822 183.817 88.2784 183.817 88.2784C183.817 88.2784 183.909 69.9053 183.452 69.3862C182.995 68.8672 154.404 68.1406 154.404 68.1406Z" fill="white"/>
<path id="Vector_49" d="M211.742 110.67C211.742 112.728 212.348 114.396 213.095 114.396C213.842 114.396 214.448 112.728 214.448 110.67C214.448 108.613 213.842 106.945 213.095 106.945C212.348 106.945 211.742 108.613 211.742 110.67Z" fill="white"/>
<path id="Vector_50" d="M183.007 60.3732C183.007 61.6174 183.373 62.6261 183.825 62.6261C184.277 62.6261 184.643 61.6174 184.643 60.3732C184.643 59.1289 184.277 58.1202 183.825 58.1202C183.373 58.1202 183.007 59.1289 183.007 60.3732Z" fill="white"/>
<path id="Vector_51" d="M153.886 60.0841C153.886 61.3284 154.252 62.3371 154.704 62.3371C155.156 62.3371 155.522 61.3284 155.522 60.0841C155.522 58.8398 155.156 57.8311 154.704 57.8311C154.252 57.8311 153.886 58.8398 153.886 60.0841Z" fill="white"/>
<path id="Vector_52" d="M192.739 110.577C192.739 112.634 193.382 114.302 194.175 114.302C194.968 114.302 195.611 112.634 195.611 110.577C195.611 108.519 194.968 106.851 194.175 106.851C193.382 106.851 192.739 108.519 192.739 110.577Z" fill="white"/>
<path id="Vector_53" d="M209.619 109.712H200.105V113.986H209.619V109.712Z" fill="white"/>
<path id="Vector_54" d="M179.236 57.9742H159.294V62.7722H179.236V57.9742Z" fill="white"/>
<path id="Vector_55" opacity="0.3" d="M215.438 101.882H189.455V127.726H215.438V101.882Z" fill="black"/>
<path id="Vector_56" d="M19.1783 99.465L150.844 99.0643V97.709H19.1783V99.465Z" fill="#263238"/>
<path id="Vector_57" d="M19.5486 103.638L150.846 103.237L150.844 101.882H19.1783L19.5486 103.638Z" fill="#263238"/>
<path id="Vector_58" opacity="0.3" d="M147.319 66.0033H129.13V119.412H147.319V66.0033Z" fill="white"/>
<path id="Vector_59" opacity="0.3" d="M147.319 75.9898C147.319 75.7842 129.13 89.4628 129.13 89.4628V99.7954L147.319 86.3208V75.9898Z" fill="white"/>
<path id="Vector_60" opacity="0.3" d="M43.3089 66.964L24.2986 80.8165V91.1491L57.602 66.964H43.3089Z" fill="white"/>
<path id="Vector_61" opacity="0.3" d="M91.114 66.964L56.4321 91.1491H72.1038L105.407 66.964H91.114Z" fill="white"/>
<path id="Vector_62" d="M138.92 65.1158H137.617V124.44H138.92V65.1158Z" fill="#263238"/>
<path id="Vector_63" d="M150.844 54.7818V126.719" stroke="black" stroke-width="0.75" stroke-miterlimit="10"/>
<path id="Vector_64" opacity="0.3" d="M180.639 113.68C177.688 104.112 171.609 102.793 168.081 102.909C164.552 102.793 158.473 104.112 155.522 113.68C155.522 113.68 155.718 113.12 156.159 112.261C161.455 101.936 174.707 101.936 180.002 112.261C180.443 113.12 180.639 113.68 180.639 113.68Z" fill="black"/>
<path id="Vector_65" opacity="0.3" d="M64.5341 114.587C61.4568 105.201 53.0164 104.566 51.0592 104.703C48.4794 104.733 40.6448 104.507 37.5843 114.587C37.5843 114.587 40.8914 105.652 51.0592 105.429C61.2269 105.652 64.5341 114.587 64.5341 114.587Z" fill="black"/>
<path id="Vector_66" opacity="0.3" d="M180.624 64.3499C180.458 64.3499 153.217 78.714 153.217 78.714V86.6995L186.321 67.8361V64.3499H180.347" fill="white"/>
<path id="Vector_67" d="M122.997 70.2266H23.1646V71.3782H122.997V70.2266Z" fill="#263238"/>
<path id="Vector_68" d="M46.9711 66.5205H46.0389V92.3292H46.9711V66.5205Z" fill="#263238"/>
<path id="Vector_69" d="M72.3911 66.3408H71.4589V92.1494H72.3911V66.3408Z" fill="#263238"/>
<path id="Vector_70" d="M97.811 66.3408H96.8788V92.1494H97.811V66.3408Z" fill="#263238"/>
<path id="Vector_71" d="M127.25 120.433H62.0425V127.359H127.25V120.433Z" fill="black"/>
<path id="Vector_72" d="M40.1671 119.688H18.1584V128.104H40.1671V119.688Z" fill="black"/>
<path id="Vector_73" d="M149.463 126.379H126.657V132.576H149.463V126.379Z" fill="black"/>
<path id="Vector_74" d="M157.043 120.433H149.181V127.726H157.043V120.433Z" fill="black"/>
<path id="Vector_75" opacity="0.3" d="M159.902 91.2538L189.09 97.709L209.619 98.587C209.619 98.587 188.687 99.9167 188.462 99.4651C188.238 99.0134 159.902 91.2538 159.902 91.2538Z" fill="black"/>
<g id="Group_13">
<path id="Vector_76" d="M150.872 62.7892C150.872 62.7892 154.563 62.7743 156.357 62.7833C156.961 62.7863 157.447 63.3439 157.447 64.0306V72.5353" stroke="#263238" stroke-miterlimit="10"/>
<path id="Vector_77" d="M156.21 80.3235H158.385C159.156 80.3235 159.781 79.6135 159.781 78.7375V66.3331C159.781 65.4571 159.156 64.747 158.385 64.747H156.21C155.439 64.747 154.814 65.4571 154.814 66.3331V78.7375C154.814 79.6135 155.439 80.3235 156.21 80.3235Z" fill="#354AFF"/>
</g>
<path id="Vector_78" opacity="0.3" d="M118.312 106.216H72.2165C71.7981 106.216 71.4589 106.601 71.4589 107.077V116.221C71.4589 116.697 71.7981 117.082 72.2165 117.082H118.312C118.731 117.082 119.07 116.697 119.07 116.221V107.077C119.07 106.601 118.731 106.216 118.312 106.216Z" fill="black"/>
<path id="Vector_79" opacity="0.3" d="M19.1783 62.337C19.1783 61.7307 20.0031 57.017 27.0893 56.8207C34.1754 56.6242 185.815 56.8207 185.815 56.8207C185.815 56.8207 184.501 54.7048 181.404 54.7818C180.201 54.8117 168.302 54.803 150.844 54.7818C110.274 54.7326 42.3357 54.7531 23.9098 54.8149C21.2937 54.8236 19.1783 57.2361 19.1783 60.209V62.337Z" fill="white"/>
</g>
</g>
<g id="freepik--Speech_Bubble--inject-2">
<g id="Group_14">
<path id="Vector_80" d="M97.2118 85.1342H90.0611C88.9296 85.1342 88.0124 86.1765 88.0124 87.4622V93.0175C88.0124 94.3033 88.9296 95.3456 90.0611 95.3456H90.5653V97.4473L92.0681 95.3456H97.2118C98.3433 95.3456 99.2606 94.3033 99.2606 93.0175V87.4622C99.2606 86.1765 98.3433 85.1342 97.2118 85.1342Z" fill="#354AFF"/>
<path id="Vector_81" opacity="0.6" d="M97.2118 85.1342H90.0611C88.9296 85.1342 88.0124 86.1765 88.0124 87.4622V93.0175C88.0124 94.3033 88.9296 95.3456 90.0611 95.3456H90.5653V97.4473L92.0681 95.3456H97.2118C98.3433 95.3456 99.2606 94.3033 99.2606 93.0175V87.4622C99.2606 86.1765 98.3433 85.1342 97.2118 85.1342Z" fill="white"/>
<g id="Group_15">
<path id="Vector_82" d="M96.1512 90.8951C96.4696 90.8951 96.7277 90.6018 96.7277 90.2399C96.7277 89.8781 96.4696 89.5847 96.1512 89.5847C95.8327 89.5847 95.5746 89.8781 95.5746 90.2399C95.5746 90.6018 95.8327 90.8951 96.1512 90.8951Z" fill="white"/>
<path id="Vector_83" d="M93.0338 90.2399C93.0338 90.6017 93.2919 90.8951 93.6103 90.8951C93.9287 90.8951 94.1869 90.6017 94.1869 90.2399C94.1869 89.878 93.9287 89.5847 93.6103 89.5847C93.2919 89.5847 93.0338 89.878 93.0338 90.2399Z" fill="white"/>
<path id="Vector_84" d="M91.0694 90.8951C91.3879 90.8951 91.646 90.6018 91.646 90.2399C91.646 89.8781 91.3879 89.5847 91.0694 89.5847C90.751 89.5847 90.4929 89.8781 90.4929 90.2399C90.4929 90.6018 90.751 90.8951 91.0694 90.8951Z" fill="white"/>
</g>
</g>
</g>
<g id="freepik--Character_2--inject-2">
<g id="freepik--_Group_--inject-2">
<path id="Vector_85" d="M122.264 110.473C122.264 110.473 125.641 115.472 123.221 116.772C120.802 118.071 118.804 111.174 118.804 111.174L122.264 110.473Z" fill="#B97964"/>
<g id="Group_16">
<path id="Vector_86" d="M119.883 105.193C121.805 107.292 122.808 110.901 122.808 110.901L118.711 113.276V105.734L119.883 105.193Z" fill="#354AFF"/>
</g>
<path id="Vector_87" d="M105.352 118.333H114.24C115.607 118.333 116.715 117.074 116.715 115.521V106.828C116.715 105.274 115.607 104.015 114.24 104.015H105.352C103.985 104.015 102.877 105.274 102.877 106.828V115.521C102.877 117.074 103.985 118.333 105.352 118.333Z" fill="#263238"/>
<path id="Vector_88" d="M111.06 132.652C109.235 147.507 103.309 156.942 103.309 156.942L100.702 156.035C100.702 156.035 106.773 145.457 106.17 130.949L111.06 132.652Z" fill="#B97964"/>
<path id="Vector_89" d="M120.967 131.824C121.974 146.779 117.955 157.435 117.955 157.435L115.239 157.18C115.239 157.18 119.183 145.374 115.87 131.347L120.967 131.824Z" fill="#B97964"/>
<path id="Vector_90" d="M118.253 156.108L115.487 155.912C115.391 155.9 115.305 155.979 115.294 156.089L115.294 156.092L115.023 158.572C115.008 158.843 115.187 159.077 115.426 159.097C116.392 159.148 116.855 159.117 118.073 159.192C118.82 159.243 120.292 159.423 121.323 159.31C122.354 159.197 122.228 158.042 121.783 157.987C120.727 157.85 119.329 156.968 118.668 156.3C118.552 156.185 118.406 156.118 118.253 156.108Z" fill="#263238"/>
<path id="Vector_91" d="M119.101 156.647C118.88 156.625 118.661 156.576 118.449 156.499C118.427 156.494 118.41 156.473 118.408 156.447C118.406 156.422 118.416 156.397 118.434 156.382C118.516 156.325 119.244 155.834 119.539 155.988C119.607 156.024 119.653 156.098 119.662 156.183C119.695 156.312 119.66 156.452 119.572 156.542C119.432 156.642 119.264 156.68 119.101 156.647ZM119.491 156.119C119.333 156.036 118.911 156.241 118.613 156.427C119.048 156.557 119.373 156.565 119.496 156.444C119.549 156.384 119.569 156.296 119.55 156.215C119.547 156.173 119.524 156.136 119.491 156.119Z" fill="#354AFF"/>
<path id="Vector_92" d="M118.461 156.502C118.454 156.506 118.445 156.507 118.437 156.504C118.421 156.492 118.41 156.473 118.408 156.451C118.409 156.426 118.398 155.607 118.659 155.351C118.729 155.285 118.821 155.259 118.91 155.277C119.011 155.288 119.092 155.376 119.107 155.49C119.146 155.798 118.747 156.359 118.492 156.506C118.482 156.51 118.471 156.508 118.461 156.502ZM118.861 155.412C118.815 155.408 118.769 155.426 118.735 155.462C118.577 155.614 118.534 156.074 118.526 156.338C118.75 156.148 119.008 155.724 118.992 155.518C118.99 155.48 118.971 155.433 118.889 155.416L118.861 155.412Z" fill="#354AFF"/>
<path id="Vector_93" d="M103.464 156.108L100.698 155.912C100.602 155.9 100.516 155.979 100.505 156.089L100.505 156.092L100.234 158.572C100.219 158.843 100.399 159.077 100.637 159.097C101.603 159.148 102.066 159.117 103.284 159.192C104.031 159.243 105.504 159.423 106.535 159.31C107.565 159.197 107.439 158.042 106.994 157.987C105.938 157.85 104.54 156.968 103.879 156.3C103.764 156.185 103.617 156.118 103.464 156.108Z" fill="#263238"/>
<path id="Vector_94" d="M104.312 156.647C104.091 156.625 103.872 156.576 103.66 156.499C103.638 156.494 103.621 156.473 103.619 156.447C103.617 156.422 103.627 156.397 103.645 156.382C103.727 156.325 104.455 155.834 104.751 155.988C104.818 156.024 104.864 156.098 104.873 156.183C104.907 156.312 104.871 156.452 104.783 156.542C104.643 156.642 104.475 156.68 104.312 156.647ZM104.702 156.119C104.544 156.036 104.122 156.241 103.824 156.427C104.259 156.557 104.584 156.565 104.708 156.444C104.76 156.384 104.78 156.296 104.761 156.215C104.758 156.173 104.735 156.136 104.702 156.119Z" fill="#354AFF"/>
<path id="Vector_95" d="M103.672 156.502C103.665 156.506 103.656 156.507 103.648 156.504C103.632 156.492 103.621 156.473 103.619 156.451C103.62 156.426 103.609 155.607 103.87 155.351C103.94 155.285 104.032 155.259 104.121 155.277C104.222 155.288 104.303 155.376 104.319 155.49C104.357 155.798 103.958 156.359 103.704 156.506C103.693 156.51 103.682 156.508 103.672 156.502ZM104.072 155.412C104.026 155.408 103.98 155.426 103.946 155.462C103.788 155.614 103.745 156.074 103.737 156.338C103.961 156.148 104.219 155.724 104.204 155.518C104.201 155.48 104.182 155.433 104.1 155.416L104.072 155.412Z" fill="#354AFF"/>
<path id="Vector_96" d="M120.507 121.527C120.507 121.527 122.911 129.395 122.578 135.558L115.441 135.747C115.441 135.747 114.955 132.861 113.806 131.124C113.806 131.124 112.673 133.963 111.724 135.399L104.888 134.759C104.888 134.759 105.723 130.138 105.938 120.734L120.507 121.527Z" fill="#263238"/>
<g id="Group_17">
<path id="Vector_97" d="M120.593 122.107C120.593 122.107 118.6 109.776 119.883 105.193C119.883 105.193 118.559 103.543 114.116 103.126C109.674 102.71 107.537 103.781 107.537 103.781C107.537 103.781 105.809 112.694 105.945 121.288L120.593 122.107Z" fill="#354AFF"/>
</g>
<path id="Vector_98" d="M109.105 103.03C109.105 103.03 112.455 105.009 111.198 110.543C109.941 116.077 105.651 116.837 105.651 116.837L105.469 115.887C105.469 115.887 110.43 114.76 110.415 109.934C110.401 105.107 108.061 103.579 108.061 103.579C108.061 103.579 108.436 103.28 109.105 103.03Z" fill="#263238"/>
<path id="Vector_99" d="M116.607 103.548C117.672 104.727 117.739 112.395 119.857 116.397L120.138 115.602C120.138 115.602 118.842 113.082 118.759 110.543C118.675 108.004 118.527 105.449 117.953 103.948C117.953 103.948 117.278 103.59 117.035 103.548C116.715 103.493 116.607 103.548 116.607 103.548Z" fill="#263238"/>
<g id="Group_18">
<path id="Vector_100" d="M117.857 106.963C117.857 106.963 117.176 102.513 113.033 102.359C108.89 102.205 110.346 106.957 110.346 106.957L112.004 105.526L115.495 107.615L116.747 106.151L117.857 106.963Z" fill="#354AFF"/>
</g>
<g id="Group_19">
<path id="Vector_101" d="M111.401 103.939L111.748 104.15L114.938 106.08L116.248 104.645C116.07 104.409 115.944 104.179 115.855 103.948C115.601 103.3 115.656 102.69 115.821 102.181C116.083 101.379 116.607 100.842 116.607 100.842L115.141 100.217L111.917 98.8442C113.134 102.028 111.401 103.939 111.401 103.939Z" fill="#B97964"/>
<path id="Vector_102" opacity="0.2" d="M111.401 103.939L111.748 104.15C113.539 103.939 114.917 103.022 115.821 102.181C116.083 101.379 116.607 100.842 116.607 100.842L115.141 100.217L111.917 98.8442C113.134 102.028 111.401 103.939 111.401 103.939Z" fill="black"/>
</g>
<g id="Group_20">
<path id="Vector_103" d="M110.87 89.7997C110.87 89.7997 107.316 93.015 111.164 96.6367C115.511 100.728 110.87 89.7997 110.87 89.7997Z" fill="#263238"/>
<path id="Vector_104" d="M119.294 95.3854C119.056 98.4578 117.481 101.836 115.229 102.255C111.099 103.025 109.501 102.097 109.097 98.6164C108.719 95.4826 109.765 90.558 113.183 89.7079C116.6 88.8577 119.625 91.1235 119.294 95.3854Z" fill="#B97964"/>
<path id="Vector_105" d="M110.43 91.8404C110.43 91.8404 112.175 92.6798 114.418 92.1886C114.418 92.1886 116.06 92.5212 115.672 94.6241C115.285 96.7271 117.422 97.9127 117.465 100.704C117.465 100.704 120.033 100.399 120.516 94.2924C120.869 89.8425 117.489 88.054 113.994 88.0684C111.067 88.0805 108.967 90.4381 110.43 91.8404Z" fill="#263238"/>
<path id="Vector_106" d="M113.099 96.1571C113.081 96.5474 112.882 96.8568 112.656 96.8388C112.429 96.8207 112.266 96.4937 112.284 96.1035C112.303 95.7132 112.502 95.4093 112.728 95.4218C112.953 95.4344 113.117 95.7669 113.099 96.1571Z" fill="#263238"/>
<path id="Vector_107" d="M110.357 95.8292C110.34 96.2024 110.149 96.4983 109.933 96.4811C109.717 96.4639 109.56 96.1511 109.578 95.7779C109.595 95.4048 109.786 95.1141 110.002 95.1261C110.218 95.1381 110.375 95.4561 110.357 95.8292Z" fill="#263238"/>
<path id="Vector_108" d="M112.206 94.1319C112.182 94.1068 112.165 94.0747 112.156 94.0391C112.146 93.9424 112.206 93.8545 112.291 93.8406C112.785 93.7507 113.287 93.942 113.633 94.3527C113.689 94.4265 113.681 94.5378 113.616 94.6011C113.55 94.6601 113.455 94.652 113.398 94.5822C113.116 94.2615 112.714 94.1183 112.321 94.1992C112.276 94.1953 112.235 94.171 112.206 94.1319Z" fill="#263238"/>
<path id="Vector_109" d="M112.752 98.2306C112.785 98.2318 112.816 98.2432 112.843 98.2636C112.906 98.3299 112.911 98.4408 112.855 98.5142C112.532 98.9484 112.042 99.1748 111.543 99.1198C111.459 99.1051 111.401 99.0152 111.413 98.919C111.43 98.8253 111.507 98.7611 111.59 98.7714C111.988 98.8059 112.375 98.6165 112.626 98.2646C112.662 98.2344 112.708 98.2222 112.752 98.2306Z" fill="#263238"/>
<path id="Vector_110" d="M109.531 94.1218C109.499 94.1128 109.47 94.0941 109.447 94.0676C109.398 93.9878 109.414 93.8782 109.483 93.82C109.879 93.4728 110.4 93.3689 110.877 93.5419C110.957 93.5765 110.997 93.6783 110.967 93.7693C110.933 93.857 110.847 93.9013 110.767 93.8712C110.384 93.7423 109.971 93.8347 109.66 94.1187C109.619 94.1395 109.572 94.1406 109.531 94.1218Z" fill="#263238"/>
<path id="Vector_111" d="M110.873 96.3169L111.151 97.9965C110.796 98.0794 110.396 98.0301 110.059 97.8619C110.422 97.3858 110.696 96.866 110.873 96.3169Z" fill="#A24E3F"/>
<path id="Vector_112" d="M116.217 97.1947C116.217 97.1947 116.989 95.3312 117.829 95.9596C118.669 96.5881 118.406 99.7356 117.13 99.6859C115.854 99.6363 115.609 98.188 116.217 97.1947Z" fill="#B97964"/>
</g>
<path id="Vector_113" d="M122.826 112.442C122.178 111.483 119.643 108.176 119.643 108.176C119.643 108.176 119.666 107.136 119.43 106.814C119.194 106.493 117.147 105.918 116.944 106.152C116.741 106.386 116.703 109.559 117.146 109.902C117.59 110.245 119.43 110.446 119.43 110.446C119.43 110.446 120.939 116.89 122.826 116.837C124.712 116.783 123.836 113.94 122.826 112.442Z" fill="#B97964"/>
<path id="Vector_114" d="M104.906 109.934C104.906 109.934 103.677 116.458 105.469 117.17C107.262 117.882 107.304 110.236 107.304 110.236L104.906 109.934Z" fill="#B97964"/>
<g id="Group_21">
<path id="Vector_115" d="M107.537 103.781C105.548 104.68 104.462 109.042 104.002 111.467L107.972 112.569C107.972 112.569 108.808 110.123 108.808 107.615C108.808 105.107 107.537 103.781 107.537 103.781Z" fill="#354AFF"/>
<path id="Vector_116" opacity="0.6" d="M107.537 103.781C105.548 104.68 104.462 109.042 104.002 111.467L107.972 112.569C107.972 112.569 108.808 110.123 108.808 107.615C108.808 105.107 107.537 103.781 107.537 103.781Z" fill="white"/>
</g>
<path id="Vector_117" d="M106.017 112.901C106.664 111.942 109.199 108.635 109.199 108.635C109.199 108.635 109.177 107.595 109.413 107.274C109.648 106.952 111.695 106.378 111.898 106.611C112.101 106.845 112.14 110.018 111.696 110.361C111.252 110.704 109.413 110.905 109.413 110.905C109.413 110.905 107.903 117.35 106.017 117.296C104.13 117.242 105.006 114.399 106.017 112.901Z" fill="#B97964"/>
</g>
</g>
<g id="freepik--Character_1--inject-2">
<g id="freepik--_Group_-2--inject-2">
<g id="Group_22">
<path id="Vector_118" d="M85.5211 107.997L88.431 110.23L90.6857 106.378C90.6857 106.378 92.1308 107.612 92.2555 107.572C92.3803 107.533 90.6191 113.495 89.3172 113.868C88.0153 114.241 84.1724 111.331 84.1724 111.331L85.5211 107.997Z" fill="#EBB376"/>
<path id="Vector_119" d="M90.3183 107.059C90.3183 107.059 89.9055 106.288 90.0681 105.565C90.2307 104.843 90.1912 104.216 90.3448 103.688C90.4984 103.16 90.7514 103.854 90.8203 104.253C90.8892 104.653 90.971 105.105 91.2268 104.998C91.4826 104.89 92.9869 102.845 93.3565 102.742C93.7261 102.639 93.5738 103.057 93.5738 103.057C93.5738 103.057 93.951 102.571 94.1609 102.689C94.2154 102.719 94.2987 102.89 94.1573 103.142C93.8393 103.709 93.1181 104.859 93.1181 104.859C93.1583 104.792 94.1378 103.445 94.3076 103.265C94.5297 103.029 94.74 103.047 94.8558 103.198C95.0207 103.412 93.8563 105.13 93.8518 105.241C93.8518 105.241 94.493 104.227 94.814 104.272C95.1349 104.317 94.7619 104.98 94.3353 105.494C93.9441 105.965 93.2854 107.006 92.8469 107.441C92.3066 107.978 91.8377 108.2 91.2253 107.883C90.6129 107.567 90.3183 107.059 90.3183 107.059Z" fill="#EBB376"/>
</g>
<path id="Vector_120" d="M77.9056 132.646C76.1232 147.157 70.334 156.374 70.334 156.374L67.788 155.487C67.788 155.487 73.7181 145.155 73.1289 130.983L77.9056 132.646Z" fill="#EBB376"/>
<path id="Vector_121" d="M83.4554 131.838C84.4391 146.446 80.5141 156.855 80.5141 156.855L77.8603 156.606C77.8603 156.606 81.7135 145.074 78.4765 131.371L83.4554 131.838Z" fill="#EBB376"/>
<path id="Vector_122" d="M80.8047 155.559L78.103 155.367C78.009 155.356 77.9247 155.433 77.9145 155.54L77.9142 155.543L77.6492 157.965C77.6346 158.23 77.8102 158.459 78.043 158.478C78.9867 158.528 79.4393 158.498 80.6289 158.572C81.3587 158.621 82.7969 158.797 83.804 158.687C84.811 158.576 84.6876 157.448 84.2527 157.394C83.2214 157.26 81.8556 156.399 81.2103 155.746C81.0971 155.634 80.9544 155.568 80.8047 155.559Z" fill="#263238"/>
<path id="Vector_123" d="M81.6333 156.085C81.4168 156.064 81.2031 156.015 80.9959 155.941C80.9743 155.936 80.9582 155.915 80.956 155.89C80.954 155.865 80.9636 155.841 80.9813 155.826C81.0615 155.77 81.7729 155.291 82.0613 155.441C82.1273 155.477 82.1725 155.549 82.1809 155.632C82.2137 155.758 82.1793 155.895 82.0927 155.983C81.9562 156.081 81.7923 156.117 81.6333 156.085ZM82.0136 155.569C81.8599 155.488 81.4471 155.689 81.1564 155.871C81.5816 155.998 81.8985 156.005 82.0192 155.887C82.0702 155.828 82.0901 155.743 82.0718 155.663C82.0683 155.622 82.0462 155.586 82.0136 155.569Z" fill="#354AFF"/>
<path id="Vector_124" d="M81.0081 155.943C81.0007 155.948 80.9922 155.948 80.9842 155.946C80.9685 155.934 80.9583 155.915 80.9562 155.894C80.9574 155.87 80.9459 155.069 81.2014 154.819C81.2697 154.755 81.3593 154.729 81.4462 154.747C81.5447 154.758 81.6244 154.843 81.6394 154.955C81.6769 155.256 81.287 155.803 81.0386 155.947C81.0285 155.951 81.0173 155.95 81.0081 155.943ZM81.3987 154.879C81.3535 154.875 81.3089 154.893 81.2758 154.928C81.1212 155.077 81.0794 155.526 81.0715 155.783C81.2897 155.598 81.5419 155.183 81.5269 154.983C81.5242 154.945 81.5057 154.899 81.4261 154.883L81.3987 154.879Z" fill="#354AFF"/>
<path id="Vector_125" d="M70.4859 155.559L67.7842 155.367C67.6902 155.356 67.6059 155.433 67.5957 155.54L67.5954 155.543L67.3304 157.965C67.3158 158.23 67.4914 158.459 67.7242 158.478C68.6678 158.528 69.1205 158.498 70.3101 158.572C71.0399 158.621 72.4781 158.797 73.4851 158.687C74.4922 158.576 74.3688 157.448 73.9339 157.394C72.9026 157.26 71.5368 156.399 70.8915 155.746C70.7783 155.634 70.6356 155.568 70.4859 155.559Z" fill="#263238"/>
<path id="Vector_126" d="M71.3146 156.085C71.0981 156.064 70.8844 156.015 70.6771 155.941C70.6555 155.936 70.6394 155.915 70.6372 155.89C70.6352 155.865 70.6448 155.841 70.6625 155.826C70.7427 155.77 71.4541 155.291 71.7425 155.441C71.8085 155.477 71.8537 155.549 71.8622 155.632C71.8949 155.758 71.8605 155.895 71.7739 155.983C71.6374 156.081 71.4736 156.117 71.3146 156.085ZM71.6948 155.569C71.5412 155.488 71.1283 155.689 70.8376 155.871C71.2628 155.998 71.5797 156.005 71.7005 155.887C71.7515 155.828 71.7714 155.743 71.753 155.663C71.7495 155.622 71.7274 155.586 71.6948 155.569Z" fill="#354AFF"/>
<path id="Vector_127" d="M70.6894 155.943C70.682 155.948 70.6734 155.948 70.6654 155.946C70.6498 155.934 70.6395 155.915 70.6375 155.894C70.6387 155.87 70.6272 155.069 70.8826 154.819C70.951 154.755 71.0405 154.729 71.1274 154.747C71.2259 154.758 71.3056 154.843 71.3206 154.955C71.3581 155.256 70.9682 155.803 70.7198 155.947C70.7097 155.951 70.6985 155.95 70.6894 155.943ZM71.0799 154.879C71.0347 154.875 70.9901 154.893 70.9571 154.928C70.8024 155.077 70.7607 155.526 70.7527 155.783C70.9709 155.598 71.2231 155.183 71.2082 154.983C71.2054 154.945 71.1869 154.899 71.1073 154.883L71.0799 154.879Z" fill="#354AFF"/>
<g id="Group_23">
<path id="Vector_128" d="M69.9112 118.659H78.4779C79.845 118.659 80.9532 117.4 80.9532 115.846V107.485C80.9532 105.932 79.845 104.672 78.4779 104.672H69.9112C68.5441 104.672 67.4358 105.932 67.4358 107.485V115.846C67.4358 117.4 68.5441 118.659 69.9112 118.659Z" fill="#263238"/>
<g id="Group_24">
<path id="Vector_129" d="M84.0479 105.823C84.0479 105.823 85.6523 107.672 87.4756 109.566L85.8357 113.111C85.8357 113.111 81.7889 112.687 82.1742 109.79C82.5596 106.892 84.0479 105.823 84.0479 105.823Z" fill="#354AFF"/>
<path id="Vector_130" opacity="0.6" d="M84.0479 105.823C84.0479 105.823 85.6523 107.672 87.4756 109.566L85.8357 113.111C85.8357 113.111 81.7889 112.687 82.1742 109.79C82.5596 106.892 84.0479 105.823 84.0479 105.823Z" fill="white"/>
</g>
<g id="Group_25">
<path id="Vector_131" d="M84.0817 120.073C84.0817 120.073 82.7946 110.3 84.0479 105.823C84.0479 105.823 82.7541 104.211 78.4145 103.804C74.0749 103.398 71.9874 104.443 71.9874 104.443C71.9874 104.443 70.7336 112.095 70.8663 120.491L84.0817 120.073Z" fill="#354AFF"/>
<path id="Vector_132" opacity="0.7" d="M84.0817 120.073C84.0817 120.073 82.7946 110.3 84.0479 105.823C84.0479 105.823 82.7541 104.211 78.4145 103.804C74.0749 103.398 71.9874 104.443 71.9874 104.443C71.9874 104.443 70.7336 112.095 70.8663 120.491L84.0817 120.073Z" fill="white"/>
</g>
<path id="Vector_133" d="M73.5197 103.711C73.5197 103.711 76.7923 105.643 75.5642 111.049C74.3361 116.455 70.1458 117.197 70.1458 117.197L69.9682 116.269C69.9682 116.269 74.814 115.168 74.7996 110.454C74.7851 105.739 72.4996 104.247 72.4996 104.247C72.4996 104.247 72.8665 103.955 73.5197 103.711Z" fill="#263238"/>
<path id="Vector_134" d="M80.8478 104.216C81.8881 105.368 81.9532 112.858 84.023 116.767L84.2966 115.991C84.2966 115.991 83.0311 113.529 82.9495 111.049C82.8678 108.569 82.7237 106.073 82.1631 104.607C82.1631 104.607 81.5032 104.257 81.2656 104.216C80.9532 104.162 80.8478 104.216 80.8478 104.216Z" fill="#263238"/>
<g id="Group_26">
<path id="Vector_135" opacity="0.2" d="M81.8254 108.733C81.8254 108.733 82.1479 104.204 77.4419 103.977C72.8415 103.756 75.3011 108.513 75.3011 108.513L76.5469 106.976L79.7047 108.449L80.8252 107.553L81.8254 108.733Z" fill="black"/>
<path id="Vector_136" d="M82.0686 107.552C82.0686 107.552 81.4037 103.206 77.3567 103.055C73.3097 102.905 74.7323 107.546 74.7323 107.546L76.3519 106.148L79.7614 108.189L80.9848 106.759L82.0686 107.552Z" fill="#354AFF"/>
<path id="Vector_137" opacity="0.6" d="M82.0686 107.552C82.0686 107.552 81.4037 103.206 77.3567 103.055C73.3097 102.905 74.7323 107.546 74.7323 107.546L76.3519 106.148L79.7614 108.189L80.9848 106.759L82.0686 107.552Z" fill="white"/>
</g>
</g>
<g id="Group_27">
<path id="Vector_138" d="M84.8232 93.5547C84.8232 93.5547 85.9895 97.8279 85.5512 103.052C85.5512 103.052 85.9856 102.338 74.7996 101.472C74.7996 101.472 74.0012 92.194 78.3053 91.6992C82.6093 91.2044 84.8232 93.5547 84.8232 93.5547Z" fill="#263238"/>
<g id="Group_28">
<path id="Vector_139" d="M75.7627 104.598L79.2174 106.69L80.4969 105.287C80.3236 105.058 80.1998 104.832 80.1131 104.607C79.4733 102.984 80.8478 101.573 80.8478 101.573L79.4156 100.963L76.2662 99.6215C77.455 102.731 75.7627 104.598 75.7627 104.598Z" fill="#EBB376"/>
<path id="Vector_140" opacity="0.2" d="M76.7037 100.963C76.7037 100.963 77.9544 104.331 80.1131 104.607C79.4733 102.984 80.8477 101.573 80.8477 101.573L79.4156 100.963H76.7037Z" fill="black"/>
</g>
<g id="Group_29">
<path id="Vector_141" d="M83.9317 91.3334C83.9317 91.3334 86.7351 95.2422 82.3996 97.7894C77.5014 100.667 83.9317 91.3334 83.9317 91.3334Z" fill="#263238"/>
<path id="Vector_142" d="M74.8687 94.6735C74.5337 97.6623 75.4184 101.258 77.4908 102.191C81.2922 103.902 82.9871 103.394 84.0101 100.167C84.9443 97.2656 84.8473 92.3182 81.7408 90.6991C78.6343 89.0799 75.3334 90.5277 74.8687 94.6735Z" fill="#EBB376"/>
<path id="Vector_143" d="M83.9779 93.3851C83.9779 93.3851 82.1586 93.7738 80.1079 92.7749C80.1079 92.7749 78.4795 92.7041 78.4647 94.803C78.4499 96.9018 76.1927 97.5281 75.6406 100.182C75.6406 100.182 73.2462 99.2846 73.9023 93.3416C74.3803 89.0111 77.9333 88.1027 81.2666 88.9426C84.0575 89.6458 85.6311 92.3925 83.9779 93.3851Z" fill="#263238"/>
<path id="Vector_144" d="M80.6402 96.8742C80.5862 97.251 80.7195 97.5933 80.9387 97.6297C81.1579 97.6659 81.3738 97.3924 81.4277 97.0156C81.4817 96.6388 81.3467 96.3015 81.1292 96.2602C80.9116 96.2189 80.6941 96.4975 80.6402 96.8742Z" fill="#263238"/>
<path id="Vector_145" d="M83.3172 97.2093C83.2657 97.5697 83.3931 97.8971 83.6028 97.9317C83.8124 97.9664 84.0188 97.7049 84.0704 97.3446C84.122 96.9842 83.9929 96.6617 83.7849 96.6222C83.5768 96.5827 83.3688 96.8491 83.3172 97.2093Z" fill="#263238"/>
<path id="Vector_146" d="M81.8629 95.1523C81.8904 95.134 81.9129 95.1075 81.928 95.0756C81.9547 94.9856 81.9138 94.8876 81.8354 94.8543C81.3802 94.6517 80.8665 94.7157 80.4608 95.0258C80.3941 95.0831 80.3809 95.191 80.4313 95.2669C80.4837 95.3388 80.5758 95.3535 80.6435 95.3005C80.9711 95.061 81.3813 95.0194 81.741 95.1894C81.7843 95.1963 81.8284 95.1828 81.8629 95.1523Z" fill="#263238"/>
<path id="Vector_147" d="M80.8106 99.2658C80.7799 99.256 80.7475 99.256 80.7168 99.2658C80.6412 99.3066 80.6077 99.4081 80.6411 99.4953C80.8292 100.008 81.2268 100.383 81.7049 100.499C81.7875 100.514 81.865 100.45 81.8779 100.356C81.887 100.263 81.8323 100.178 81.7518 100.159C81.3725 100.058 81.0612 99.7516 80.9188 99.3396C80.893 99.2994 80.8539 99.2728 80.8106 99.2658Z" fill="#263238"/>
<path id="Vector_148" d="M84.4184 95.775C84.4503 95.7739 84.4812 95.7628 84.5079 95.743C84.5692 95.6784 84.5744 95.57 84.5195 95.4982C84.2047 95.0732 83.7263 94.8509 83.2396 94.9033C83.1569 94.9175 83.0999 95.0051 83.1124 95.0991C83.1282 95.1907 83.203 95.2535 83.2847 95.2437C83.6732 95.211 84.0511 95.397 84.2958 95.7415C84.331 95.771 84.3753 95.7831 84.4184 95.775Z" fill="#263238"/>
<path id="Vector_149" d="M82.7359 97.5529L82.1631 99.0903C82.4869 99.2533 82.8771 99.3007 83.2297 99.2198C82.9702 98.6795 82.8041 98.1187 82.7359 97.5529Z" fill="#D58745"/>
<path id="Vector_150" d="M77.4749 97.1278C77.4749 97.1278 77.0789 95.1666 76.1619 95.5678C75.2448 95.969 74.9203 99.0354 76.147 99.2896C77.3737 99.5437 77.8726 98.2193 77.4749 97.1278Z" fill="#EBB376"/>
<path id="Vector_151" d="M74.0334 102.231C73.9056 101.538 73.7539 100.595 73.7884 100.182C73.7884 100.182 73.4444 101.031 73.3203 102.051C72.7685 101.889 72.1955 101.665 71.6691 101.348C71.6691 101.348 72.1042 90.368 76.2137 89.3636C80.3233 88.3593 82.5722 89.46 82.5722 89.46C82.5722 89.46 85.6573 90.7724 85.5484 94.4211C85.5484 94.4211 83.6446 94.0495 81.4397 94.1732L80.9532 93.1173L80.8478 94.4211L77.4691 94.7377C77.4691 94.7377 76.7038 96.9445 77.1609 103.087C77.1609 103.087 75.1088 102.459 74.0334 102.231Z" fill="#263238"/>
</g>
</g>
<path id="Vector_152" d="M83.9194 118.659L84.0818 120.073L70.8564 120.264L70.8574 119.077L83.9194 118.659Z" fill="black"/>
<path id="Vector_153" d="M84.0817 120.073C85.5353 122.224 87.1726 130.594 86.8476 136.614C86.8476 136.614 84.812 138.118 78.0561 138.118C72.4996 138.118 68.8466 136.819 68.8466 136.819C69.6008 131.949 70.1946 120.818 70.8564 120.264L84.0817 120.073Z" fill="#263238"/>
<path id="Vector_154" d="M81.2524 119.039L81.2969 119.755C81.3077 119.929 81.1906 120.078 81.0373 120.083C80.4907 120.102 79.3311 120.142 79.3163 120.142C79.3031 120.142 79.2632 119.522 79.2391 119.128C79.2285 118.954 79.3475 118.805 79.5009 118.801L80.9755 118.753C81.1201 118.749 81.2423 118.875 81.2524 119.039Z" fill="white"/>
<path id="Vector_155" d="M76.2138 118.906V120.491L75.7037 120.485V118.912L76.2138 118.906Z" fill="#263238"/>
<path id="Vector_156" d="M82.5722 118.702L82.6842 120.264H83.174L83.0515 118.659L82.5722 118.702Z" fill="#263238"/>
<g id="Group_30">
<path id="Vector_157" d="M69.7357 113.094L68.8466 126.446L70.8564 126.766L72.9041 113.094H69.7357Z" fill="#EBB376"/>
<path id="Vector_158" d="M70.9491 125.758C70.9491 125.758 71.3861 126.512 71.2466 127.241C71.107 127.97 71.1663 128.594 71.0297 129.128C70.893 129.662 70.6181 128.98 70.5365 128.583C70.4549 128.186 70.3589 127.738 70.1067 127.856C69.8544 127.973 68.416 130.079 68.0499 130.197C67.6839 130.315 67.8229 129.892 67.8229 129.892C67.8229 129.892 67.4614 130.392 67.2478 130.284C67.1924 130.255 67.1037 130.088 67.2369 129.83C67.5367 129.251 68.221 128.072 68.221 128.072C68.1829 128.14 67.2469 129.527 67.0829 129.714C66.8684 129.958 66.6578 129.949 66.5372 129.803C66.3656 129.596 67.4746 127.831 67.4756 127.72C67.4756 127.72 66.867 128.76 66.5449 128.728C66.2227 128.697 66.5743 128.018 66.9844 127.487C67.3603 127 67.9855 125.933 68.4099 125.48C68.9329 124.922 69.3943 124.681 70.0164 124.972C70.6385 125.263 70.9491 125.758 70.9491 125.758Z" fill="#EBB376"/>
</g>
<g id="Group_31">
<path id="Vector_159" d="M71.9874 104.443C71.4184 104.712 69.8188 105.546 69.1397 109.355C68.4607 113.164 68.8466 115.029 68.8466 115.029H74.4898L74.6443 109.157L71.9874 104.443Z" fill="#354AFF"/>
<path id="Vector_160" opacity="0.6" d="M71.9874 104.443C71.4184 104.712 69.8188 105.546 69.1397 109.355C68.4607 113.164 68.8466 115.029 68.8466 115.029H74.4898L74.6443 109.157L71.9874 104.443Z" fill="white"/>
</g>
</g>
</g>
</g>
</svg>
